<svg xmlns="http://www.w3.org/2000/svg" enable-background="new 0 0 1000 1000" viewBox="0 0 1000 1000" id="online-graduation"><path fill="#c2d8f2" d="M324.94,811.73c0,0-152.3-195.53-149.07-292.33c3.23-96.8,357.76-353.26,449.53-339.44    c91.77,13.83,118.17,231.32,44,389.72c-74.17,158.4,106.86,44,123.2-51.54s186.06,117-37.72,293.59H324.94z"></path><path fill="#9bd" d="M652.87 287.11c-6.52 0-11.82-5.3-11.82-11.82s5.3-11.82 11.82-11.82 11.82 5.3 11.82 11.82S659.38 287.11 652.87 287.11zM652.87 267.45c-4.32 0-7.84 3.52-7.84 7.84s3.52 7.84 7.84 7.84 7.84-3.52 7.84-7.84S657.19 267.45 652.87 267.45zM176.17 381.99c-6.52 0-11.82-5.3-11.82-11.82 0-6.52 5.3-11.82 11.82-11.82 6.52 0 11.82 5.3 11.82 11.82C187.99 376.69 182.68 381.99 176.17 381.99zM176.17 362.33c-4.32 0-7.84 3.52-7.84 7.84s3.52 7.84 7.84 7.84c4.32 0 7.84-3.52 7.84-7.84S180.49 362.33 176.17 362.33zM464.15 251.26c-5.15 0-9.34-4.19-9.34-9.34 0-5.15 4.19-9.34 9.34-9.34 5.15 0 9.34 4.19 9.34 9.34C473.49 247.07 469.3 251.26 464.15 251.26zM464.15 236.55c-2.96 0-5.37 2.41-5.37 5.37 0 2.96 2.41 5.37 5.37 5.37 2.96 0 5.37-2.41 5.37-5.37C469.52 238.96 467.11 236.55 464.15 236.55zM878.11 487.54c-6.52 0-11.82-5.3-11.82-11.82 0-6.52 5.3-11.82 11.82-11.82s11.82 5.3 11.82 11.82C889.93 482.24 884.63 487.54 878.11 487.54zM878.11 467.88c-4.32 0-7.84 3.52-7.84 7.84 0 4.32 3.52 7.84 7.84 7.84s7.84-3.52 7.84-7.84C885.95 471.4 882.43 467.88 878.11 467.88zM808.15 414.52l-30.43-109.29 86.86-40.1 3.23 116.65L808.15 414.52zM782.46 307.42l28.18 101.21 53.15-29.16-3-108.2L782.46 307.42zM732.3 418.91l-56.68-102.01 95.17-9.78 29.53 109.54L732.3 418.91zM682.02 320.24l52.57 94.62 60.59-2-27.35-101.44L682.02 320.24z"></path><path fill="#9bd" d="M796.79,417.09l-29.92-109.2l14.62-4.01l29.92,109.2L796.79,417.09z M771.75,310.67l27.82,101.54l6.95-1.91      L778.7,308.76L771.75,310.67z"></path><path fill="#9bd" d="M688.88,317.48l-3.11-2.47l6.29-7.93l0.51-0.19c25.02-9.65,45.6-11.31,58.46-11      c14.03,0.34,22.06,2.96,22.39,3.07l1.01,0.34l2.19,7.98l-3.83,1.05l-1.61-5.89c-2.51-0.68-9.68-2.35-20.44-2.59      c-12.38-0.28-32.14,1.34-56.23,10.54L688.88,317.48z"></path><path fill="#9bd" d="M772.78,308.32l-2.19-7.98l0.7-0.8c0.23-0.27,5.8-6.62,17.7-14.06c10.91-6.82,29.46-15.88,55.9-20.34      l0.53-0.09l9.46,3.62l-1.42,3.71l-8.45-3.23c-44.04,7.55-65.93,28.04-70.02,32.24l1.61,5.89L772.78,308.32z"></path><path fill="#9bd" d="M691.8,310.06l-16.3-18.17l6.82,2.08c0.1,0.03,11.34,3.09,45.09-3.58c35.88-7.09,46.61,8.7,47.05,9.38      l-3.32,2.18c-0.02-0.04-2.45-3.56-8.85-6.26c-5.99-2.53-16.78-4.82-34.11-1.4c-22.13,4.37-34.87,4.67-41.37,4.26l7.95,8.87      L691.8,310.06z"></path><rect width="11.34" height="3.97" x="772.24" y="317.22" fill="#9bd" transform="rotate(-15.326 777.94 319.222)"></rect><rect width="11.34" height="3.97" x="774.69" y="326.17" fill="#9bd" transform="rotate(-15.326 780.392 328.169)"></rect><rect width="11.34" height="3.97" x="794.51" y="398.01" fill="#9bd" transform="rotate(-15.719 800.233 399.95)"></rect><rect width="11.34" height="3.97" x="791.99" y="389.08" fill="#9bd" transform="rotate(-15.729 797.518 391.017)"></rect><path fill="#9bd" d="M769.52 304.91c-2.89-.34-5.77-.54-8.65-.72-2.88-.16-5.76-.25-8.64-.31-1.44-.02-2.88-.05-4.32-.04-.72 0-1.44-.03-2.16-.01-.72.01-1.44.02-2.17.01-.72-.01-1.44.02-2.17.02l-2.17.02c-1.45.01-2.9.05-4.36.01 1.43-.29 2.86-.53 4.3-.74 1.44-.17 2.89-.37 4.34-.47 1.45-.13 2.91-.2 4.36-.25.73-.02 1.46-.05 2.19-.05l2.19.01c2.91.06 5.83.26 8.72.65 1.45.19 2.89.43 4.31.73C766.72 304.09 768.14 304.42 769.52 304.91zM744.72 307.27c-3.96.03-7.9.23-11.83.48-3.93.26-7.85.62-11.76 1.04-.98.11-1.95.23-2.93.35l-1.47.17-1.46.2-2.93.38c-.97.15-1.95.3-2.92.43l-1.46.21c-.49.07-.97.16-1.46.23l-2.92.46c-1.95.3-3.89.67-5.86.94.94-.3 1.89-.58 2.84-.86l1.43-.41c.48-.14.95-.27 1.44-.38 1.93-.46 3.85-.97 5.8-1.33.97-.2 1.94-.39 2.92-.58l2.93-.49 1.47-.23 1.47-.19c.98-.12 1.97-.26 2.95-.37 3.95-.43 7.91-.67 11.88-.71C736.81 306.55 740.79 306.68 744.72 307.27zM774.58 302.55c2.31-2.1 4.76-4.03 7.26-5.88 2.5-1.85 5.07-3.62 7.69-5.29 2.62-1.68 5.32-3.24 8.06-4.72 2.75-1.46 5.58-2.79 8.5-3.89l-7.92 4.9-7.84 4.96-7.83 4.99C779.88 299.29 777.26 300.95 774.58 302.55zM789.97 297.28c3.59-2.48 7.3-4.77 11.06-6.98.94-.56 1.88-1.1 2.83-1.64.95-.54 1.9-1.07 2.85-1.6 1.91-1.06 3.84-2.07 5.76-3.09l2.92-1.47c.97-.49 1.95-.98 2.93-1.45 1.97-.94 3.94-1.86 5.94-2.74 4-1.74 8.06-3.36 12.23-4.65-3.94 1.87-7.84 3.77-11.74 5.7-.97.5-1.94.99-2.91 1.47-.97.48-1.93.99-2.9 1.48-1.94.97-3.87 1.98-5.8 2.98l-2.9 1.49-2.89 1.51-5.78 3.01C797.73 293.33 793.87 295.33 789.97 297.28z"></path><g><path fill="#9bd" d="M194.75 807.41l-3.09-.27c.08-.97 9.1-97.45 58.41-170.35l2.57 1.74C203.78 710.77 194.84 806.46 194.75 807.41zM179.89 807.38l-3.09-.21c.11-1.65 10.94-165.26-5.5-215.5l2.94-.96C190.87 641.52 180.34 800.63 179.89 807.38zM160.07 807.36c-.05-.83-5.26-83.73-59.67-117.28l1.62-2.64c55.8 34.41 61.09 118.9 61.14 119.75L160.07 807.36z"></path><path fill="#9bd" d="M209.06 807.63l-3.02-.71c.06-.24 5.65-24.03 11.78-47.33 3.22-12.23 9.78-15.7 15.06-18.49 5.23-2.77 9.01-4.76 8.44-14.49-.35-5.89-1.04-10.24-1.6-13.74-1.47-9.18-2.14-13.38 6.23-25.02 4.9-6.82 9.24-9.01 12.41-10.62 4.11-2.08 6.18-3.12 6.51-13.35.09-2.95.14-5.43.18-7.56.21-11.87.24-13.39 7.85-24.27 2.02-2.88 1.04-5.94-.13-8-2.9-5.09-10.81-10.21-18.42-9.63-5.5.42-9.61 3.8-11.88 9.77-7.44 19.51-12 22.81-20.26 28.8-1.84 1.33-3.92 2.84-6.24 4.7-11.85 9.48-15.48 13.96-13.07 30.82 1.49 10.39-4.12 22.17-9.06 32.56-3.42 7.19-6.66 13.99-6.42 18.35.62 11.13-3.7 65.63-3.89 67.94l-3.09-.25c.05-.57 4.49-56.6 3.88-67.53-.29-5.15 2.96-11.97 6.71-19.86 4.76-9.99 10.15-21.32 8.79-30.79-2.62-18.3 1.81-23.78 14.2-33.68 2.38-1.9 4.49-3.44 6.36-4.79 7.78-5.64 12.07-8.75 19.19-27.4 2.7-7.06 7.86-11.24 14.54-11.75 8.05-.62 17.42 4.29 21.35 11.18 2.29 4.01 2.28 8.02-.02 11.31-7.07 10.1-7.09 11.04-7.29 22.54-.04 2.14-.08 4.64-.18 7.6-.37 11.5-3.21 13.49-8.21 16.01-3.04 1.54-6.83 3.45-11.29 9.66-7.62 10.61-7.1 13.91-5.69 22.72.57 3.56 1.28 8 1.64 14.05.69 11.71-4.54 14.48-10.08 17.41-4.99 2.64-10.64 5.63-13.51 16.54C214.71 783.64 209.12 807.4 209.06 807.63zM150.88 807.55c-.05-.31-5.61-31.26-17.33-39.47-12.88-9.01-16.75-15.79-18.01-31.51-.17-2.14-.29-4.05-.41-5.76-.69-10.62-.82-12.54-8-15.89-2.5-1.17-4.84-1.77-7.1-2.35-5.84-1.5-10.89-2.79-12.37-13.12-.73-5.09-3.02-7.22-5.67-9.69-3.51-3.26-7.49-6.96-6.73-17.87.39-5.62 3.5-7.67 6.05-8.41 10.29-2.99 31.43 10.5 37.03 18.13 4.18 5.7 7.48 6.88 11.31 8.24 2.14.76 4.36 1.55 6.86 3.14.59.38 1.2.75 1.81 1.13 6.42 3.99 14.42 8.96 15.63 20.46l.16 1.57c1.12 10.73 1.79 17.21 8.42 22.13 7.68 5.69 7.04 17.05 6.42 28.03l-.13 2.42c-.61 11.57.47 38.2.48 38.47l-3.1.13c-.01-.27-1.09-27.05-.48-38.76l.13-2.43c.6-10.63 1.16-20.67-5.18-25.37-7.73-5.73-8.5-13.12-9.66-24.3l-.16-1.57c-1.05-9.99-7.73-14.14-14.18-18.15-.62-.39-1.24-.77-1.84-1.15-2.21-1.4-4.26-2.13-6.24-2.84-3.95-1.41-8.03-2.86-12.77-9.32-5.08-6.93-24.96-19.51-33.67-16.99-1.5.43-3.53 1.49-3.82 5.65-.65 9.43 2.32 12.19 5.75 15.39 2.69 2.5 5.74 5.34 6.63 11.52 1.19 8.28 4.53 9.14 10.07 10.56 2.28.59 4.87 1.25 7.64 2.54 8.85 4.13 9.08 7.75 9.78 18.5.11 1.69.23 3.59.4 5.71 1.19 14.93 4.47 20.66 16.69 29.22 12.77 8.94 18.37 40.15 18.61 41.47L150.88 807.55z"></path><path fill="#9bd" d="M166.21,748.03c0-0.19-0.11-18.93-6.04-34.58c-6.34-16.72-7.44-23.67-3.7-44.2      c1.91-10.51-1.3-18.12-4.7-26.17c-3.03-7.17-6.16-14.59-5.86-24.41c0.3-9.73,2.95-13.73,5.29-17.25      c2.62-3.95,4.69-7.08,2.53-18.38c-1.48-7.71,6.06-14.48,13.88-16.32c8.06-1.9,18.91,0.89,22.86,15.02      c4.85,17.32,5.35,28,5.68,35.07c0.34,7.22,0.51,10.84,4.49,15.1c5.44,5.83,4.41,12.62,3.21,20.48c-0.86,5.63-1.83,12-0.48,19.07      l-3.04,0.58c-1.45-7.59-0.43-14.25,0.46-20.12c1.12-7.36,2.01-13.17-2.41-17.9c-4.75-5.09-4.97-9.6-5.32-17.07      c-0.35-7.34-0.82-17.4-5.57-34.38c-3.36-12-12.09-14.49-19.17-12.84c-6.44,1.51-12.68,6.81-11.55,12.72      c2.4,12.54-0.22,16.49-2.99,20.67c-2.21,3.34-4.5,6.78-4.77,15.63c-0.28,9.15,2.72,16.25,5.62,23.11      c3.43,8.12,6.97,16.51,4.89,27.93c-3.6,19.78-2.54,26.47,3.55,42.55c6.14,16.19,6.24,34.88,6.25,35.67L166.21,748.03z"></path></g><g><path fill="#9bd" d="M818.28 807.33l-2.93-1.01c1.39-4.02 34.55-98.49 84.29-109.05l.64 3.03C852.26 710.5 818.62 806.36 818.28 807.33zM803.43 807.26l-2.97-.87c.35-1.18 34.39-119.21 16.76-209.52l3.04-.59C838.03 687.33 803.78 806.07 803.43 807.26zM786.82 807.25c-.18-.64-18.65-64.22-46.19-74.05-6.89-2.46-13.9-1.26-20.83 3.55l-1.77-2.54c7.8-5.42 15.75-6.74 23.64-3.93 29.04 10.36 47.37 73.43 48.13 76.11L786.82 807.25z"></path><path fill="#9bd" d="M775.22,807.63c-0.08-0.13-8.1-13.26-14.8-22.39c-2.53-3.45-6.21-4.16-9.77-4.84      c-5.05-0.97-10.76-2.07-10.35-11.85l0.05-1.24c0.36-8.47,0.63-14.59-1.77-16.91c-1.14-1.1-3.01-1.51-5.91-1.28      c-4.42,0.34-8.46-0.38-12.02-1.02c-5.17-0.92-9.64-1.72-13.98,0.76c-1.98,1.13-3.22,0.72-3.91,0.17      c-1.22-0.96-1.44-2.84-0.64-5.58c1.9-6.52,11.38-21.36,27.17-22.96c21.05-2.13,24.97-1.23,32.32,7.39      c3.14,3.69,4.76,5.91,5.93,7.54c2.3,3.17,2.54,3.5,9.81,7.94c10.11,6.18,13.96,11.83,12.47,18.34c-1.41,6.21,4,34.46,6.2,44.82      l-3.03,0.64c-0.33-1.55-8.04-38.01-6.19-46.15c0.77-3.37,0.2-8.12-11.07-15c-7.51-4.59-8.13-5.22-10.7-8.77      c-1.15-1.58-2.72-3.75-5.78-7.35c-6.3-7.39-8.83-8.43-29.65-6.32c-10.3,1.04-18.26,8.83-22.28,15.78      c-2.12,3.66-2.6,6.09-2.58,7.03c0.11-0.04,0.24-0.11,0.39-0.2c5.32-3.04,10.53-2.1,16.06-1.12c3.55,0.63,7.21,1.29,11.24,0.98      c3.84-0.3,6.48,0.38,8.3,2.15c3.4,3.28,3.13,9.64,2.71,19.27l-0.05,1.24c-0.3,7.11,2.77,7.7,7.84,8.68      c3.76,0.72,8.44,1.62,11.69,6.05c6.78,9.24,14.86,22.48,14.94,22.61L775.22,807.63z"></path><path fill="#9bd" d="M791.85,785.42l-2.93-1c0.05-0.13,4.56-13.6,6.38-31.78c0.83-8.26-1.52-13.05-3.8-17.68      c-2.68-5.46-5.45-11.1-2.61-21.55c2.73-10.07,6.39-11.81,9.32-13.2c2.48-1.18,4.11-1.96,4.73-9.13      c0.58-6.82-1.48-9.3-3.67-11.92c-2.77-3.32-5.63-6.75-2.2-17.39c2.47-7.65,5.12-10.84,7.25-13.4c2.77-3.32,4.44-5.33,3.13-17.09      c-1.07-9.6-4.16-13.41-6.65-16.47c-2.85-3.51-5.31-6.54-2.63-15.29c3.99-13.05,8.84-24.4,23.98-19.9      c12.31,3.65,17.28,16.93,12.98,34.67c-1.53,6.3,1.35,14.3,4.39,22.77c3.97,11.05,8.47,23.58,3.83,35.05      c-2.5,6.18-4.4,9.66-5.65,11.96c-2.6,4.78-2.6,4.78-0.76,17.4c0.71,4.85,1.33,8.33,1.79,10.87c1.43,7.95,1.49,8.95-0.95,18.44      l-3-0.77c2.34-9.1,2.26-9.56,0.9-17.12c-0.46-2.56-1.09-6.07-1.81-10.97c-1.94-13.26-1.9-13.8,1.11-19.33      c1.29-2.37,3.06-5.62,5.5-11.64c4.2-10.38,0.1-21.8-3.87-32.84c-3.2-8.92-6.23-17.35-4.49-24.55      c3.93-16.21-0.13-27.78-10.85-30.97c-10.31-3.06-15.01,1.11-20.13,17.84c-2.2,7.18-0.59,9.16,2.07,12.43      c2.6,3.2,6.16,7.58,7.33,18.08c1.39,12.49-0.36,15.25-3.83,19.41c-1.96,2.36-4.4,5.29-6.68,12.37      c-2.9,9.01-0.9,11.41,1.63,14.45c2.38,2.85,5.07,6.08,4.38,14.17c-0.71,8.32-3.03,10.02-6.49,11.66      c-2.49,1.18-5.31,2.52-7.67,11.22c-2.53,9.32-0.24,13.98,2.41,19.37c2.35,4.78,5.01,10.21,4.1,19.35      C796.52,771.51,791.89,785.29,791.85,785.42z"></path><path fill="#9bd" d="M827.61,807.15l-3.03-0.66c4.81-22.22,11.87-28.85,18.1-34.7c3.43-3.22,6.38-6,8.47-11.14      c1.02-2.52,1.89-4.69,2.64-6.59c3.75-9.43,5.01-12.61,10.38-19.35c3.36-4.22,6.12-4.49,9.31-4.81      c3.28-0.33,7.36-0.74,14.41-6.14c7.17-5.5,6.98-9.31,6.84-12.1c-0.12-2.45-0.26-5.22,4.9-6.31c2.7-0.57,6.13-0.64,9.46-0.71      c5.12-0.11,10.93-0.23,12.31-2.27c0.45-0.66,0.42-1.68-0.09-3.03c-1-2.66-3.09-4.55-6.22-5.62c-5.95-2.03-14.88-0.63-21.26,3.32      c-5.04,3.12-8.83,1.83-12.18,0.71c-3.9-1.32-7.27-2.45-13.23,2.27c-4.91,3.9-6.71,8.46-8.3,12.49      c-2.14,5.42-4.21,10.55-13.18,10.11c-6.51-0.34-8.01,3.88-10.25,11.96c-1.55,5.57-3.3,11.88-8.05,17.04      c-10.28,11.17-19.52,55.11-19.61,55.55l-3.03-0.63c0.38-1.84,9.51-45.22,20.36-57.01c4.25-4.62,5.89-10.54,7.35-15.78      c2.1-7.55,4.08-14.68,13.39-14.23c6.84,0.36,8.06-2.86,10.15-8.15c1.65-4.17,3.7-9.36,9.26-13.78      c7.28-5.77,11.99-4.18,16.15-2.78c3.22,1.08,5.77,1.95,9.56-0.41c7.22-4.47,17.04-5.96,23.89-3.61c3.99,1.36,6.8,3.95,8.12,7.47      c0.88,2.35,0.8,4.32-0.25,5.85c-2.28,3.37-8.37,3.5-14.81,3.63c-3.18,0.07-6.47,0.14-8.88,0.65c-2.57,0.54-2.56,0.89-2.44,3.13      c0.16,3.28,0.41,8.22-8.05,14.71c-7.75,5.94-12.51,6.42-15.99,6.76c-2.9,0.29-4.65,0.47-7.2,3.66      c-5.08,6.38-6.21,9.21-9.93,18.57c-0.76,1.91-1.62,4.09-2.65,6.61c-2.34,5.77-5.69,8.91-9.22,12.24      C838.91,779.59,832.22,785.88,827.61,807.15z"></path></g><path fill="#576c89" d="M900.29,820.57H100.83l0,0c0-8.93,7.24-16.16,16.16-16.16h767.13C893.05,804.41,900.29,811.64,900.29,820.57    L900.29,820.57z"></path><g><path fill="#9bd" d="M335.84,426.53c-0.43,0-0.86,0-1.29-0.01c-24.72-0.34-47.83-10.28-65.07-27.99      c-17.24-17.72-26.55-41.08-26.22-65.8c0.33-24.72,10.28-47.83,27.99-65.07c17.71-17.24,41.08-26.55,65.8-26.22      c24.72,0.33,47.83,10.28,65.07,27.99s26.55,41.08,26.22,65.8c-0.34,24.72-10.28,47.83-27.99,65.07      C382.94,417.24,360.07,426.53,335.84,426.53z M335.79,245.45c-22.28,0-44.57,8.33-61.77,25.06c-35,34.06-35.76,90.25-1.7,125.25      c16.5,16.95,38.62,26.47,62.27,26.79c23.66,0.33,46.02-8.59,62.98-25.09c16.95-16.5,26.47-38.62,26.79-62.27      c0.32-23.66-8.59-46.02-25.09-62.98C381.94,254.39,358.87,245.45,335.79,245.45z"></path><path fill="#9bd" d="M335.83,407.91c-0.34,0-0.68,0-1.03-0.01c-19.74-0.27-38.2-8.21-51.98-22.36      c-13.77-14.15-21.21-32.82-20.94-52.56c0.27-19.74,8.21-38.2,22.36-51.98c14.15-13.77,32.82-21.21,52.56-20.94      c19.74,0.27,38.2,8.21,51.98,22.36c13.77,14.15,21.21,32.82,20.94,52.56c-0.27,19.74-8.21,38.2-22.36,51.98      C373.46,400.49,355.19,407.91,335.83,407.91z M335.79,264.06c-17.6,0-35.2,6.58-48.78,19.79c-27.64,26.9-28.24,71.28-1.34,98.92      c13.69,14.07,31.91,21.13,50.14,21.13c17.6,0,35.2-6.58,48.78-19.79c13.39-13.03,20.9-30.5,21.16-49.18      c0.25-18.68-6.78-36.35-19.82-49.74C372.24,271.13,354.02,264.06,335.79,264.06z"></path><path fill="#9bd" d="M379.1 378.6l-2.71-2.91c4.17-3.88 7.72-8.32 10.58-13.19l3.43 2.01C387.35 369.71 383.55 374.45 379.1 378.6zM395.98 350.58l-3.83-1.05c5.48-19.93-.07-41.51-14.47-56.3l2.85-2.77c7.73 7.94 13.21 17.8 15.86 28.49C398.96 329.32 398.82 340.26 395.98 350.58z"></path><polygon fill="#9bd" points="262.53 425.8 240.16 402.83 259.72 383.79 262.49 386.64 245.78 402.9 262.6 420.19 279.02 404.21 281.79 407.06"></polygon><path fill="#9bd" d="M147.57,548.04l-32.72-33.62l122.98-119.69l32.72,33.62L147.57,548.04z M120.47,514.5l27.18,27.93      l117.28-114.15l-27.18-27.93L120.47,514.5z"></path></g><g><path fill="#c4e1ea" d="M442.08,399.9c8.76-0.11,16.07,6.96,16.19,15.72c0.06,4.38-1.7,8.37-4.54,11.35     c-2.85,2.92-6.85,4.78-11.23,4.84l-21.34,0.28l-85.67,1.12l-18.3,0.24c-8.76,0.11-16.07-7.01-16.19-15.77     c-0.06-4.38,1.69-8.37,4.54-11.3c2.9-2.93,6.85-4.78,11.23-4.84l28.04-0.37l71.91-0.94L442.08,399.9z"></path><path fill="#a3c1c9" d="M530.4,736.47L530.4,736.47c-0.01-0.01-0.01-0.01-0.01-0.02c-0.05-0.42-0.11-0.84-0.17-1.27     c-0.05-0.35-0.1-0.69-0.17-1.03c-0.07-0.45-0.15-0.9-0.24-1.35c-0.05-0.25-0.1-0.49-0.16-0.74c-0.04-0.23-0.09-0.46-0.15-0.68     c-0.08-0.36-0.16-0.71-0.25-1.06c-0.02-0.09-0.04-0.2-0.07-0.29c-0.07-0.29-0.15-0.57-0.23-0.87c-0.04-0.17-0.09-0.33-0.14-0.5     c-0.07-0.27-0.15-0.55-0.24-0.82c-0.08-0.27-0.16-0.53-0.25-0.79c-0.18-0.56-0.37-1.12-0.57-1.68c-0.09-0.25-0.18-0.5-0.28-0.75     c-1.03-2.74-2.31-5.46-3.86-8.1c-11.27-19.34-24.6-38.35-37.22-57.56c-1.35-2.05-2.7-4.12-4.03-6.18     c-0.44-0.68-0.89-1.37-1.33-2.07l-0.01-0.02c-14.13-22.01-26.83-44.38-34.01-67.89l-2.55-9.81     c-8.47-32.37-28.53-107.89-23.29-140.9l-85.66,1.12c1.56,8.43,1.74,19.7,1,32.35c-0.48,8.23-1.34,17.06-2.46,26.06     c-0.44,3.54-0.92,7.11-1.43,10.67c-2.42,16.99-5.54,34.05-8.5,48.55c-1.86,9.19-3.67,17.35-5.17,23.8l-2.3,9.88     c-13.14,47.4-48.46,90.8-73.08,135.66c-17.47,31.78,1.96,71.33,37.77,77.1c34.25,5.54,68.83,8.07,103.37,7.62     c34.59-0.46,69.08-3.9,103.18-10.32c21.55-4.05,36.79-20.29,41.43-39.42C530.77,749.12,531.17,742.8,530.4,736.47z"></path><path fill="#c4e1ea" d="M520.28,747.01c-0.46,4.54-1.67,9.06-3.66,13.39c-0.05,0.12-0.1,0.23-0.17,0.34     c-5.83,12.52-16.93,21.15-30.49,23.7c-2.63,0.49-5.26,0.97-7.89,1.43c-5.03,0.88-10.07,1.69-15.12,2.44     c-3.2,0.47-6.41,0.92-9.62,1.34c-3.59,0.47-7.19,0.9-10.79,1.31c-1.64,0.18-3.28,0.36-4.92,0.53c-3.68,0.39-7.37,0.73-11.06,1.04     c-12.49,1.06-25,1.72-37.5,1.98c-1.5,0.04-2.99,0.06-4.49,0.08c-4.32,0.06-8.64,0.07-12.96,0.03     c-29.63-0.27-59.38-2.79-88.62-7.51c-13.76-2.22-25.16-10.68-31.29-23.23c-6.09-12.48-5.76-26.59,0.91-38.73     c5.66-10.31,12.03-20.76,18.48-31.06c2.26-3.62,4.53-7.21,6.79-10.77c0.08-0.14,0.17-0.27,0.25-0.41     c4.99-7.9,10.02-15.86,14.9-23.92c1.53-2.52,3.04-5.05,4.52-7.58c0.68-1.15,1.35-2.3,2.01-3.45c1.49-2.57,2.95-5.14,4.37-7.73     c1.31-2.36,2.59-4.74,3.84-7.12c2.04-3.88,3.99-7.78,5.85-11.71c5.28-11.14,9.75-22.51,12.98-34.13l2.4-10.3     c0.15-0.65,0.39-1.67,0.68-3.03c0.71-3.19,1.77-8.19,3.04-14.52c1.8-8.93,4.02-20.51,6.21-33.27c0.57-3.38,1.16-6.84,1.72-10.37     c0.25-1.56,0.5-3.13,0.75-4.71c0.55-3.46,1.08-6.98,1.59-10.5c0.46-3.2,0.91-6.42,1.33-9.63c0.69-5.27,1.32-10.53,1.87-15.69     c1.69-15.89,2.57-30.91,1.93-42.74l63.06-0.82c-0.52,32.61,10.91,92.23,19.32,127.87c1.23,5.23,2.4,9.95,3.45,13.99l2.47,9.49     l0.62,2.37c1.46,4.79,3.14,9.51,4.98,14.18c2.99,7.56,6.44,14.99,10.21,22.31c2.07,4.02,4.25,8.01,6.5,11.96     c6.18,10.85,12.93,21.46,19.82,31.92c3.18,4.83,6.39,9.62,9.57,14.39c9.11,13.62,18.52,27.69,26.61,41.56     C519.28,729.56,521.17,738.34,520.28,747.01z"></path><path fill="#fe875e" d="M505.8,726.9c5.27,9.06,5.77,19.72,1.41,29.26c-4.36,9.59-12.83,16.2-23.17,18.14     c-32.76,6.2-66.23,9.53-99.58,9.96l-0.05,0c-33.35,0.44-66.89-2.01-99.8-7.36c-10.38-1.67-19.03-8.05-23.64-17.53     c-4.61-9.43-4.39-20.1,0.65-29.29c7.55-13.76,16.14-27.33,25.18-41.62c14.04-22.25,28.39-44.97,39-68.98     c0,0,16.02-13.15,40.93-12.44c24.96,0.76,40,23.35,69.31,5.13c11.47,25.89,27.72,50.16,43.5,73.77     C488.95,700,497.89,713.34,505.8,726.9z"></path><linearGradient id="a" x1="764.783" x2="764.783" y1="1554.12" y2="1477.249" gradientTransform="rotate(-.81 -83438.191 30275.067)" gradientUnits="userSpaceOnUse"><stop offset="0"></stop><stop offset="1" stop-color="#fff"></stop></linearGradient><path fill="url(#a)" d="M442.08,399.9c8.76-0.11,16.07,6.96,16.19,15.72c0.06,4.38-1.7,8.37-4.54,11.35     c-2.85,2.92-6.85,4.78-11.23,4.84l-21.34,0.28l-85.67,1.12l-18.3,0.24c-8.76,0.11-16.07-7.01-16.19-15.77     c-0.06-4.38,1.69-8.37,4.54-11.3c2.9-2.93,6.85-4.78,11.23-4.84l28.04-0.37l71.91-0.94L442.08,399.9z"></path><linearGradient id="b" x1="763.476" x2="771.318" y1="1917.107" y2="1477.982" gradientTransform="rotate(-.81 -83438.191 30275.067)" gradientUnits="userSpaceOnUse"><stop offset="0"></stop><stop offset="1" stop-color="#fff"></stop></linearGradient><path fill="url(#b)" d="M530.39,736.47     c0-0.01,0-0.01,0-0.01c-0.84-6.77-3.05-13.54-6.79-19.94c-12.89-22.11-28.45-43.77-42.58-65.8l-0.01-0.02     c-6.32-9.85-12.35-19.76-17.73-29.82c-6.66-12.43-12.31-25.08-16.29-38.07l-2.37-9.11l-0.18-0.71     c-8.47-32.37-28.53-107.89-23.29-140.9l-85.66,1.12c6.1,32.86-8.94,108.85-16.56,141.43l-2.3,9.88     c-2.74,9.86-6.44,19.56-10.79,29.12c-2.91,6.38-6.11,12.71-9.53,18.99c-1.4,2.6-2.84,5.19-4.33,7.78     c-6.78,11.9-14.19,23.68-21.61,35.43c-9.31,14.75-18.65,29.47-26.82,44.34c-17.47,31.78,1.96,71.33,37.77,77.1     c34.25,5.54,68.83,8.07,103.37,7.62c4.79-0.07,9.59-0.19,14.38-0.36c17.62-0.65,35.22-2.09,52.74-4.3     c3.56-0.44,7.11-0.92,10.66-1.44c8.18-1.18,16.34-2.53,24.48-4.04c0.31-0.06,0.61-0.12,0.92-0.17     C516.21,789.24,533.66,762.81,530.39,736.47z" display="none"></path><path fill="#f7cc7f" d="M345.07 728.05c.08 6.41-5.04 11.67-11.45 11.75-6.41.08-11.67-5.04-11.75-11.45-.08-6.41 5.04-11.67 11.45-11.75C339.73 716.52 344.99 721.64 345.07 728.05zM377.5 684c.04 3.25-2.56 5.92-5.8 5.96-3.25.04-5.92-2.56-5.96-5.8-.04-3.25 2.56-5.92 5.8-5.96C374.79 678.16 377.45 680.75 377.5 684zM423.44 724.08c.06 4.78-3.76 8.71-8.54 8.77-4.78.06-8.71-3.76-8.77-8.54-.06-4.78 3.76-8.71 8.54-8.77C419.45 715.47 423.38 719.3 423.44 724.08zM433.1 678.6c.04 2.83-2.23 5.16-5.06 5.2-2.83.04-5.16-2.23-5.2-5.06-.04-2.83 2.23-5.16 5.06-5.2C430.74 673.5 433.07 675.77 433.1 678.6zM344.14 656.91c.04 3.2-2.52 5.83-5.72 5.87-3.2.04-5.83-2.52-5.87-5.72-.04-3.2 2.52-5.83 5.72-5.87C341.47 651.14 344.1 653.71 344.14 656.91zM289.32 737.44c.02 1.62-1.28 2.96-2.9 2.98-1.62.02-2.96-1.28-2.98-2.9-.02-1.62 1.28-2.96 2.9-2.98C287.96 734.51 289.3 735.81 289.32 737.44zM469.42 729.28c.04 3.2-2.52 5.83-5.72 5.87-3.2.04-5.83-2.52-5.87-5.72-.04-3.2 2.52-5.83 5.72-5.87C466.74 723.51 469.37 726.08 469.42 729.28zM421.25 631.47c.06 4.51-3.55 8.22-8.06 8.27-4.51.06-8.22-3.55-8.27-8.06-.06-4.51 3.55-8.22 8.06-8.27C417.48 623.36 421.19 626.96 421.25 631.47z"></path><g><path fill="#fff" d="M516.62 760.4c-.05.12-.1.23-.17.34L329.65 573.93c1.69-7.68 5.51-26 9.25-47.79l139.62 139.62c3.18 4.83 6.39 9.62 9.57 14.39 9.11 13.62 18.52 27.69 26.61 41.56C521.68 733.67 522.39 747.76 516.62 760.4zM458.7 633.85L340.62 515.77c1.31-8.09 2.57-16.48 3.67-24.85l92.1 92.1.62 2.37C442.15 602.18 449.82 618.26 458.7 633.85zM426.54 792.52c-13.98 1.19-28 1.88-41.99 2.06-4.32.06-8.64.07-12.96.03L271.06 694.08c2.35-3.75 4.71-7.48 7.04-11.18 4.99-7.9 10.02-15.86 14.9-23.92L426.54 792.52zM462.95 788.3c-8.42 1.24-16.88 2.3-25.34 3.18L297.52 651.4c3.56-6.04 6.99-12.14 10.22-18.3L462.95 788.3z"></path><path fill="#fff" d="M529.3 755.15c-1.17-.84-2.88-2.12-2.92-2.04l-6.1-6.1c.89-8.67-1-17.45-5.58-25.3-8.09-13.86-17.5-27.94-26.61-41.56-3.19-4.76-6.39-9.56-9.57-14.39-6.89-10.45-13.65-21.07-19.82-31.92-2.25-3.95-4.42-7.94-6.5-11.96l28.8 28.8.01.02c.44.69.89 1.38 1.33 2.07 1.33 2.07 2.68 4.12 4.03 6.18 12.62 19.21 25.95 38.22 37.22 57.56 1.55 2.65 2.83 5.36 3.86 8.1.09.25.19.5.28.75.2.56.39 1.12.57 1.68.09.26.17.52.25.79.09.28.17.55.24.82.05.17.09.33.14.5.09.29.16.57.23.87.03.09.05.2.07.29.09.35.17.71.25 1.06.05.23.1.45.15.68.06.25.11.49.16.74.09.44.17.89.24 1.35.07.34.12.68.17 1.03.07.42.12.84.17 1.27 0 .01 0 .01 0 .01l.01.01C531.17 742.8 530.77 749.12 529.3 755.15zM291.98 640.4l7.55 7.55c-.66 1.15-1.33 2.3-2.01 3.45-1.48 2.53-3 5.06-4.52 7.58-4.87 8.06-9.91 16.02-14.9 23.92-.09.14-.17.27-.25.41l-7.48-7.48C277.79 664.08 285.2 652.3 291.98 640.4zM313.59 621.39c-1.85 3.93-3.81 7.83-5.85 11.71-1.25 2.39-2.53 4.76-3.84 7.12l-7.59-7.59c3.42-6.28 6.62-12.61 9.53-18.99L313.59 621.39zM341.37 511.06c-.25 1.59-.49 3.16-.75 4.71-.57 3.53-1.15 6.99-1.72 10.37-2.2 12.77-4.41 24.34-6.21 33.27l-8.58-8.58c2.95-14.5 6.07-31.55 8.5-48.55L341.37 511.06zM346.17 475.23c-.55 5.16-1.18 10.42-1.87 15.69-.42 3.22-.87 6.43-1.33 9.63l-8.94-8.94c1.12-9 1.98-17.83 2.46-26.06L346.17 475.23zM463.28 620.87l-21.29-21.29c-1.84-4.67-3.51-9.4-4.98-14.18l-.62-2.37-2.47-9.49c-1.05-4.04-2.23-8.76-3.45-13.99l14.15 14.15 2.37 9.11C450.97 595.79 456.63 608.44 463.28 620.87zM486.95 794.75c-8.14 1.51-16.3 2.87-24.48 4.04l-9.15-9.15c3.22-.42 6.42-.87 9.62-1.34 5.06-.74 10.1-1.56 15.12-2.44L486.95 794.75zM442.53 790.95l9.28 9.28c-17.52 2.21-35.12 3.64-52.74 4.3l-10.03-10.03c12.5-.25 25.01-.92 37.5-1.98 3.7-.31 7.38-.65 11.06-1.04C439.25 791.31 440.88 791.13 442.53 790.95z"></path></g><g><rect width="158.43" height="12.17" x="472.52" y="792.89" fill="#fec65e"></rect><polygon fill="#fe875e" points="552.14 776.36 473.32 792.89 630.95 792.89"></polygon><rect width="32.03" height="13.85" x="536.12" y="765.01" fill="#fec65e"></rect><rect width="32.03" height="13.85" x="536.14" y="737.28" fill="#fec65e"></rect><rect width="18.83" height="13.85" x="542.72" y="751.15" fill="#fe875e"></rect><path fill="#fae0b2" d="M520.31 711.82L520.31 711.82c-2.85-1.25-6.17.04-7.42 2.89l-6.46 14.69c-1.25 2.85.04 6.17 2.89 7.42l0 0c2.85 1.25 6.17-.04 7.42-2.89l6.46-14.69C524.45 716.4 523.16 713.07 520.31 711.82zM600.29 530.09L600.29 530.09c-2.85-1.25-4.14-4.58-2.89-7.42l6.46-14.69c1.25-2.85 4.58-4.14 7.42-2.89l0 0c2.85 1.25 4.14 4.58 2.89 7.42l-6.46 14.69C606.46 530.05 603.14 531.34 600.29 530.09z"></path><path fill="#fec65e" d="M549.63,739.43c-16.85,0-33.66-3.5-49.55-10.5c-1.89-0.83-2.76-3.05-1.92-4.94      c0.83-1.89,3.05-2.76,4.94-1.92c28.26,12.44,59.67,13.13,88.45,1.94c28.78-11.19,51.48-32.91,63.91-61.18      c25.68-58.34-0.9-126.69-59.24-152.37c-1.89-0.83-2.76-3.05-1.92-4.94c0.83-1.89,3.05-2.76,4.94-1.92      c62.12,27.34,90.42,100.13,63.08,162.25c-13.24,30.09-37.42,53.23-68.06,65.14C579.8,736.63,564.7,739.43,549.63,739.43z"></path><path fill="#466eb6" d="M469.33 674.87c.32 6.19 0 17.13 0 17.13l-.02.02c-20.49-19.73-33.23-47.41-33.23-78.08 0-2.97.12-5.92.37-8.82h.02c0 .63.15 4.99 4.14 8.82 4.31 4.12 6.16 5.65 9.26 7.36 3.09 1.71 12.35 7.26 12.35 7.26s1.88.61 7.11 7.41 10.18 9.28 11.43 12.98c1.24 3.7 3.7 7.09 3.7 7.09s-9.26 12.67-11.11 13.91C471.5 671.16 469.04 668.7 469.33 674.87zM583.26 707.61c1.19 6.41 4 5.72 4.36 5.6v.02c-13.25 5.77-27.89 8.99-43.26 8.99 0 0 3.7-5.36 6.7-11.52 2.97-6.19-.51-4.34-1.75-16.69-1.24-12.35 0 0 .78-1.85.8-1.85 1.68-7.41 0-12.35-1.53-4.53-.27-3.87-.02-3.73-.71-.63-11.99-10.67-15.59-16.57-1.36-2.27-2.07-3.39-2.39-3.85.15-1.19.54-4.87.54-7.36 0-2.46-6.77-1.22-8.62-1.22-1.88 0-9.28 1.85-14.28 2.46-5.02.61-7.97 12.96-7.97 9.26 0-3.7-3.09-2.46-4.34-2.78-1.22-.29-3.07-4.02-4.31-7.09-1.24-3.09-3.09-1.85-5.55-4.95-2.48-3.09-4.34-4.34-6.8-11.13-2.48-6.77-4.34-4.31-9.26-14.2-4.95-9.87 0 0 1.22-4.73 1.24-4.73 3.09-2.68 7.48-6.38 4.36-3.7 6.11-1.24 6.11-1.24s4.31 3.09 6.8 7.62c2.46 4.53 10.5 3.51 10.5 3.51s0 0-1.85-5.55c-.44-1.29-.66-2-.78-2.34l-.1-.32c-.07-.22-.19-.54-.37-1.07-1.24-3.7-8.65-12.96-2.46-19.76 6.16-6.8 6.16-4.31 10.5-11.11 4.31-6.8 8.65-4.95 13.57-4.34 4.95.63 3.73.63 11.74 0 8.04-.61 9.26-.61 11.74-9.26 2.46-8.65 0 0-1.24-8.04-1.24-8.01 0-6.77 0-13.64s-3.09-.56-7.41 0c-4.34.54-5.55.68-8.04 2.53-2.46 1.85-6.16 6.8-11.11 8.04-4.95 1.22-3.09 0-9.89-2.51-6.8-2.51 0-6.14 1.24-11.69 1.24-5.58 5.99 0 5.99 0s2.05-2.48 5.75-4.95c3.7-2.48 6.16-1.24 12.35-5.02 6.16-3.78 2.46 1.92 11.11 0 8.65-1.92 4.95-4.04 4.95-4.04v-4.02c0 0-6.19.73-11.74.1-5.55-.61-15.44 1.24-24.07 5.29-8.65 4.04-5.58 2.75-8.04.97-2.46-1.78-16.69-.68-25.26 0 17.95-13.25 40.15-21.07 64.17-21.07 29.52 0 56.3 11.79 75.81 30.96-1.41-1.19-14.67 3.65-15.91 7.33-1.22 3.7.63 4.95-3.7 9.26-4.31 4.34-4.31 4.34-14.2 8.04-9.89 3.7-8.65-1.85-14.2 6.8-5.55 8.62-6.8 10.47-5.55 14.81 1.24 4.31-.63 11.74 8.01 9.26 8.65-2.46 5.58-10.5 14.84-7.41 9.26 3.09 17.76 3.7 17.76 3.7s-3.22-9.26 0-11.11c3.24-1.85 9.14 1.22 12.98 4.31 3.85 3.09 3.85 2.48 6.31 6.19 2.46 3.7 4.95 5.31 6.8 4.8 1.85-.49 8.65-10.35 8.65-10.35l4-5.9c3.48 9.43 5.7 19.49 6.43 29.94h-.02c-6.7-4.29-7.94-3.68-18.44-3.68-10.5 0-11.74 2.41-21-.02-9.26-2.44-8.65-4.29-19.76-3.68-11.11.61-9.26-1.39-16.05 3.63-6.8 5.02-10.5-.12-12.35 11.4-1.85 11.52-4.95 9.67 0 19.56 4.95 9.87 4.95 8.01 9.87 17.91 4.95 9.89 8.65 1.85 6.8 16.05-1.85 14.2-1.85 16.69-1.85 19.15 0 2.48-1.24 9.89-1.24 12.98C578.32 702.66 582 700.71 583.26 707.61zM582.65 553.82v-9.87c-3.7 0 1.85-4.34-3.7 0-5.55 4.31-7.41 9.26-8.65 11.11-1.24 1.85-4.14 3.09-4.14 3.09L582.65 553.82z"></path><path fill="#50bfa5" d="M550.08 692.16c-.78 1.85-2.02-10.5-.78 1.85 1.24 12.35 4.73 10.5 1.75 16.69-3 6.16-6.7 11.52-6.7 11.52-29.16 0-55.59-11.5-75.05-30.21l.02-.02c0 0 .32-10.94 0-17.13-.29-6.16 2.17-3.7 4.02-4.92 1.85-1.24 11.11-13.91 11.11-13.91s-2.46-3.39-3.7-7.09c-1.24-3.7-6.19-6.19-11.43-12.98s-7.11-7.41-7.11-7.41-9.26-5.55-12.35-7.26c-3.09-1.71-4.95-3.24-9.26-7.36-4-3.82-4.14-8.19-4.14-8.82h-.02c2.58-32.16 19.22-60.34 43.75-78.39 8.57-.68 22.8-1.78 25.26 0 2.46 1.78-.61 3.07 8.04-.97 8.62-4.04 18.51-5.9 24.07-5.29 5.55.63 11.74-.1 11.74-.1v4.02c0 0 3.7 2.12-4.95 4.04-8.65 1.92-4.95-3.78-11.11 0-6.19 3.78-8.65 2.53-12.35 5.02-3.7 2.46-5.75 4.95-5.75 4.95s-4.75-5.58-5.99 0c-1.24 5.55-8.04 9.18-1.24 11.69 6.8 2.51 4.95 3.73 9.89 2.51 4.95-1.24 8.65-6.19 11.11-8.04 2.48-1.85 3.7-2 8.04-2.53 4.31-.56 7.41-6.87 7.41 0s-1.24 5.63 0 13.64c1.24 8.04 3.7-.61 1.24 8.04-2.48 8.65-3.7 8.65-11.74 9.26-8.01.63-6.8.63-11.74 0-4.92-.61-9.26-2.46-13.57 4.34-4.34 6.8-4.34 4.31-10.5 11.11-6.19 6.8 1.22 16.05 2.46 19.76.17.54.29.85.37 1.07l.1.32c.12.34.34 1.05.78 2.34 1.85 5.55 1.85 5.55 1.85 5.55s-8.04 1.02-10.5-3.51c-2.48-4.53-6.8-7.62-6.8-7.62s-1.75-2.46-6.11 1.24c-4.38 3.7-6.24 1.66-7.48 6.38-1.22 4.73-6.16-5.14-1.22 4.73 4.92 9.89 6.77 7.43 9.26 14.2 2.46 6.8 4.31 8.04 6.8 11.13 2.46 3.09 4.31 1.85 5.55 4.95 1.24 3.07 3.09 6.8 4.31 7.09 1.24.32 4.34-.93 4.34 2.78 0 3.7 2.95-8.65 7.97-9.26 4.99-.61 12.4-2.46 14.28-2.46 1.85 0 8.62-1.24 8.62 1.22 0 2.48-.39 6.16-.54 7.36-.17-.24-.24-.32-.27-.29 0 .1.19.54.19.66.02-.02.05-.17.07-.37.32.46 1.02 1.58 2.39 3.85 3.61 5.9 14.88 15.93 15.59 16.57-.24-.15-1.51-.8.02 3.73C551.77 684.76 550.89 690.31 550.08 692.16zM587.62 713.21c-.37.12-3.17.8-4.36-5.6-1.27-6.89-4.95-4.95-4.95-8.01 0-3.09 1.24-10.5 1.24-12.98 0-2.46 0-4.95 1.85-19.15 1.85-14.2-1.85-6.16-6.8-16.05-4.92-9.89-4.92-8.04-9.87-17.91-4.95-9.89-1.85-8.04 0-19.56 1.85-11.52 5.55-6.38 12.35-11.4 6.8-5.02 4.95-3.02 16.05-3.63 11.11-.61 10.5 1.24 19.76 3.68 9.26 2.44 10.5.02 21 .02 10.5 0 11.74-.61 18.44 3.68h.02c.17 2.53.27 5.07.27 7.65 0 44.43-26.75 82.61-65.02 99.29V713.21zM578.95 543.95c5.55-4.34 0 0 3.7 0v9.87l-16.49 4.34c0 0 2.9-1.24 4.14-3.09C571.55 553.21 573.4 548.26 578.95 543.95zM645.94 576.33v.02l-4 5.9c0 0-6.8 9.87-8.65 10.35-1.85.51-4.34-1.1-6.8-4.8-2.46-3.7-2.46-3.09-6.31-6.19-3.85-3.09-9.74-6.16-12.98-4.31-3.22 1.85 0 11.11 0 11.11s-8.5-.61-17.76-3.7c-9.26-3.09-6.19 4.95-14.84 7.41-8.65 2.48-6.77-4.95-8.01-9.26-1.24-4.34 0-6.19 5.55-14.81 5.55-8.65 4.31-3.09 14.2-6.8 9.89-3.7 9.89-3.7 14.2-8.04 4.34-4.31 2.48-5.55 3.7-9.26 1.24-3.68 14.49-8.53 15.91-7.33 0 .02.02.02.02.02C631.47 547.73 640.34 561.22 645.94 576.33z"></path></g><g><path fill="#13375b" d="M730.83,516.52c-56.23,7.71-103.06-10.73-103.06-10.73s29.88-3.66,52.23-1.34      C699.8,506.51,730.83,516.52,730.83,516.52z"></path><path fill="#355389" d="M734.17,484.36l-3.35,32.15c0,0-31.03-10.01-50.83-12.07c-22.35-2.33-52.23,1.34-52.23,1.34l3.35-32.15      l3.35-32.15c0,0,26.68-12.29,53.08-9.54c24.49,2.55,49.98,20.27,49.98,20.27L734.17,484.36z"></path><path fill="#13375b" d="M789.89,466.16l-54.86,18.29l-0.86-0.09l3.35-32.15c0,0-25.49-17.72-49.98-20.27      c-26.41-2.75-53.08,9.54-53.08,9.54l-3.35,32.15l-0.84-0.09l-49.92-29.21l109.49-34.45L789.89,466.16z"></path><path fill="#355389" d="M686.55,402.2l-105.32,33.74l-0.88,8.4l105.31-33.13c2.67-0.84,5.56-0.54,8,0.83l96.23,54.12l0.87-8.4      l-96.12-54.71C692.18,401.64,689.24,401.33,686.55,402.2z"></path><path fill="#fec65e" d="M601.01,493.96c0,0-3.99,7.33-3.34,13.43c0.66,6.1,3.13,11.73,3.13,11.73l1.45,0.15l-0.76-6.75l2.03,9.04     l2.4-0.61l-1.42-12.96l2.52,10.92c0,0,2.48-1.03,2.56-1.89c0.09-0.85-2.14-10.77-2.14-10.77l3.14,11.74c0,0,1.59,1.03,2.81-10.69     c1.22-11.71-8.71-15.54-8.71-15.54L601.01,493.96z"></path><g><path fill="#fec65e" d="M645.7,415.28l-7.57,2.43c-1.28-0.29-2.86-0.55-4.62-0.74c-7.99-0.83-19.95,0.15-27.64,11.07      c-0.54,0.77-1.06,1.58-1.55,2.45c-1.42,2.46-2.5,4.91-3.31,7.35c-4.01,12-1.4,23.61,1.34,35.78c1.49,6.62,3.03,13.47,3.44,20.43      c0.08,1.4-0.98,2.6-2.38,2.67c-0.14,0.01-0.28,0.01-0.42-0.01c-1.21-0.13-2.19-1.11-2.26-2.36c-0.39-6.55-1.87-13.19-3.32-19.62      c-2.55-11.33-5.17-22.97-2.19-35.07c0.75-3.07,1.87-6.17,3.44-9.3c0.39-0.8,0.81-1.58,1.27-2.38      c13.74-24.03,43.22-14.21,43.52-14.1C644.22,414.15,644.97,414.69,645.7,415.28z"></path></g><circle cx="603.54" cy="492.86" r="5.28" fill="#f7f07f"></circle></g><g><path fill="#fae0b2" d="M593.31,744.42h175.43c0,0-3.06,12.7-3.06,26.5c0,13.41,3.06,26.5,3.06,26.5H593.31      c-6.22,0-11.27-5.05-11.27-11.27V755.7C582.04,749.47,587.08,744.42,593.31,744.42z"></path><path fill="#184655" d="M771.1,737.22c1.99,0,3.6,1.62,3.6,3.6c0,1-0.4,1.9-1.06,2.55c-0.65,0.66-1.55,1.06-2.55,1.06h-2.37      H593.31c-6.22,0-11.27,5.05-11.27,11.28v30.45c0,6.22,5.05,11.27,11.27,11.27h175.43h2.37c1.99,0,3.6,1.61,3.6,3.6      c0,1-0.4,1.89-1.06,2.55c-0.65,0.65-1.55,1.06-2.55,1.06h-177.8c-10.21,0-18.48-8.28-18.48-18.48v-30.46      c0-10.2,8.26-18.48,18.48-18.48H771.1z"></path><path fill="#e5bd83" d="M604.88 754.68c10.39-.46 20.78-.78 31.17-.93 10.39-.19 20.78-.24 31.17-.27 10.39.02 20.78.07 31.17.26 10.39.16 20.78.47 31.16.94-10.39.47-20.78.78-31.16.94-10.39.19-20.78.24-31.17.26-10.39-.02-20.78-.08-31.17-.27C625.65 755.46 615.26 755.15 604.88 754.68zM598.38 770.92c3.93-.5 7.85-.76 11.78-.93 3.93-.19 7.85-.24 11.78-.27 3.93.02 7.85.07 11.78.26 3.93.18 7.85.44 11.78.94-3.93.5-7.85.76-11.78.94-3.93.19-7.85.24-11.78.26-3.93-.02-7.85-.08-11.78-.27C606.23 771.68 602.3 771.42 598.38 770.92zM628.43 787.57c3.93-.5 7.85-.76 11.78-.93 3.93-.19 7.85-.24 11.78-.27 3.93.02 7.85.07 11.78.26 3.93.18 7.85.44 11.78.94-3.93.5-7.85.76-11.78.94-3.93.19-7.85.24-11.78.26-3.93-.02-7.85-.08-11.78-.27C636.28 788.33 632.35 788.07 628.43 787.57zM653.21 777.83c9.07-.46 18.14-.78 27.21-.93 9.07-.19 18.14-.24 27.21-.27 9.07.02 18.14.07 27.21.26 9.07.16 18.14.47 27.21.94-9.07.47-18.14.78-27.21.94-9.07.19-18.14.24-27.21.26-9.07-.02-18.14-.08-27.21-.27C671.35 778.6 662.28 778.29 653.21 777.83z"></path><path fill="#50bfa5" d="M634.92,803c-5.31-10.03-5.31-22.05,0-32.08c-10.02,0-20.03,0-30.05,0c-5.31,10.03-5.31,22.05,0,32.08     c3.56-2.73,7.52-5.61,11.87-8.55C622.41,797.39,628.47,800.27,634.92,803z"></path></g><g><path fill="#fae0b2" d="M641.97,672.34c0,0,5.18,12.02-0.19,26.79l-20.39-1.12l-51.13-2.79v-0.01c0,0,1.55-5.83,1.55-12.65      c0-6.27-1.55-12.66-1.55-12.66v-0.01l50.39,1.72L641.97,672.34z"></path><path fill="#3c8f7c" d="M569.2,695.17l1.07,0.06l51.13,2.79l20.39,1.12c5.37-14.76,0.19-26.79,0.19-26.79l-21.31-0.73l-50.39-1.72      l-1.21-0.04c-1.62-0.06-2.89-1.38-2.89-3c0-1.65,1.35-2.99,2.98-2.99c0.05,0,0.08,0,0.13,0l75.69,2.8c0,0,9.99,16.6,0,38.09      l-76.05-3.58c-1.63-0.08-2.91-1.47-2.86-3.11c0.06-1.62,1.41-2.89,3.02-2.89C569.12,695.17,569.15,695.17,569.2,695.17z"></path><polygon fill="#3c8f7c" points="569.27 663.86 776.69 661.25 775.55 661.29 644.96 666.66"></polygon><path fill="#184655" d="M647.49,666.56l128.06-5.27c6.38-0.25,11.7,4.84,11.74,11.23l0.08,15.95c0.04,6.1-4.77,11.12-10.86,11.35      l-131.55,4.93c9.99-21.49,0-38.09,0-38.09L647.49,666.56z"></path><path fill="#e5bd83" d="M641.59 682.65c-3.95.28-7.89.32-11.83.28-3.94-.03-7.86-.19-11.79-.39-3.92-.24-7.85-.51-11.76-.92-3.92-.39-7.83-.87-11.72-1.59 3.95-.28 7.89-.32 11.83-.28 3.94.03 7.86.19 11.79.39 3.92.24 7.85.51 11.76.92C633.78 681.45 637.7 681.93 641.59 682.65zM599.82 688.94c-4.38.28-8.72.12-13.06-.15-4.33-.31-8.66-.74-12.96-1.61 4.38-.29 8.72-.12 13.06.15C591.2 687.65 595.52 688.07 599.82 688.94z"></path><path fill="#f47458" d="M606.83,706.18c-3.99-5.88-3.59-19.84,0.74-25.48c7.85,0.23,15.4,1.2,23.25,1.42     c-4.33,5.64-4.44,18.86-0.45,24.74c-4.88-1.75-9.62-4-14.03-6.54C612.91,702.63,609.8,704.66,606.83,706.18z"></path></g><g><path fill="#355389" d="M656.01,703.22l3.71,0.33c-9.22,0.67-16.15,8.68-15.48,17.91l0.37,5.11c0.56,7.7,6.25,13.8,13.49,15.2      l-59.59-4.69c-9.93-0.95-17.18-9.81-16.17-19.73l0.28-2.75c0.99-9.79,9.65-16.96,19.45-16.09h0.01L656.01,703.22z"></path><polygon fill="#355389" points="799.48 700.16 659.72 703.55 656.01 703.22 602.08 698.5 602.07 698.5 601.42 698.44"></polygon><path fill="#86b1f2" d="M795.47,705.8l-135.44,3.75c-3.06,0.26-5.82,1.78-7.69,4.26c-1.62,2.16-2.28,4.89-2.08,7.6l0.35,4.71      c0.4,5.5,5.02,9.88,10.52,9.96c0.31,0,0.64-0.01,0.95-0.03l0.14-0.01l133.46-3.23l3.32-0.08c1.56-0.04,2.84,1.24,2.82,2.8      l-0.01,0.49c-0.02,1.48-1.2,2.67-2.68,2.71l-136.61,3.3c-1.52,0.11-3,0.02-4.43-0.27c-7.24-1.4-12.93-7.5-13.49-15.2l-0.37-5.11      c-0.67-9.22,6.26-17.23,15.48-17.91l139.76-3.39c1.56-0.04,2.84,1.23,2.82,2.8c-0.02,1.48-1.19,2.67-2.67,2.71L795.47,705.8z"></path><path fill="#fae0b2" d="M795.69,732.81l-133.46,3.23l-0.14,0.01c-0.31,0.02-0.64,0.04-0.95,0.03c-5.5-0.08-10.12-4.46-10.52-9.96      l-0.35-4.71c-0.2-2.71,0.46-5.44,2.08-7.6c1.87-2.48,4.64-4.01,7.69-4.26l135.44-3.75c-0.05,0.24-1.75,8.3-1.83,13.48      C793.57,724.43,795.69,732.81,795.69,732.81z"></path><path fill="#e5bd83" d="M661.99 717.37c3.91-.66 7.83-1.08 11.75-1.42 3.92-.35 7.85-.56 11.77-.75 3.93-.14 7.86-.25 11.79-.22 3.94.01 7.87.11 11.82.45-3.91.66-7.82 1.08-11.75 1.42-3.92.35-7.85.56-11.77.75-3.93.14-7.86.25-11.79.22C669.88 717.8 665.94 717.7 661.99 717.37zM694.32 728.3c3.91-.66 7.82-1.08 11.75-1.42 3.92-.35 7.85-.56 11.77-.75 3.93-.14 7.86-.25 11.79-.22 3.94.01 7.87.11 11.82.45-3.91.66-7.82 1.08-11.75 1.42-3.92.35-7.85.56-11.77.75-3.93.14-7.86.25-11.8.22C702.2 728.74 698.26 728.64 694.32 728.3z"></path><path fill="#50bfa5" d="M699.67,748.69c5.42-7.27,5.74-25.26,0.53-32.69c-10.01-0.14-18.91,0.93-28.93,0.78     c5.2,7.43,3.76,24.19-1.65,31.47c6.32-1.95,12.48-4.57,18.25-7.56C692.13,743.83,695.98,746.59,699.67,748.69z"></path><path fill="#e5bd83" d="M728.92,721.23c5.38-0.66,10.76-1.08,16.15-1.42c5.39-0.35,10.78-0.57,16.17-0.76     c5.39-0.14,10.79-0.25,16.19-0.23c5.4,0.01,10.8,0.11,16.21,0.45c-5.38,0.66-10.76,1.09-16.15,1.43     c-5.39,0.35-10.78,0.57-16.17,0.75c-5.39,0.14-10.79,0.25-16.19,0.22C739.73,721.66,734.32,721.56,728.92,721.23z"></path></g><g><path fill="#13375b" d="M592.95,456.49c-7.05,2.82-10.82,14.61-11.33,29.71c-0.51,15.11-9.1,34.95,0.33,40.07      c9.43,5.12,25.24-7.12,37.45,3.62c12.21,10.74,29.99,11.73,29.99,11.73s11.09-8.79,6.73-33.93      c-4.36-25.14-20.98-16.37-28.41-26.78S616.76,446.96,592.95,456.49z"></path><path fill="#f47458" d="M596.97,504.92c0,0,24.64-5.17,23.85,2.89c-0.33,3.44-10.99,18.85-11.24,20.13       c-0.16,0.94-0.38,1.89-0.57,2.83c-0.2,0.94-0.41,1.89-0.65,2.85c-0.24,0.96-0.46,1.9-0.72,2.86l-0.84,2.89       c-0.13,0.48-0.29,0.97-0.46,1.46l-0.5,1.47l-0.5,1.46l-0.59,1.5l-0.61,1.49c-0.1,0.25-0.2,0.49-0.31,0.75l-0.36,0.77       l-0.73,1.54l-0.37,0.77l-0.19,0.38l-0.31,0.58c-0.45,0.79-0.89,1.59-1.41,2.33c-0.53,0.73-1.08,1.45-1.65,2.13       c-0.59,0.64-1.2,1.27-1.82,1.87c-0.62,0.57-1.27,1.08-1.92,1.59c-2.62,1.93-5.26,3.16-7.75,4.01       c-0.62,0.19-1.26,0.43-1.85,0.57l-1.81,0.45c-1.17,0.24-2.35,0.45-3.47,0.57c-2.26,0.28-4.44,0.38-6.53,0.35       c-4.19-0.05-4.72-19.61-1.93-20.32c1.4-0.34,2.7-0.77,3.87-1.22c0.28-0.12,0.59-0.22,0.85-0.35c0.26-0.13,0.52-0.25,0.78-0.36       l0.69-0.38c0.24-0.12,0.4-0.26,0.6-0.38c0.73-0.51,1.12-2.26,1.12-2.26l0.25-0.9l0.13-0.45c0.04-0.16,0.07-0.33,0.11-0.5       l0.22-1l0.24-0.99l0.2-1.07c0.13-0.73,0.28-1.4,0.39-2.16c0.26-1.48,0.77-6.62,1.41-13.42       C583.26,512.36,588.56,506.75,596.97,504.92L596.97,504.92z"></path><g><path fill="#f8c558" d="M643.62,563.48c0.42-5.5,3.82-16.18,4.1-24.68c0.59-17.68,0.15-34.74-28.23-34.89         c-0.03-0.01-0.07-0.02-0.11-0.02c-1.88-0.32-3.27-0.46-3.92-0.52c-0.28-0.02-0.42-0.03-0.42-0.03         c-13.26-0.38-22.77,1.01-23.92,10.64c-0.7,5.88-5.54,8.45-6.43,14.77c-1.15,8.23,1.17,9.6,3.28,16.45         c1.67,5.42-13.01,42.09-13.01,42.09l70.5,1.36C645.48,588.65,642.62,576.56,643.62,563.48z"></path><path fill="#587cf8" d="M615.47,503.37c0.66,0.06,2.04,0.2,3.92,0.52C618.11,503.64,616.8,503.47,615.47,503.37z"></path></g><path fill="#fae0b2" d="M618.78,487.95l-18.29,3.14l2.43,6.93l0.01,0.02l0.67,1.91l0.64,1.83l0.13,0.38l2.2,0.25l-1.45,1.41        c0,0,0.71,2.87,6.47,2.87s7.81-2.82,7.81-2.82L618.78,487.95z"></path><path fill="#fae0b2" d="M619.37,482.36c0.4,8.59-4.32,15.69-12.57,18.15c-6.31,1.88-11.18-0.76-18.55-16.69        c-3.61-7.81,6.24-15.89,14.83-16.29C611.67,467.12,618.96,473.76,619.37,482.36z"></path><path fill="#fe875e" d="M605.74,504.85c0,0-0.41-0.34-0.63-1.02c-0.24-0.74-1.29-2.83-1.29-2.83s9.88-1.16,12.18-7.76        C615.99,493.25,617.75,501.37,605.74,504.85z"></path><path fill="#f47458" d="M632.84,506.95c20.83-0.25,14.3,49.45-1.04,56.05c-18.89,8.14-30.29,5.37-30.29,5.37L601.37,557      c0.11-0.05,22.39-3.57,22.93-10.62C625.48,530.94,614.03,508.28,632.84,506.95L632.84,506.95z"></path><path fill="#d1d1d1" d="M578.65,573.03l27.64-0.02c-0.58,0-1.11,0.2-1.49,0.52c-0.39,0.32-0.62,0.76-0.62,1.25       c0,0.98,0.95,1.78,2.11,1.78l-56.83,0.04c-1.16,0-2.11-0.8-2.11-1.78c0-0.49,0.24-0.93,0.62-1.25       c0.39-0.32,0.91-0.52,1.49-0.52L578.65,573.03z"></path><path fill="#9e9e9e" d="M637.26,572.99c0.98,0,1.78,0.79,1.78,1.77c0,0.49-0.2,0.93-0.52,1.26c-0.32,0.32-0.77,0.52-1.26,0.52       l-31.34,0.02c-0.98,0-1.78-0.8-1.78-1.78c0-0.49,0.2-0.93,0.52-1.25c0.32-0.32,0.77-0.52,1.26-0.52l30.68-0.02L637.26,572.99z"></path><path fill="#d1d1d1" d="M607.8,572.08c-0.48,0.59-1.19,0.93-1.94,0.93l-2.24,0c0.76,0,1.46-0.34,1.94-0.93       c0.48-0.59,0.66-1.35,0.5-2.1l-7.45-35.48c-0.25-1.15-1.28-1.99-2.46-1.99l2.24,0c1.18,0,2.22,0.84,2.46,1.99l7.45,35.48       C608.46,570.73,608.28,571.49,607.8,572.08z"></path><path fill="#f4f4f4" d="M605.56,572.08c-0.48,0.59-1.19,0.93-1.94,0.93l-53.93,0.04c-1.18,0-2.22-0.84-2.46-1.99l-7.45-35.48       c-0.15-0.74,0.03-1.5,0.51-2.1c0.47-0.59,1.19-0.93,1.94-0.93l53.93-0.04c1.18,0,2.22,0.84,2.46,1.99l7.45,35.48       C606.22,570.73,606.04,571.49,605.56,572.08z"></path><path fill="#fff" d="M575.84,552.78c0,1.62-1.31,2.93-2.92,2.93c-1.62,0-2.93-1.31-2.93-2.92c0-1.62,1.31-2.93,2.92-2.93       C574.53,549.86,575.84,551.16,575.84,552.78z"></path><path fill="#13375b" d="M619.62,478.7c0,0-19.4,6.46-29.82-3.95c0,0,6.62,7.52,11.2,6.72c0,0-6.49,2.01-11.2-5.37      c0,0-1.3,6.8-4.68,8.18c0,0-3.09-18.93,13.22-21.28C614.65,460.64,618.83,471.23,619.62,478.7z"></path><g><path fill="#fae0b2" d="M506.33,637.13c0,0-4.79,5.17-6.68,4.13l19.59,12.89l4.18-5.77L506.33,637.13z"></path><path fill="#11442f" d="M492.71,638.85l5.5,1.91c1.15,0.4,2.42,0.34,3.53-0.16l2.63-1.58l5.46,8.82l11.77,3.05l-1.16,1.6       l-6.2-1.74l5.11,3.36c0.85,0.56,1.09,1.71,0.53,2.57l-1.55,2.35c-0.6,0.91-1.82,1.16-2.73,0.56l-5.86-3.85l0-3.12l-4.2,0.35       l-18.41-12.11c-0.36-0.24-0.39-0.76-0.05-1.03l0,0C488.66,638.55,490.79,638.18,492.71,638.85z"></path></g><g><path fill="#fae0b2" d="M545.46,669.15c0,0-1.16,6.95-3.31,7.12h23.45l0.32-7.12H545.46z"></path><path fill="#11442f" d="M535.03,678.07l5.65-1.43c1.18-0.3,2.21-1.04,2.86-2.07l1.33-2.76l9.41,4.37l11.51-3.92l-0.09,1.98       l-6.13,1.95h6.12c1.02,0,1.85,0.83,1.85,1.85v2.82c0,1.09-0.88,1.97-1.97,1.97h-7.01l-1.72-2.6l-3.32,2.6h-22.04       c-0.43,0-0.74-0.42-0.61-0.84l0,0C531.49,680.05,533.06,678.57,535.03,678.07z"></path></g><path fill="#11442f" d="M555.26,615.39l-11.42,53.76h23.17l18.77-56.81c0,0-6.73-3.07-16.22-7.1      C560.06,601.21,557.67,609.42,555.26,615.39z"></path><path fill="#184655" d="M645.01,600.98L645.01,600.98c-2.77,15.99-10.75,19.9-31.85,17.46c-26.46-3.06-41.15-12.26-41.15-12.26      l-45.94,42.4l-19.65-13.92c0,0,11.87-15.1,27.4-33.76c16.42-19.74,19.93-30.76,50.91-23.34c19.11,4.58,33.82,4.84,47.66,8h0      c7.99,1.82,13.1,3.09,13.1,3.09C645.86,592.74,645.71,596.93,645.01,600.98z"></path><path fill="#11442f" d="M645.01 600.98L645.01 600.98c-16.39 1.04-12.63-15.42-12.63-15.42h0c7.99 1.82 13.1 3.09 13.1 3.09C645.86 592.74 645.71 596.93 645.01 600.98zM507.95 632.5l20.35 14.64c.96.69 1.18 2.04.49 3l0 0c-.69.96-2.04 1.18-3 .49l-20.35-14.64c-.96-.69-1.18-2.04-.49-3l0 0C505.65 632.03 507 631.81 507.95 632.5zM543.28 664.85h25.07c1.18 0 2.15.97 2.15 2.15l0 0c0 1.18-.97 2.15-2.15 2.15h-25.07c-1.18 0-2.15-.97-2.15-2.15l0 0C541.13 665.82 542.1 664.85 543.28 664.85z"></path></g><g><rect width="225.36" height="52.38" x="571.99" y="613.89" fill="#fe875e"></rect><rect width="13.34" height="52.38" x="594.22" y="613.89" fill="#f7a491"></rect><rect width="13.34" height="52.38" x="761.78" y="613.89" fill="#f7a491" transform="rotate(-180 768.449 640.085)"></rect><path fill="#efefef" d="M571.99,635.82c0,0-17.05,8.22-19.8,30.45l7.31-6.09l2.59,6.09c0,0,1.68-18.88,9.9-26.19V635.82z"></path></g><g><path fill="#a3bf50" d="M213.6,638.74h-11.35c0,7.61-5.42,13.96-12.62,15.38c-0.99,0.2-2.01,0.3-3.06,0.3l-0.48-0.02l-3.86,127.44      l-0.08,2.62h1.7h2.07h25.14h2.04l0.31-2.62l11.06-92.92l5.98-50.2H213.6z"></path><path fill="#7a8f3c" d="M230.44,638.74h11.35c0,7.27,4.59,13.39,12.72,15.17c1.55,0.34,3.23,0.52,5.03,0.52l16.8,127.43l0.35,2.62      h-2.04h-1.25h-25.96h-2.29l-0.57-2.62l-20.12-92.92L230.44,638.74z"></path><path fill="#f8a492" d="M223.29 796.88c0 0-4.18 2.03-2.78 6.37h9.21c-.2-1.71-1.19-3.24-2.69-4.13C225.56 798.25 224.36 797.53 223.29 796.88zM182.15 790.91v6.49c8.44-.11 7.51-7.59 7.51-7.59-3.38-.22-5.39-.5-5.75-.56-.04 0-.06-.01-.06-.01h-.04C182.89 789.24 182.15 789.99 182.15 790.91z"></path><path fill="#f47458" d="M213.38,790.65c-0.68-0.43-1.42-0.9-2.23-1.41c0,0-0.8,0.11-2.24,0.26c-2.38,0.24-6.49,0.55-11.45,0.55       c-0.42,0-0.83,0-1.23-0.01c-2.55-0.02-4.75-0.11-6.57-0.23c0,0,0.93,7.49-7.51,7.59v5.85h38.36c-1.4-4.34,2.78-6.37,2.78-6.37       c-2.24-1.36-3.9-2.41-6.16-3.84C216.06,792.35,214.85,791.58,213.38,790.65z"></path><path fill="#b75742" d="M182.15,803.25v0.21c0,1.16,0.94,2.11,2.1,2.11h43.85c0.46,0,0.87-0.19,1.17-0.49       c0.3-0.3,0.48-0.71,0.48-1.17c0-0.22-0.02-0.44-0.04-0.66h-9.21H182.15z"></path><path fill="#fae0b2" d="M183.85,784.48v4.76c0,0,0.02,0,0.06,0.01c0.65,0.07,6.51,0.7,12.32,0.78c0.4,0.01,0.81,0.01,1.23,0.01       c4.97,0,9.08-0.31,11.45-0.55c1.38-0.15,2.15-0.26,2.15-0.26v-4.76h-25.14H183.85z"></path><path fill="#f8a492" d="M209.61 794.77c-.06 0-.13-.02-.18-.07-.1-.1-.1-.26 0-.36l3.77-3.86c.1-.1.26-.1.36 0 .1.1.1.26 0 .36l-3.77 3.86C209.74 794.74 209.67 794.77 209.61 794.77zM211.49 796.05c-.06 0-.13-.02-.18-.07-.1-.1-.1-.26 0-.36l3.77-3.86c.1-.1.26-.1.36 0 .1.1.1.26 0 .36l-3.77 3.86C211.62 796.02 211.56 796.05 211.49 796.05zM213.38 797.13c-.06 0-.13-.02-.18-.07-.1-.1-.1-.26 0-.36l3.75-3.84c.08-.11.24-.13.35-.05.11.08.13.24.05.35l-.02.02-3.77 3.87C213.51 797.11 213.44 797.13 213.38 797.13z"></path><g><path fill="#f8a492" d="M286.95 796.88c0 0-4.18 2.03-2.78 6.37h9.21c-.2-1.71-1.19-3.24-2.69-4.13C289.22 798.25 288.01 797.53 286.95 796.88zM245.81 790.91v6.49c8.44-.11 7.51-7.59 7.51-7.59-3.38-.22-5.39-.5-5.75-.56-.04 0-.06-.01-.06-.01h-.04C246.55 789.24 245.81 789.99 245.81 790.91z"></path><path fill="#f47458" d="M277.04,790.65c-0.68-0.43-1.42-0.9-2.23-1.41c0,0-0.81,0.11-2.24,0.26c-2.38,0.24-6.49,0.55-11.45,0.55       c-0.42,0-0.83,0-1.23-0.01c-2.55-0.02-4.75-0.11-6.57-0.23c0,0,0.93,7.49-7.51,7.59v5.85h38.36c-1.4-4.34,2.78-6.37,2.78-6.37       c-2.24-1.36-3.9-2.41-6.16-3.84C279.72,792.35,278.51,791.58,277.04,790.65z"></path><path fill="#b75742" d="M245.81,803.25v0.21c0,1.16,0.94,2.11,2.1,2.11h43.85c0.46,0,0.87-0.19,1.17-0.49       c0.3-0.3,0.48-0.71,0.48-1.17c0-0.22-0.02-0.44-0.04-0.66h-9.21H245.81z"></path><path fill="#fae0b2" d="M247.51,784.48v4.76c0,0,0.02,0,0.06,0.01c0.65,0.07,6.51,0.7,12.32,0.78c0.4,0.01,0.81,0.01,1.23,0.01       c4.97,0,9.08-0.31,11.45-0.55c1.38-0.15,2.15-0.26,2.15-0.26v-4.76h-25.14H247.51z"></path><path fill="#f8a492" d="M273.27 794.77c-.06 0-.13-.02-.18-.07-.1-.1-.1-.26 0-.36l3.77-3.86c.1-.1.26-.1.36 0 .1.1.1.26 0 .36l-3.77 3.86C273.4 794.74 273.34 794.77 273.27 794.77zM275.15 796.05c-.06 0-.13-.02-.18-.07-.1-.1-.1-.26 0-.36l3.77-3.86c.1-.1.26-.1.36 0 .1.1.1.26 0 .36l-3.77 3.86C275.28 796.02 275.22 796.05 275.15 796.05zM277.04 797.13c-.06 0-.13-.02-.18-.07-.1-.1-.1-.26 0-.36l3.75-3.84c.08-.11.24-.13.35-.05.11.08.13.24.05.35l-.02.02-3.77 3.87C277.17 797.11 277.1 797.13 277.04 797.13z"></path></g><g><polygon fill="#3f4411" points="230.44 638.74 228.51 707.63 224.47 688.94"></polygon><path fill="#3f4411" d="M186.57 638.74l-.48 15.67.48.02c1.05 0 2.07-.1 3.06-.3 7.2-1.42 12.62-7.77 12.62-15.38H186.57zM257.48 638.74h-15.69c0 7.27 4.59 13.39 12.72 15.17 1.55.34 3.23.52 5.03.52L257.48 638.74z"></path><path fill="#171c51" d="M186.09 654.67c.99 0 2.53-.08 3.59-.29 7.43-1.47 12.82-8.04 12.82-15.63 0-.14-.11-.25-.25-.25-.14 0-.25.11-.25.25 0 7.35-5.22 13.71-12.42 15.14-.96.2-2.45.28-3.49.28-.14 0-.25.11-.25.25C185.84 654.55 185.95 654.67 186.09 654.67zM254.62 654.91c.01 0 .02 0 .04 0 .14-.02.23-.15.21-.29l-.11-.75c-.02-.14-.15-.23-.29-.21-.14.02-.23.15-.21.29l.11.75C254.39 654.82 254.5 654.91 254.62 654.91zM272.83 782.28l-.21-1.48c-.02-.14.08-.26.21-.28.14-.02.27.08.28.21l.21 1.48c.02.14-.08.26-.21.29-.01 0-.02 0-.04 0C272.96 782.5 272.85 782.41 272.83 782.28zM272.41 779.32l-.21-1.48c-.02-.14.08-.26.21-.28.14-.01.27.08.29.21l.21 1.48c.02.14-.08.26-.21.28-.01 0-.02 0-.04 0C272.53 779.53 272.42 779.44 272.41 779.32zM271.98 776.35l-.21-1.48c-.02-.14.08-.26.21-.29.14-.02.27.08.29.21l.21 1.48c.02.14-.08.26-.21.28-.01 0-.02 0-.04 0C272.1 776.56 271.99 776.47 271.98 776.35zM271.55 773.38l-.21-1.48c-.02-.14.08-.26.21-.28.14-.02.27.08.28.21l.21 1.48c.02.14-.08.26-.21.28-.01 0-.02 0-.04 0C271.67 773.6 271.57 773.51 271.55 773.38zM271.12 770.42l-.21-1.48c-.02-.14.08-.26.21-.29.14-.02.27.08.28.21l.21 1.48c.02.14-.08.26-.21.29-.01 0-.02 0-.04 0C271.24 770.63 271.14 770.54 271.12 770.42zM270.69 767.45l-.21-1.48c-.02-.14.08-.26.21-.29.14-.02.27.08.29.21l.21 1.48c.02.14-.08.26-.21.28-.01 0-.02 0-.04 0C270.81 767.66 270.71 767.57 270.69 767.45zM270.26 764.48l-.21-1.48c-.02-.14.08-.26.21-.28.14-.02.27.08.29.21l.21 1.48c.02.14-.08.26-.21.29-.01 0-.02 0-.04 0C270.38 764.7 270.28 764.61 270.26 764.48zM269.83 761.51l-.21-1.48c-.02-.14.08-.26.21-.29.14-.02.27.08.28.21l.21 1.48c.02.14-.08.26-.21.29-.01 0-.02 0-.04 0C269.96 761.73 269.85 761.64 269.83 761.51zM269.4 758.55l-.21-1.48c-.02-.14.08-.26.21-.29.14-.02.27.08.28.21l.21 1.48c.02.14-.08.26-.21.29-.01 0-.02 0-.04 0C269.53 758.76 269.42 758.67 269.4 758.55zM268.97 755.58l-.21-1.48c-.02-.14.08-.26.21-.28.14-.02.27.08.29.21l.21 1.48c.02.14-.08.26-.21.28-.01 0-.02 0-.04 0C269.1 755.79 268.99 755.7 268.97 755.58zM268.54 752.61l-.21-1.48c-.02-.14.08-.27.21-.29.14-.02.27.08.28.21l.21 1.48c.02.14-.08.27-.21.28-.01 0-.02 0-.04 0C268.67 752.83 268.56 752.74 268.54 752.61zM268.11 749.64l-.21-1.48c-.02-.14.08-.27.21-.28.14-.02.27.08.28.21l.21 1.48c.02.14-.08.27-.21.28-.01 0-.02 0-.04 0C268.24 749.86 268.13 749.77 268.11 749.64zM267.68 746.68l-.21-1.48c-.02-.14.08-.27.21-.28.14-.02.27.08.28.21l.21 1.48c.02.14-.08.27-.21.29-.01 0-.02 0-.04 0C267.81 746.89 267.7 746.8 267.68 746.68zM267.25 743.71l-.21-1.48c-.02-.14.08-.27.21-.28.14-.02.27.08.29.21l.21 1.48c.02.14-.08.27-.21.29-.01 0-.02 0-.04 0C267.38 743.93 267.27 743.84 267.25 743.71zM266.82 740.74l-.21-1.48c-.02-.14.08-.27.21-.28.14-.02.27.07.28.21l.21 1.48c.02.14-.08.27-.21.29-.01 0-.02 0-.04 0C266.95 740.96 266.84 740.87 266.82 740.74zM266.4 737.78l-.21-1.48c-.02-.14.08-.27.21-.28.14-.02.27.08.28.21l.21 1.48c.02.14-.08.27-.21.28-.01 0-.02 0-.04 0C266.52 737.99 266.41 737.9 266.4 737.78zM265.97 734.81l-.21-1.48c-.02-.14.08-.27.21-.28.14-.02.27.07.28.21l.21 1.48c.02.14-.08.27-.21.28-.01 0-.02 0-.04 0C266.09 735.02 265.98 734.93 265.97 734.81zM265.54 731.84l-.21-1.48c-.02-.14.08-.27.21-.29.14-.02.27.08.29.21l.21 1.48c.02.14-.08.27-.21.29-.01 0-.02 0-.04 0C265.66 732.06 265.55 731.97 265.54 731.84zM265.11 728.87l-.21-1.48c-.02-.14.08-.27.21-.29.14-.02.27.08.28.21l.21 1.48c.02.14-.08.27-.21.28-.01 0-.02 0-.04 0C265.23 729.09 265.12 729 265.11 728.87zM264.68 725.91l-.21-1.48c-.02-.14.08-.27.21-.29.14-.02.27.08.28.21l.21 1.48c.02.14-.08.27-.21.28-.01 0-.02 0-.04 0C264.8 726.12 264.7 726.03 264.68 725.91zM264.25 722.94l-.21-1.48c-.02-.14.08-.27.21-.29.14-.02.27.07.29.21l.21 1.48c.02.14-.08.27-.21.28-.01 0-.02 0-.04 0C264.37 723.16 264.27 723.07 264.25 722.94zM263.82 719.97l-.21-1.48c-.02-.14.08-.27.21-.28.14-.02.26.08.28.21l.21 1.48c.02.14-.08.27-.21.28-.01 0-.02 0-.04 0C263.94 720.19 263.84 720.1 263.82 719.97zM263.39 717.01l-.21-1.48c-.02-.14.08-.27.21-.28.14-.02.27.07.28.21l.21 1.48c.02.14-.08.26-.21.28-.01 0-.02 0-.04 0C263.52 717.22 263.41 717.13 263.39 717.01zM262.96 714.04l-.21-1.48c-.02-.14.08-.27.21-.28.14-.02.27.08.29.21l.21 1.48c.02.14-.08.27-.21.29-.01 0-.02 0-.04 0C263.09 714.25 262.98 714.16 262.96 714.04zM262.53 711.07l-.21-1.48c-.02-.14.08-.27.21-.28.14-.02.27.08.29.21l.21 1.48c.02.14-.08.27-.21.29-.01 0-.02 0-.04 0C262.66 711.29 262.55 711.2 262.53 711.07zM262.1 708.1l-.21-1.48c-.02-.14.08-.27.21-.28.14-.02.27.08.28.21l.21 1.48c.02.14-.08.27-.21.29-.01 0-.02 0-.04 0C262.23 708.32 262.12 708.23 262.1 708.1zM261.67 705.14l-.21-1.48c-.02-.14.08-.27.21-.29.14-.02.27.08.28.21l.21 1.48c.02.14-.08.27-.21.28-.01 0-.02 0-.04 0C261.8 705.35 261.69 705.26 261.67 705.14zM261.24 702.17l-.21-1.48c-.02-.14.08-.27.21-.28.14-.02.27.08.29.21l.21 1.48c.02.14-.08.27-.21.28-.01 0-.02 0-.04 0C261.37 702.38 261.26 702.29 261.24 702.17zM260.81 699.2l-.21-1.48c-.02-.14.08-.27.21-.29.14-.02.27.08.29.21l.21 1.48c.02.14-.08.27-.21.28-.01 0-.02 0-.04 0C260.94 699.42 260.83 699.33 260.81 699.2zM260.38 696.23l-.21-1.48c-.02-.14.08-.27.21-.29.14-.02.27.08.28.21l.21 1.48c.02.14-.08.27-.21.28-.01 0-.02 0-.04 0C260.51 696.45 260.4 696.36 260.38 696.23zM259.96 693.27l-.21-1.48c-.02-.14.08-.27.21-.28.14-.02.27.08.28.21l.21 1.48c.02.14-.08.27-.21.28-.01 0-.02 0-.04 0C260.08 693.48 259.97 693.39 259.96 693.27zM259.53 690.3l-.21-1.48c-.02-.14.08-.27.21-.29.14-.02.27.08.29.21l.21 1.48c.02.14-.08.27-.21.28-.01 0-.02 0-.04 0C259.65 690.52 259.54 690.43 259.53 690.3zM259.1 687.33l-.21-1.48c-.02-.14.08-.27.21-.28.14-.02.27.07.28.21l.21 1.48c.02.14-.08.27-.21.28-.01 0-.02 0-.04 0C259.22 687.55 259.11 687.46 259.1 687.33zM258.67 684.37l-.21-1.48c-.02-.14.08-.27.21-.28.14-.02.26.08.28.21l.21 1.48c.02.14-.08.27-.21.29-.01 0-.02 0-.04 0C258.79 684.58 258.68 684.49 258.67 684.37zM258.24 681.4l-.21-1.48c-.02-.14.08-.27.21-.28.14-.02.27.08.29.21l.21 1.48c.02.14-.08.27-.21.29-.01 0-.02 0-.04 0C258.36 681.61 258.26 681.52 258.24 681.4zM257.81 678.43l-.21-1.48c-.02-.14.08-.27.21-.29.14-.02.27.08.29.21l.21 1.48c.02.14-.08.27-.21.29-.01 0-.02 0-.04 0C257.93 678.65 257.83 678.56 257.81 678.43zM257.38 675.46l-.21-1.48c-.02-.14.08-.27.21-.29.14-.02.27.08.28.21l.21 1.48c.02.14-.08.27-.21.29-.01 0-.02 0-.04 0C257.5 675.68 257.4 675.59 257.38 675.46zM256.95 672.5l-.21-1.48c-.02-.14.08-.27.21-.29.14-.02.27.08.28.21l.21 1.48c.02.14-.08.27-.21.28-.01 0-.02 0-.04 0C257.08 672.71 256.97 672.62 256.95 672.5zM256.52 669.53l-.21-1.48c-.02-.14.08-.27.21-.29.14-.02.27.08.29.21l.21 1.48c.02.14-.08.27-.21.29-.01 0-.02 0-.04 0C256.65 669.75 256.54 669.65 256.52 669.53zM256.09 666.56l-.21-1.48c-.02-.14.08-.27.21-.28.14-.02.26.08.28.21l.21 1.48c.02.14-.08.27-.21.28-.01 0-.02 0-.04 0C256.22 666.78 256.11 666.69 256.09 666.56zM255.66 663.6l-.21-1.48c-.02-.14.08-.27.21-.29.14-.02.27.08.28.21l.21 1.48c.02.14-.08.27-.21.28-.01 0-.02 0-.04 0C255.79 663.81 255.68 663.72 255.66 663.6zM255.23 660.63l-.21-1.48c-.02-.14.08-.27.21-.28.14-.02.27.08.28.21l.21 1.48c.02.14-.08.26-.21.28-.01 0-.02 0-.04 0C255.36 660.84 255.25 660.75 255.23 660.63zM254.8 657.66l-.21-1.48c-.02-.14.08-.26.21-.28.14-.02.27.08.29.21l.21 1.48c.02.14-.08.27-.21.28-.01 0-.02 0-.04 0C254.93 657.88 254.82 657.79 254.8 657.66zM273.4 784.73c.01 0 .02 0 .04 0 .14-.02.23-.15.21-.28l-.11-.75c-.02-.14-.15-.23-.29-.21-.14.02-.23.15-.21.29l.11.75C273.17 784.64 273.28 784.73 273.4 784.73z"></path><path fill="#171c51" d="M244.33,781.86c0-0.14,0.11-0.25,0.25-0.25h1.51c0.14,0,0.25,0.11,0.25,0.25s-0.11,0.25-0.25,0.25          h-1.51C244.44,782.11,244.33,782,244.33,781.86z M247.35,781.86c0-0.14,0.11-0.25,0.25-0.25h1.51          c0.14,0,0.25,0.11,0.25,0.25s-0.11,0.25-0.25,0.25h-1.51C247.46,782.11,247.35,782,247.35,781.86z M250.37,781.86          c0-0.14,0.11-0.25,0.25-0.25h1.51c0.14,0,0.25,0.11,0.25,0.25s-0.11,0.25-0.25,0.25h-1.51          C250.48,782.11,250.37,782,250.37,781.86z M253.39,781.86c0-0.14,0.11-0.25,0.25-0.25h1.51c0.14,0,0.25,0.11,0.25,0.25          s-0.11,0.25-0.25,0.25h-1.51C253.5,782.11,253.39,782,253.39,781.86z M256.41,781.86c0-0.14,0.11-0.25,0.25-0.25h1.51          c0.14,0,0.25,0.11,0.25,0.25s-0.11,0.25-0.25,0.25h-1.51C256.52,782.11,256.41,782,256.41,781.86z M259.42,781.86          c0-0.14,0.11-0.25,0.25-0.25h1.51c0.14,0,0.25,0.11,0.25,0.25s-0.11,0.25-0.25,0.25h-1.51          C259.54,782.11,259.42,782,259.42,781.86z M262.44,781.86c0-0.14,0.11-0.25,0.25-0.25h1.51c0.14,0,0.25,0.11,0.25,0.25          s-0.11,0.25-0.25,0.25h-1.51C262.56,782.11,262.44,782,262.44,781.86z M265.46,781.86c0-0.14,0.11-0.25,0.25-0.25h1.51          c0.14,0,0.25,0.11,0.25,0.25s-0.11,0.25-0.25,0.25h-1.51C265.57,782.11,265.46,782,265.46,781.86z M268.48,781.86          c0-0.14,0.11-0.25,0.25-0.25h1.51c0.14,0,0.25,0.11,0.25,0.25s-0.11,0.25-0.25,0.25h-1.51          C268.59,782.11,268.48,782,268.48,781.86z M271.5,781.86c0-0.14,0.11-0.25,0.25-0.25h1.51c0.14,0,0.25,0.11,0.25,0.25          s-0.11,0.25-0.25,0.25h-1.51C271.61,782.11,271.5,782,271.5,781.86z M274.52,781.86c0-0.14,0.11-0.25,0.25-0.25h1.51          c0.14,0,0.25,0.11,0.25,0.25s-0.11,0.25-0.25,0.25h-1.51C274.63,782.11,274.52,782,274.52,781.86z"></path><g><path fill="#171c51" d="M185.91,784.73c-0.14,0-0.25-0.12-0.24-0.26l0.02-0.61c0-0.14,0.13-0.24,0.26-0.24          c0.14,0,0.25,0.12,0.24,0.26l-0.02,0.61C186.16,784.62,186.05,784.73,185.91,784.73          C185.91,784.73,185.91,784.73,185.91,784.73z M185.97,782.61c-0.14,0-0.25-0.12-0.24-0.26l0.04-1.51          c0-0.14,0.12-0.25,0.26-0.24c0.14,0,0.25,0.12,0.24,0.26l-0.04,1.51C186.22,782.5,186.11,782.61,185.97,782.61          C185.97,782.61,185.97,782.61,185.97,782.61z M186.06,779.59c-0.14,0-0.25-0.12-0.24-0.26l0.04-1.51          c0-0.14,0.12-0.24,0.26-0.24c0.14,0,0.25,0.12,0.24,0.26l-0.04,1.51C186.31,779.48,186.2,779.59,186.06,779.59          C186.06,779.59,186.06,779.59,186.06,779.59z M186.14,776.58c-0.14,0-0.25-0.12-0.24-0.26l0.04-1.51          c0-0.14,0.12-0.25,0.26-0.24c0.14,0,0.25,0.12,0.24,0.26l-0.04,1.51C186.4,776.47,186.28,776.58,186.14,776.58          C186.15,776.58,186.14,776.58,186.14,776.58z M186.23,773.56c-0.14,0-0.25-0.12-0.24-0.26l0.04-1.51          c0-0.14,0.11-0.24,0.26-0.24c0.14,0,0.25,0.12,0.24,0.26l-0.04,1.51C186.48,773.45,186.37,773.56,186.23,773.56          C186.23,773.56,186.23,773.56,186.23,773.56z M186.31,770.54c-0.14,0-0.25-0.12-0.24-0.26l0.04-1.51          c0-0.14,0.12-0.24,0.26-0.24c0.14,0,0.25,0.12,0.24,0.26l-0.04,1.51C186.57,770.43,186.46,770.54,186.31,770.54          C186.32,770.54,186.32,770.54,186.31,770.54z M186.4,767.52c-0.14,0-0.25-0.12-0.24-0.26l0.04-1.51          c0-0.14,0.12-0.25,0.26-0.24c0.14,0,0.25,0.12,0.24,0.26l-0.04,1.51C186.65,767.42,186.54,767.52,186.4,767.52          C186.4,767.52,186.4,767.52,186.4,767.52z M186.49,764.51c-0.14,0-0.25-0.12-0.24-0.26l0.04-1.51          c0-0.14,0.12-0.24,0.26-0.24c0.14,0,0.25,0.12,0.24,0.26l-0.04,1.51C186.74,764.4,186.63,764.51,186.49,764.51          C186.49,764.51,186.49,764.51,186.49,764.51z M186.57,761.49c-0.14,0-0.25-0.12-0.24-0.26l0.04-1.51          c0-0.14,0.11-0.25,0.26-0.24c0.14,0,0.25,0.12,0.24,0.26l-0.04,1.51C186.83,761.38,186.71,761.49,186.57,761.49          C186.58,761.49,186.57,761.49,186.57,761.49z M186.66,758.47c-0.14,0-0.25-0.12-0.24-0.26l0.04-1.51          c0-0.14,0.13-0.24,0.26-0.24c0.14,0,0.25,0.12,0.24,0.26l-0.04,1.51C186.91,758.36,186.8,758.47,186.66,758.47          C186.66,758.47,186.66,758.47,186.66,758.47z M186.74,755.46c-0.14,0-0.25-0.12-0.24-0.26l0.04-1.51          c0-0.14,0.12-0.25,0.26-0.24c0.14,0,0.25,0.12,0.24,0.26l-0.04,1.51C187,755.35,186.89,755.46,186.74,755.46          C186.75,755.46,186.75,755.46,186.74,755.46z M186.83,752.44c-0.14,0-0.25-0.12-0.24-0.26l0.04-1.51          c0-0.14,0.11-0.25,0.26-0.24c0.14,0,0.25,0.12,0.24,0.26l-0.04,1.51C187.08,752.33,186.97,752.44,186.83,752.44          C186.83,752.44,186.83,752.44,186.83,752.44z M186.92,749.42c-0.14,0-0.25-0.12-0.24-0.26l0.04-1.51          c0-0.14,0.12-0.24,0.26-0.24c0.14,0,0.25,0.12,0.24,0.26l-0.04,1.51C187.17,749.31,187.06,749.42,186.92,749.42          C186.92,749.42,186.92,749.42,186.92,749.42z M187,746.4c-0.14,0-0.25-0.12-0.24-0.26l0.04-1.51c0-0.14,0.13-0.24,0.26-0.24          c0.14,0,0.25,0.12,0.24,0.26l-0.04,1.51C187.26,746.3,187.14,746.4,187,746.4C187.01,746.4,187,746.4,187,746.4z           M187.09,743.39c-0.14,0-0.25-0.12-0.24-0.26l0.04-1.51c0-0.14,0.12-0.24,0.26-0.24c0.14,0,0.25,0.12,0.24,0.26l-0.04,1.51          C187.34,743.28,187.23,743.39,187.09,743.39C187.09,743.39,187.09,743.39,187.09,743.39z M187.17,740.37          c-0.14,0-0.25-0.12-0.24-0.26l0.04-1.51c0-0.14,0.12-0.25,0.26-0.24c0.14,0,0.25,0.12,0.24,0.26l-0.04,1.51          C187.43,740.26,187.32,740.37,187.17,740.37C187.18,740.37,187.18,740.37,187.17,740.37z M187.26,737.35          c-0.14,0-0.25-0.12-0.24-0.26l0.04-1.51c0-0.14,0.12-0.24,0.26-0.24c0.14,0,0.25,0.12,0.24,0.26l-0.04,1.51          C187.51,737.24,187.4,737.35,187.26,737.35C187.26,737.35,187.26,737.35,187.26,737.35z M187.35,734.33          c-0.14,0-0.25-0.12-0.24-0.26l0.04-1.51c0-0.14,0.11-0.25,0.26-0.24c0.14,0,0.25,0.12,0.24,0.26l-0.04,1.51          C187.6,734.23,187.49,734.33,187.35,734.33C187.35,734.33,187.35,734.33,187.35,734.33z M187.43,731.32          c-0.14,0-0.25-0.12-0.24-0.26l0.04-1.51c0-0.14,0.12-0.24,0.26-0.24c0.14,0,0.25,0.12,0.24,0.26l-0.04,1.51          C187.69,731.21,187.57,731.32,187.43,731.32C187.44,731.32,187.43,731.32,187.43,731.32z M187.52,728.3          c-0.14,0-0.25-0.12-0.24-0.26l0.04-1.51c0-0.14,0.12-0.25,0.26-0.24c0.14,0,0.25,0.12,0.24,0.26l-0.04,1.51          C187.77,728.19,187.66,728.3,187.52,728.3C187.52,728.3,187.52,728.3,187.52,728.3z M187.6,725.28          c-0.14,0-0.25-0.12-0.24-0.26l0.04-1.51c0-0.14,0.12-0.24,0.26-0.24c0.14,0,0.25,0.12,0.24,0.26l-0.04,1.51          C187.86,725.18,187.75,725.28,187.6,725.28C187.61,725.28,187.61,725.28,187.6,725.28z M187.69,722.27          c-0.14,0-0.25-0.12-0.24-0.26l0.04-1.51c0-0.14,0.11-0.26,0.26-0.24c0.14,0,0.25,0.12,0.24,0.26l-0.04,1.51          C187.94,722.16,187.83,722.27,187.69,722.27C187.69,722.27,187.69,722.27,187.69,722.27z M187.78,719.25          c-0.14,0-0.25-0.12-0.24-0.26l0.04-1.51c0-0.14,0.13-0.25,0.26-0.24c0.14,0,0.25,0.12,0.24,0.26l-0.04,1.51          C188.03,719.14,187.92,719.25,187.78,719.25C187.78,719.25,187.78,719.25,187.78,719.25z M187.86,716.23          c-0.14,0-0.25-0.12-0.24-0.26l0.04-1.51c0-0.14,0.12-0.24,0.26-0.24c0.14,0,0.25,0.12,0.24,0.26l-0.04,1.51          C188.12,716.12,188,716.23,187.86,716.23C187.87,716.23,187.86,716.23,187.86,716.23z M187.95,713.21          c-0.14,0-0.25-0.12-0.24-0.26l0.04-1.51c0-0.14,0.12-0.25,0.26-0.24c0.14,0,0.25,0.12,0.24,0.26l-0.04,1.51          C188.2,713.11,188.09,713.21,187.95,713.21C187.95,713.21,187.95,713.21,187.95,713.21z M188.03,710.2          c-0.14,0-0.25-0.12-0.24-0.26l0.04-1.51c0-0.14,0.11-0.24,0.26-0.24c0.14,0,0.25,0.12,0.24,0.26l-0.04,1.51          C188.29,710.09,188.18,710.2,188.03,710.2C188.04,710.2,188.04,710.2,188.03,710.2z M188.12,707.18          c-0.14,0-0.25-0.12-0.24-0.26l0.04-1.51c0-0.14,0.13-0.25,0.26-0.24c0.14,0,0.25,0.12,0.24,0.26l-0.04,1.51          C188.37,707.07,188.26,707.18,188.12,707.18C188.12,707.18,188.12,707.18,188.12,707.18z M188.21,704.16          c-0.14,0-0.25-0.12-0.24-0.26l0.04-1.51c0-0.14,0.12-0.24,0.26-0.24c0.14,0,0.25,0.12,0.24,0.26l-0.04,1.51          C188.46,704.05,188.35,704.16,188.21,704.16C188.21,704.16,188.21,704.16,188.21,704.16z M188.29,701.15          c-0.14,0-0.25-0.12-0.24-0.26l0.04-1.51c0-0.14,0.12-0.25,0.26-0.24c0.14,0,0.25,0.12,0.24,0.26l-0.04,1.51          C188.55,701.04,188.44,701.15,188.29,701.15C188.3,701.15,188.29,701.15,188.29,701.15z M188.38,698.13          c-0.14,0-0.25-0.12-0.24-0.26l0.04-1.51c0-0.14,0.12-0.24,0.26-0.24c0.14,0,0.25,0.12,0.24,0.26l-0.04,1.51          C188.63,698.02,188.52,698.13,188.38,698.13C188.38,698.13,188.38,698.13,188.38,698.13z M188.46,695.11          c-0.14,0-0.25-0.12-0.24-0.26l0.04-1.51c0-0.14,0.13-0.24,0.26-0.24c0.14,0,0.25,0.12,0.24,0.26l-0.04,1.51          C188.72,695,188.61,695.11,188.46,695.11C188.47,695.11,188.47,695.11,188.46,695.11z M188.55,692.09          c-0.14,0-0.25-0.12-0.24-0.26l0.04-1.51c0-0.14,0.12-0.25,0.26-0.24c0.14,0,0.25,0.12,0.24,0.26l-0.04,1.51          C188.81,691.99,188.69,692.09,188.55,692.09C188.56,692.09,188.55,692.09,188.55,692.09z M188.64,689.08          c-0.14,0-0.25-0.12-0.24-0.26l0.04-1.51c0-0.14,0.12-0.24,0.26-0.24c0.14,0,0.25,0.12,0.24,0.26l-0.04,1.51          C188.89,688.97,188.78,689.08,188.64,689.08C188.64,689.08,188.64,689.08,188.64,689.08z M188.72,686.06          c-0.14,0-0.25-0.12-0.24-0.26l0.04-1.51c0-0.14,0.12-0.25,0.26-0.24c0.14,0,0.25,0.12,0.24,0.26l-0.04,1.51          C188.98,685.95,188.87,686.06,188.72,686.06C188.73,686.06,188.72,686.06,188.72,686.06z M188.81,683.04          c-0.14,0-0.25-0.12-0.24-0.26l0.04-1.51c0-0.14,0.11-0.24,0.26-0.24c0.14,0,0.25,0.12,0.24,0.26l-0.04,1.51          C189.06,682.93,188.95,683.04,188.81,683.04C188.81,683.04,188.81,683.04,188.81,683.04z M188.89,680.02          c-0.14,0-0.25-0.12-0.24-0.26l0.04-1.51c0-0.14,0.12-0.25,0.26-0.24c0.14,0,0.25,0.12,0.24,0.26l-0.04,1.51          C189.15,679.92,189.04,680.02,188.89,680.02C188.9,680.02,188.9,680.02,188.89,680.02z M188.98,677.01          c-0.14,0-0.25-0.12-0.24-0.26l0.04-1.51c0-0.14,0.12-0.24,0.26-0.24c0.14,0,0.25,0.12,0.24,0.26l-0.04,1.51          C189.24,676.9,189.12,677.01,188.98,677.01C188.99,677.01,188.98,677.01,188.98,677.01z M189.07,673.99          c-0.14,0-0.25-0.12-0.24-0.26l0.04-1.51c0-0.14,0.12-0.25,0.26-0.24c0.14,0,0.25,0.12,0.24,0.26l-0.04,1.51          C189.32,673.88,189.21,673.99,189.07,673.99C189.07,673.99,189.07,673.99,189.07,673.99z M189.15,670.97          c-0.14,0-0.25-0.12-0.24-0.26l0.04-1.51c0-0.14,0.12-0.24,0.26-0.24c0.14,0,0.25,0.12,0.24,0.26l-0.04,1.51          C189.41,670.87,189.3,670.97,189.15,670.97C189.16,670.97,189.16,670.97,189.15,670.97z M189.24,667.96          c-0.14,0-0.25-0.12-0.24-0.26l0.04-1.51c0-0.14,0.13-0.24,0.26-0.24c0.14,0,0.25,0.12,0.24,0.26l-0.04,1.51          C189.49,667.85,189.38,667.96,189.24,667.96C189.24,667.96,189.24,667.96,189.24,667.96z M189.32,664.94          c-0.14,0-0.25-0.12-0.24-0.26l0.04-1.51c0-0.14,0.12-0.25,0.26-0.24c0.14,0,0.25,0.12,0.24,0.26l-0.04,1.51          C189.58,664.83,189.47,664.94,189.32,664.94C189.33,664.94,189.33,664.94,189.32,664.94z M189.41,661.92          c-0.14,0-0.25-0.12-0.24-0.26l0.04-1.51c0-0.14,0.12-0.24,0.26-0.24c0.14,0,0.25,0.12,0.24,0.26l-0.04,1.51          C189.67,661.81,189.55,661.92,189.41,661.92C189.42,661.92,189.41,661.92,189.41,661.92z M189.5,658.9          c-0.14,0-0.25-0.12-0.24-0.26l0.04-1.51c0-0.14,0.12-0.25,0.26-0.24c0.14,0,0.25,0.12,0.24,0.26l-0.04,1.51          C189.75,658.8,189.64,658.9,189.5,658.9C189.5,658.9,189.5,658.9,189.5,658.9z M189.58,655.89c-0.14,0-0.25-0.12-0.24-0.26          l0.04-1.51c0-0.14,0.13-0.24,0.26-0.24c0.14,0,0.25,0.12,0.24,0.26l-0.04,1.51C189.84,655.78,189.73,655.89,189.58,655.89          C189.59,655.89,189.59,655.89,189.58,655.89z"></path></g><g><path fill="#171c51" d="M181.98,781.86c0-0.14,0.11-0.25,0.25-0.25h0.97c0.14,0,0.25,0.11,0.25,0.25s-0.11,0.25-0.25,0.25          h-0.97C182.09,782.11,181.98,782,181.98,781.86z M184.45,781.86c0-0.14,0.11-0.25,0.25-0.25h1.51          c0.14,0,0.25,0.11,0.25,0.25s-0.11,0.25-0.25,0.25h-1.51C184.56,782.11,184.45,782,184.45,781.86z M187.47,781.86          c0-0.14,0.11-0.25,0.25-0.25h1.51c0.14,0,0.25,0.11,0.25,0.25s-0.11,0.25-0.25,0.25h-1.51          C187.58,782.11,187.47,782,187.47,781.86z M190.49,781.86c0-0.14,0.11-0.25,0.25-0.25h1.51c0.14,0,0.25,0.11,0.25,0.25          s-0.11,0.25-0.25,0.25h-1.51C190.6,782.11,190.49,782,190.49,781.86z M193.51,781.86c0-0.14,0.11-0.25,0.25-0.25h1.51          c0.14,0,0.25,0.11,0.25,0.25s-0.11,0.25-0.25,0.25h-1.51C193.62,782.11,193.51,782,193.51,781.86z M196.52,781.86          c0-0.14,0.11-0.25,0.25-0.25h1.51c0.14,0,0.25,0.11,0.25,0.25s-0.11,0.25-0.25,0.25h-1.51          C196.64,782.11,196.52,782,196.52,781.86z M199.54,781.86c0-0.14,0.11-0.25,0.25-0.25h1.51c0.14,0,0.25,0.11,0.25,0.25          s-0.11,0.25-0.25,0.25h-1.51C199.66,782.11,199.54,782,199.54,781.86z M202.56,781.86c0-0.14,0.11-0.25,0.25-0.25h1.51          c0.14,0,0.25,0.11,0.25,0.25s-0.11,0.25-0.25,0.25h-1.51C202.67,782.11,202.56,782,202.56,781.86z M205.58,781.86          c0-0.14,0.11-0.25,0.25-0.25h1.51c0.14,0,0.25,0.11,0.25,0.25s-0.11,0.25-0.25,0.25h-1.51          C205.69,782.11,205.58,782,205.58,781.86z M208.6,781.86c0-0.14,0.11-0.25,0.25-0.25h1.51c0.14,0,0.25,0.11,0.25,0.25          s-0.11,0.25-0.25,0.25h-1.51C208.71,782.11,208.6,782,208.6,781.86z M211.62,781.86c0-0.14,0.11-0.25,0.25-0.25h1.51          c0.14,0,0.25,0.11,0.25,0.25s-0.11,0.25-0.25,0.25h-1.51C211.73,782.11,211.62,782,211.62,781.86z"></path></g><polygon points="186.56 638.74 258.45 646.15 257.48 638.74" opacity=".4"></polygon></g><g><path fill="#50bfa5" d="M230.44,552.06c0,0,24.53,3.51,36.47,17.36c11.94,13.85-4.13,13.6-8.56,13.09      C253.93,582.01,230.44,552.06,230.44,552.06z"></path><polygon fill="#fae0b2" points="207.55 536.86 209.71 554.22 225.45 551.81 225.57 551.36 226.12 549.2 226.71 546.94 226.72 546.91 228.84 538.73"></polygon><path fill="#fae0b2" d="M206.34,530.5c0.36,9.9,6.57,19.05,16.48,18.7c9.9-0.36,17.56-0.31,19.38-19.99       c0.91-9.87-8.67-17.64-18.57-17.28C213.72,512.28,205.99,520.59,206.34,530.5z"></path><path fill="#13375b" d="M224.93,520.96c-3.06-1.44-6.55-1.71-9.75-0.64c-0.5,0.17-0.94,0.34-1.28,0.5       c-1.89,0.92-1.61,6.19-1.61,6.19s-2.51-1.98-3.24,1.46c-0.73,3.45,2.49,3.97,2.49,3.97l-2.12,8.97c0,0-3.37-5.47-5.66-15       c-2.23-9.25,5.35-23.85,14.39-21.02c0,0,7.51-6.38,16.58-3.61c9.91,3.03,16.75,9.32,20.9,4.53c0,0-2.81,23.54-21.87,17.75       L224.93,520.96z"></path><path fill="#fe875e" d="M225.04,553.83l1.09-4.63c0,0-11.42,0.93-15.51-6C210.61,543.2,210.68,552.63,225.04,553.83z"></path><g><path fill="#96d9c9" d="M185.09,610.99l-1.25-22.31c-1.01-17.89-0.06-36.62,28.69-36.6c0.04-0.01,0.08-0.02,0.11-0.02        c1.91-0.31,3.31-0.44,3.97-0.5c0.28-0.02,0.43-0.03,0.43-0.03c37.06,0,36.06,13.77,37.15,33.2l1.17,20.9l3.74,30.77        c0.27,2.18-1.43,4.11-3.63,4.12l-67.98,0.31c-2.11,0.01-3.79-1.75-3.69-3.86L185.09,610.99z"></path><path fill="#587cf8" d="M216.62,551.56c-0.66,0.06-2.07,0.19-3.97,0.5C213.94,551.82,215.27,551.65,216.62,551.56z"></path></g><path fill="#fe875e" d="M246.08,600.92L246.08,600.92c-0.96-0.93-3.36,0.48-2.43-0.48l6.01-6.68c0.93-0.96,2.47-0.98,3.43-0.05l0,0      c0.96,0.93,0.98,2.47,0.05,3.43l-3.63,3.73C248.58,601.83,247.03,601.85,246.08,600.92z"></path><path fill="#7181aa" d="M254.77,612.09l-1.46-0.05c-1.79-0.06-3.19-1.56-3.14-3.35l1.46-43.97c0.06-1.8,1.56-3.19,3.35-3.14       l1.41,0.05c-1.77-0.04-3.25,1.35-3.3,3.13l-1.46,43.97C251.58,610.53,252.99,612.03,254.77,612.09z"></path><path fill="#96a4cd" d="M283.63,613.05l-1.41-0.05l-27.44-0.91c-1.79-0.06-3.19-1.56-3.14-3.35l1.46-43.97       c0.06-1.78,1.53-3.17,3.3-3.13c0.02,0,0.03-0.01,0.05,0l27.39,0.91l1.46,0.05c1.79,0.06,3.19,1.56,3.14,3.35l-1.46,43.97       C286.92,611.7,285.42,613.11,283.63,613.05z"></path><path fill="#fff" d="M266.97 586.77c-.32 1.7.8 3.33 2.5 3.64 1.7.32 3.33-.8 3.64-2.5.32-1.7-.8-3.33-2.5-3.64C268.91 583.96 267.28 585.08 266.97 586.77zM282.95 566.58c-.12.64.3 1.26.94 1.37.64.12 1.26-.3 1.37-.94.12-.64-.3-1.26-.94-1.37C283.68 565.51 283.07 565.94 282.95 566.58z"></path><g><path fill="#fae0b2" d="M252.79,612.17l-2.93,0.37c-3.83,0.49-7.36-2.24-7.85-6.07h0c-0.49-3.83,2.24-7.36,6.07-7.85l2.93-0.37        c3.83-0.49,7.36,2.24,7.85,6.07l0,0C259.35,608.15,256.61,611.68,252.79,612.17z"></path><path fill="#fae0b2" d="M250.02,600.83L250.02,600.83c-0.17-1.32,0.78-2.54,2.1-2.71l5.17-0.66c1.32-0.17,2.54,0.78,2.71,2.1        l0,0c0.17,1.32-0.78,2.54-2.1,2.71l-5.17,0.66C251.41,603.09,250.19,602.15,250.02,600.83z"></path><path fill="#fae0b2" d="M253.67,603.4L253.67,603.4c-0.17-1.32,0.78-2.54,2.1-2.71l5.17-0.66c1.32-0.17,2.54,0.78,2.71,2.1l0,0        c0.17,1.32-0.78,2.54-2.1,2.71l-5.17,0.66C255.06,605.67,253.84,604.73,253.67,603.4z"></path><path fill="#fae0b2" d="M252.82,606.57L252.82,606.57c-0.17-1.32,0.78-2.54,2.1-2.71l5.17-0.66c1.32-0.17,2.54,0.78,2.71,2.1        l0,0c0.17,1.32-0.78,2.54-2.1,2.71l-5.17,0.66C254.21,608.84,252.99,607.89,252.82,606.57z"></path><path fill="#fae0b2" d="M250.25,609.94L250.25,609.94c-0.17-1.32,0.78-2.54,2.1-2.71l5.17-0.66c1.32-0.17,2.54,0.78,2.71,2.1        l0,0c0.17,1.32-0.78,2.54-2.1,2.71l-5.17,0.66C251.64,612.21,250.42,611.26,250.25,609.94z"></path><g><rect width="7.89" height=".5" x="252.17" y="600.6" fill="#fe875e" transform="rotate(-10.219 256.112 600.841)"></rect></g><g><rect width="7.73" height=".5" x="254.87" y="604.92" fill="#fe875e" transform="rotate(-10.219 258.714 605.131)"></rect></g><g><rect width="6.64" height=".5" x="253.32" y="608.45" fill="#fe875e" transform="rotate(-10.219 256.603 608.625)"></rect></g></g><path fill="#50bfa5" d="M198.18,556.61c-8.2,0.14-14.54,7.23-13.8,15.39c0.32,3.48,0.64,6.55,0.88,7.85      c0.16,0.95,0.37,1.92,0.56,2.87c0.2,0.96,0.4,1.91,0.64,2.89c0.23,0.97,0.45,1.93,0.72,2.9l0.83,2.93      c0.13,0.48,0.29,0.98,0.46,1.48l0.5,1.49l0.5,1.48l0.59,1.53l0.6,1.52c0.1,0.25,0.2,0.5,0.31,0.76l0.36,0.79l0.73,1.57      l0.37,0.78l0.19,0.39l0.31,0.59c0.45,0.81,0.9,1.62,1.41,2.37c0.53,0.74,1.08,1.47,1.65,2.17c0.6,0.65,1.21,1.29,1.83,1.9      c0.63,0.58,1.28,1.1,1.94,1.62c2.64,1.97,5.31,3.24,7.83,4.11c0.62,0.2,1.27,0.44,1.87,0.59l1.83,0.47      c1.18,0.25,2.38,0.47,3.51,0.6c2.29,0.3,4.49,0.42,6.61,0.39c4.25-0.02,8.24-0.54,12.11-1.25c1.93-0.39,3.83-0.81,5.71-1.32      c0.94-0.26,1.87-0.53,2.81-0.82l1.4-0.46l1.49-0.51l-2.47-13.65c-0.12-0.03-0.35-0.04-0.54-0.05l-0.61-0.04l-1.24-0.09      c-0.83-0.05-1.66-0.12-2.49-0.19c-1.66-0.15-3.3-0.29-4.92-0.51c-3.22-0.38-6.36-0.94-9.18-1.68c-1.42-0.35-2.73-0.8-3.91-1.26      c-0.28-0.12-0.6-0.23-0.85-0.36c-0.26-0.13-0.53-0.25-0.79-0.37l-0.7-0.39c-0.24-0.12-0.4-0.27-0.6-0.39      c-0.74-0.52-1.12-2.29-1.12-2.29l-0.25-0.91l-0.13-0.45c-0.04-0.16-0.07-0.34-0.11-0.51l-0.22-1.02l-0.23-1.01l-0.19-1.09      c-0.12-0.74-0.27-1.42-0.38-2.19c-0.25-1.5-0.93-8.84-1.53-15.74C211.83,562.1,205.58,556.48,198.18,556.61L198.18,556.61z"></path><g><path fill="#fae0b2" d="M282.86,595.62L282.86,595.62c-0.15,1.33,0.82,2.53,2.15,2.68l5.18,0.57c1.33,0.15,2.53-0.82,2.68-2.15       l0,0c0.15-1.33-0.82-2.53-2.15-2.68l-5.18-0.57C284.21,593.33,283.01,594.29,282.86,595.62z"></path><path fill="#fae0b2" d="M281.6,591.28L281.6,591.28c-0.15,1.33,0.82,2.53,2.15,2.68l6.67,0.73c1.33,0.15,2.53-0.82,2.68-2.15l0,0       c0.15-1.33-0.82-2.53-2.15-2.68l-6.67-0.73C282.95,588.99,281.75,589.95,281.6,591.28z"></path><path fill="#fae0b2" d="M283.3,587.71L283.3,587.71c-0.15,1.33,0.82,2.53,2.15,2.68l5.18,0.57c1.33,0.15,2.53-0.82,2.68-2.15l0,0       c0.15-1.33-0.82-2.53-2.15-2.68l-5.18-0.57C284.65,585.42,283.44,586.38,283.3,587.71z"></path><path fill="#fae0b2" d="M284.79,584.22L284.79,584.22c-0.15,1.33,0.81,2.53,2.15,2.68l2.29,0.25c1.33,0.15,2.53-0.81,2.68-2.15       l0,0c0.15-1.33-0.81-2.53-2.15-2.68l-2.29-0.25C286.13,581.93,284.93,582.89,284.79,584.22z"></path><rect width=".5" height="8.06" x="287.51" y="590.17" fill="#fe875e" transform="rotate(-86.595 287.767 594.211)"></rect><rect width=".5" height="8.68" x="287.66" y="585.25" fill="#fe875e" transform="rotate(-84.215 287.891 589.588)"></rect><rect width=".5" height="6.11" x="287.86" y="582.83" fill="#fe875e" transform="rotate(-85.342 288.117 585.888)"></rect></g></g></g></g></svg>