<svg xmlns="http://www.w3.org/2000/svg" xmlns:xlink="http://www.w3.org/1999/xlink" enable-background="new 0 0 1000 1000" viewBox="0 0 1000 1000" id="online-certificate-course"><path fill="#c2d8f2" d="M354.47,744.43c0,0-114-146.36-111.58-218.82c2.42-72.46,267.79-264.43,336.49-254.08     c68.7,10.35,88.46,173.15,32.94,291.72c-55.52,118.57,79.99,32.94,92.22-38.58c12.23-71.52,139.27,87.58-28.23,219.76H354.47z"></path><path fill="#9bd" d="M796.62,472.9c-0.09,0-0.18,0-0.27-0.01l-13.58-0.92c-1.55-0.1-2.91-1.11-3.45-2.57l-1.79-4.77l25.01,1.69       l-2.42,4.49C799.43,472.11,798.08,472.9,796.62,472.9z M783,468.69l13.58,0.92c0.25,0.02,0.5-0.11,0.63-0.33l-14.79-1       C782.52,468.51,782.75,468.67,783,468.69L783,468.69z"></path><path fill="#9bd" d="M799.9,469.43c-0.21,0-0.41-0.01-0.62-0.02l-18.93-1.28c-2.66-0.18-5.11-1.51-6.71-3.64l-5.24-6.99        c-1.31-1.75-1.95-3.92-1.81-6.1l1.4-20.71l48.56,3.28l-1.4,20.71c-0.15,2.18-1.07,4.25-2.61,5.81l-6.13,6.22        C804.69,468.46,802.35,469.43,799.9,469.43z M771.07,434.2l-1.18,17.42c-0.09,1.4,0.32,2.78,1.16,3.9l5.24,6.99        c1.02,1.37,2.59,2.22,4.29,2.33l18.93,1.28c1.7,0.12,3.37-0.52,4.57-1.73l6.13-6.22c0.98-1,1.58-2.32,1.67-3.71l1.18-17.42        L771.07,434.2z"></path><path fill="#9bd" d="M802.74,437.47c-10.91,0-21.84-1.12-32.62-3.34c-2.93-0.26-5.24-2.74-5.28-5.7        c-0.17-12.97-3.51-17.56-8.57-24.5c-2.48-3.41-5.3-7.28-8.36-12.86l-0.17-0.31c-0.16-0.3-0.32-0.59-0.47-0.89l-0.13-0.25        c-0.14-0.28-0.28-0.55-0.42-0.83c-0.06-0.12-0.12-0.23-0.17-0.35c-0.14-0.3-0.28-0.59-0.42-0.89l-0.09-0.2        c-0.16-0.36-0.32-0.71-0.48-1.07l-0.15-0.34c-0.12-0.27-0.23-0.55-0.34-0.83l-0.13-0.32c-0.14-0.36-0.29-0.73-0.42-1.1        l-0.09-0.26c-0.11-0.3-0.22-0.6-0.32-0.9c-0.04-0.12-0.08-0.24-0.12-0.36c-0.11-0.33-0.23-0.67-0.33-1l-0.05-0.15        c-0.12-0.38-0.24-0.76-0.35-1.15l-0.1-0.34c-0.09-0.3-0.17-0.6-0.25-0.91l-0.08-0.3c-0.1-0.39-0.2-0.78-0.29-1.17l-0.06-0.25        c-0.08-0.32-0.15-0.64-0.22-0.97l-0.07-0.35c-0.08-0.37-0.15-0.74-0.22-1.12l-0.02-0.09c-0.08-0.41-0.15-0.81-0.21-1.22        l-0.05-0.34c-0.05-0.32-0.1-0.65-0.14-0.97l-0.04-0.29c-0.05-0.41-0.1-0.81-0.15-1.22l-0.03-0.26        c-0.04-0.33-0.07-0.67-0.1-1.01l-0.03-0.35c-0.03-0.4-0.06-0.81-0.09-1.22l0-0.03c-0.02-0.43-0.04-0.85-0.06-1.27l-0.01-0.34        c-0.01-0.34-0.02-0.68-0.02-1.02l0-0.29c0-0.42,0-0.84,0.01-1.27l0.01-0.27c0.01-0.35,0.02-0.69,0.03-1.04l0.01-0.35        c0.02-0.43,0.04-0.86,0.07-1.29c0.03-0.47,0.07-0.94,0.11-1.41c0.01-0.09,0.02-0.19,0.03-0.28l0.02-0.16        c0.03-0.32,0.06-0.64,0.1-0.96c0.01-0.12,0.03-0.24,0.05-0.35l0.04-0.33c0.03-0.24,0.06-0.47,0.09-0.71        c0.02-0.14,0.04-0.27,0.06-0.41l0.05-0.31c0.03-0.22,0.07-0.44,0.1-0.66c0.02-0.14,0.05-0.28,0.07-0.42l0.06-0.31        c0.04-0.21,0.08-0.42,0.12-0.64c0.03-0.15,0.06-0.3,0.09-0.45l0.04-0.2c0.05-0.23,0.1-0.47,0.15-0.7        c0.04-0.17,0.08-0.34,0.12-0.51l0.04-0.19c0.05-0.21,0.1-0.43,0.15-0.64c0.04-0.17,0.09-0.34,0.13-0.51l0.03-0.1        c0.06-0.24,0.12-0.48,0.19-0.71c0.06-0.21,0.11-0.41,0.17-0.61c0.07-0.23,0.13-0.47,0.2-0.7c0.06-0.2,0.12-0.41,0.19-0.61        c0.07-0.23,0.14-0.46,0.22-0.69c0.07-0.2,0.13-0.4,0.2-0.6c0.08-0.23,0.15-0.45,0.23-0.68c0.07-0.2,0.14-0.4,0.22-0.6        c0.08-0.22,0.17-0.45,0.25-0.67c0.08-0.2,0.15-0.39,0.23-0.59c0.09-0.22,0.18-0.44,0.27-0.67c0.08-0.2,0.16-0.39,0.24-0.58        c0.09-0.22,0.19-0.44,0.28-0.66c0.08-0.19,0.17-0.38,0.26-0.58c0.1-0.22,0.2-0.43,0.3-0.65c0.09-0.19,0.18-0.38,0.27-0.57        c0.1-0.21,0.21-0.43,0.31-0.64c0.09-0.19,0.19-0.37,0.28-0.56c0.11-0.21,0.22-0.42,0.33-0.63l0.05-0.09        c0.08-0.16,0.16-0.31,0.25-0.46c0.11-0.2,0.22-0.4,0.33-0.6l0.06-0.11c0.08-0.15,0.17-0.3,0.25-0.45        c0.11-0.19,0.22-0.38,0.33-0.57l0.1-0.17c0.08-0.14,0.16-0.27,0.24-0.41c0.11-0.18,0.22-0.36,0.33-0.53l0.13-0.2        c0.08-0.13,0.16-0.26,0.25-0.39c0.11-0.18,0.23-0.36,0.35-0.53l0.15-0.23c0.08-0.12,0.15-0.23,0.23-0.35        c0.12-0.18,0.24-0.35,0.36-0.52l0.17-0.25c0.07-0.11,0.15-0.21,0.22-0.32c0.12-0.17,0.25-0.34,0.37-0.51l0.2-0.27        c0.07-0.09,0.14-0.19,0.21-0.28c0.16-0.21,0.32-0.42,0.48-0.63l0.16-0.21c0.05-0.07,0.11-0.14,0.16-0.21        c0.27-0.35,0.54-0.69,0.82-1.03c0.04-0.05,0.09-0.1,0.13-0.15l0.08-0.09c0.21-0.25,0.42-0.51,0.64-0.77        c0.07-0.08,0.15-0.17,0.22-0.25l0.23-0.26c0.14-0.16,0.28-0.32,0.42-0.48c0.09-0.1,0.17-0.19,0.26-0.28l0.23-0.25        c0.13-0.14,0.26-0.29,0.4-0.43c0.1-0.1,0.19-0.2,0.29-0.3l0.21-0.22c0.14-0.14,0.28-0.29,0.42-0.43        c0.11-0.11,0.22-0.22,0.33-0.33l0.19-0.18c0.14-0.14,0.28-0.28,0.42-0.41c0.12-0.11,0.23-0.22,0.35-0.33l0.16-0.15        c0.15-0.14,0.3-0.28,0.45-0.42c0.12-0.11,0.24-0.22,0.36-0.33l0.15-0.13c0.16-0.14,0.31-0.28,0.47-0.42        c0.14-0.13,0.29-0.25,0.43-0.37l0.05-0.04c0.17-0.15,0.35-0.3,0.52-0.45c0.15-0.12,0.3-0.25,0.45-0.37l0.04-0.03        c0.18-0.15,0.35-0.29,0.53-0.43c0.16-0.13,0.33-0.26,0.5-0.39c0.18-0.14,0.36-0.28,0.54-0.42c0.17-0.13,0.34-0.25,0.51-0.38        c0.18-0.14,0.36-0.27,0.55-0.4c0.17-0.13,0.35-0.25,0.52-0.37c0.18-0.13,0.37-0.26,0.56-0.39c0.17-0.12,0.35-0.24,0.53-0.36        c0.19-0.13,0.38-0.25,0.57-0.38c0.18-0.12,0.36-0.23,0.54-0.35c0.19-0.12,0.38-0.24,0.57-0.36c0.18-0.11,0.36-0.22,0.54-0.34        c0.19-0.12,0.39-0.23,0.58-0.35c0.18-0.11,0.37-0.22,0.55-0.32c0.2-0.11,0.39-0.22,0.59-0.34c0.19-0.1,0.37-0.21,0.56-0.31        c0.19-0.1,0.38-0.21,0.58-0.31l0.05-0.03c0.18-0.1,0.36-0.19,0.54-0.28c0.19-0.1,0.38-0.19,0.57-0.29l0.16-0.08        c0.15-0.08,0.31-0.15,0.46-0.23c0.17-0.08,0.34-0.16,0.52-0.25l0.24-0.11c0.15-0.07,0.3-0.14,0.45-0.21        c0.17-0.08,0.34-0.15,0.51-0.23l0.28-0.12c0.14-0.06,0.28-0.13,0.42-0.19c0.17-0.07,0.34-0.14,0.52-0.22l0.29-0.12        c0.14-0.06,0.28-0.12,0.43-0.17c0.17-0.07,0.35-0.14,0.52-0.2l0.31-0.12c0.14-0.05,0.27-0.11,0.41-0.16        c0.17-0.07,0.35-0.13,0.53-0.19l0.35-0.13c0.12-0.04,0.25-0.09,0.37-0.13c0.21-0.07,0.42-0.14,0.63-0.21l0.33-0.11        c0.1-0.03,0.2-0.07,0.31-0.1c0.42-0.13,0.84-0.26,1.27-0.39c0.11-0.03,0.23-0.06,0.34-0.1l0.33-0.09        c0.21-0.06,0.41-0.12,0.62-0.17c0.13-0.04,0.27-0.07,0.4-0.1l0.37-0.09c0.18-0.05,0.35-0.09,0.53-0.13        c0.14-0.03,0.29-0.07,0.43-0.1l0.36-0.08c0.18-0.04,0.35-0.08,0.53-0.12c0.15-0.03,0.3-0.06,0.45-0.09l0.33-0.07        c0.18-0.04,0.36-0.07,0.55-0.11c0.16-0.03,0.32-0.06,0.48-0.09l0.29-0.05c0.19-0.03,0.38-0.07,0.57-0.1        c0.17-0.03,0.35-0.05,0.52-0.08l0.23-0.03c0.2-0.03,0.4-0.06,0.6-0.09c0.18-0.03,0.37-0.05,0.55-0.07l0.19-0.02        c0.2-0.03,0.41-0.05,0.61-0.07c0.21-0.02,0.41-0.04,0.62-0.07l0.06-0.01c0.23-0.02,0.46-0.05,0.69-0.07        c0.23-0.02,0.45-0.04,0.68-0.06c0.23-0.02,0.46-0.03,0.69-0.05c0.23-0.01,0.46-0.03,0.69-0.04c0.23-0.01,0.46-0.02,0.7-0.03        c0.23-0.01,0.46-0.02,0.69-0.02c0.23-0.01,0.47-0.01,0.7-0.01c0.23,0,0.46,0,0.7-0.01l0.13,0c0.08,0,0.15,0,0.23,0        c0.06,0,0.13,0,0.19,0l0.11,0c0.3,0,0.6,0.01,0.9,0.02c0.21,0.01,0.42,0.01,0.63,0.02c0.29,0.01,0.58,0.02,0.87,0.04        l0.11,0.01c0.18,0.01,0.35,0.02,0.53,0.03l0.23,0.01c0.15,0.01,0.31,0.02,0.46,0.04l0.39,0.03c0.13,0.01,0.27,0.02,0.4,0.03        c0.4,0.04,0.79,0.08,1.18,0.12l0.27,0.03c28.16,3.26,49.42,27.09,49.43,55.44l0,0.28c0,0.38-0.01,0.75-0.02,1.13        c0,0.17-0.01,0.34-0.02,0.51c-0.01,0.31-0.02,0.62-0.04,0.93c-0.01,0.21-0.02,0.42-0.03,0.64l-0.01,0.14        c0,0.08-0.01,0.15-0.01,0.23c-0.01,0.1-0.02,0.2-0.02,0.3l-0.01,0.17c-0.02,0.22-0.03,0.44-0.05,0.66        c-0.03,0.29-0.05,0.58-0.09,0.87l-0.02,0.15c-0.02,0.16-0.03,0.31-0.05,0.47c-0.04,0.32-0.08,0.65-0.12,0.97l-0.02,0.15        c-0.01,0.08-0.02,0.17-0.03,0.25l-0.07,0.46c-0.05,0.37-0.11,0.73-0.17,1.09l-0.03,0.16c-0.07,0.4-0.14,0.79-0.22,1.19        l-0.06,0.32c-0.08,0.39-0.16,0.77-0.24,1.16l-0.06,0.25c-0.08,0.34-0.16,0.67-0.24,1.01l-0.06,0.26        c-0.09,0.38-0.19,0.75-0.3,1.13l-0.09,0.31c-0.1,0.37-0.21,0.75-0.32,1.12l-0.04,0.15c-0.11,0.35-0.22,0.69-0.33,1.04        l-0.1,0.3c-0.12,0.36-0.24,0.72-0.37,1.08l-0.1,0.28c-0.11,0.32-0.23,0.63-0.35,0.95l-0.08,0.21        c-0.14,0.36-0.28,0.71-0.43,1.06l-0.13,0.31c-0.15,0.35-0.3,0.7-0.45,1.05l-0.1,0.22c-0.13,0.3-0.27,0.6-0.41,0.9l-0.13,0.28        c-0.16,0.34-0.32,0.67-0.49,1l-0.14,0.28c-0.17,0.32-0.32,0.63-0.48,0.92l-0.11,0.21c-0.17,0.32-0.34,0.63-0.52,0.94        l-0.17,0.3c-0.18,0.32-0.37,0.64-0.56,0.95l-0.16,0.26c-0.16,0.27-0.33,0.53-0.49,0.79l-0.16,0.26        c-0.2,0.31-0.39,0.61-0.59,0.91l-0.2,0.3c-0.2,0.3-0.4,0.6-0.61,0.89l-0.19,0.27c-0.1,0.15-0.21,0.29-0.31,0.43l-0.36,0.49        c-3.8,5.17-7.16,8.65-10.13,11.72c-5.99,6.2-9.95,10.29-11.86,23.04c-0.44,2.92-3.06,5.07-6,4.93        C810.14,437.34,806.44,437.47,802.74,437.47z M797.06,311.51c-0.05,0-0.1,0-0.15,0l-0.17,0c-0.22,0-0.44,0-0.66,0        c-0.22,0-0.44,0.01-0.66,0.01c-0.22,0.01-0.43,0.01-0.65,0.02c-0.22,0.01-0.44,0.02-0.66,0.03c-0.21,0.01-0.43,0.02-0.65,0.04        c-0.22,0.01-0.43,0.03-0.65,0.05c-0.21,0.02-0.43,0.03-0.64,0.05c-0.22,0.02-0.43,0.04-0.65,0.06l-0.06,0.01        c-0.19,0.02-0.39,0.04-0.58,0.06c-0.19,0.02-0.38,0.05-0.57,0.07l-0.19,0.02c-0.17,0.02-0.34,0.04-0.51,0.07        c-0.18,0.03-0.37,0.05-0.55,0.08l-0.23,0.04c-0.16,0.02-0.32,0.05-0.48,0.07c-0.18,0.03-0.35,0.06-0.52,0.09l-0.29,0.05        c-0.15,0.03-0.29,0.05-0.44,0.08c-0.17,0.03-0.33,0.07-0.5,0.1l-0.34,0.07c-0.14,0.03-0.27,0.05-0.41,0.08        c-0.16,0.03-0.32,0.07-0.48,0.11l-0.37,0.08c-0.13,0.03-0.26,0.06-0.38,0.09c-0.16,0.04-0.32,0.08-0.49,0.12l-0.39,0.1        c-0.12,0.03-0.23,0.06-0.35,0.09c-0.19,0.05-0.38,0.1-0.57,0.16l-0.36,0.1c-0.1,0.03-0.2,0.05-0.29,0.08        c-0.4,0.12-0.8,0.24-1.19,0.36c-0.09,0.03-0.17,0.06-0.26,0.08l-0.36,0.12c-0.19,0.06-0.39,0.13-0.58,0.19        c-0.11,0.04-0.22,0.08-0.33,0.12l-0.37,0.13c-0.16,0.06-0.32,0.11-0.48,0.17c-0.12,0.05-0.24,0.09-0.36,0.14l-0.33,0.13        c-0.16,0.06-0.32,0.12-0.48,0.19c-0.13,0.05-0.26,0.1-0.38,0.16l-0.3,0.12c-0.16,0.07-0.32,0.13-0.48,0.2        c-0.13,0.06-0.26,0.11-0.38,0.17l-0.28,0.13c-0.16,0.07-0.32,0.14-0.47,0.21c-0.14,0.06-0.27,0.13-0.41,0.19l-0.24,0.11        c-0.16,0.08-0.32,0.15-0.48,0.23c-0.14,0.07-0.28,0.14-0.42,0.21l-0.16,0.08c-0.18,0.09-0.36,0.18-0.53,0.27        c-0.17,0.09-0.34,0.18-0.51,0.27l-0.05,0.03c-0.18,0.1-0.36,0.19-0.54,0.29c-0.18,0.1-0.35,0.19-0.53,0.29        c-0.19,0.1-0.37,0.21-0.56,0.32c-0.17,0.1-0.35,0.2-0.52,0.3c-0.18,0.11-0.37,0.22-0.55,0.33c-0.17,0.1-0.34,0.21-0.51,0.32        c-0.18,0.11-0.36,0.23-0.54,0.34c-0.17,0.11-0.34,0.22-0.51,0.33c-0.18,0.12-0.36,0.23-0.53,0.35        c-0.17,0.11-0.33,0.23-0.5,0.34c-0.18,0.12-0.35,0.24-0.52,0.37c-0.16,0.12-0.33,0.23-0.49,0.35        c-0.17,0.13-0.34,0.25-0.52,0.38c-0.16,0.12-0.32,0.24-0.48,0.36c-0.17,0.13-0.34,0.26-0.51,0.39        c-0.16,0.12-0.31,0.25-0.47,0.37c-0.17,0.13-0.34,0.27-0.5,0.41l-0.03,0.03c-0.14,0.12-0.28,0.23-0.42,0.35        c-0.17,0.14-0.33,0.28-0.49,0.42l-0.05,0.04c-0.13,0.11-0.27,0.23-0.4,0.34c-0.15,0.13-0.29,0.26-0.44,0.39l-0.15,0.13        c-0.11,0.1-0.22,0.2-0.33,0.3c-0.14,0.13-0.28,0.26-0.42,0.39l-0.16,0.15c-0.11,0.1-0.21,0.2-0.32,0.3        c-0.13,0.13-0.26,0.26-0.39,0.38l-0.19,0.19c-0.1,0.1-0.2,0.2-0.3,0.3c-0.13,0.13-0.26,0.26-0.39,0.4l-0.22,0.23        c-0.09,0.09-0.17,0.18-0.26,0.27c-0.12,0.13-0.24,0.26-0.36,0.39l-0.24,0.27c-0.08,0.08-0.15,0.17-0.23,0.25        c-0.13,0.15-0.26,0.3-0.39,0.44l-0.24,0.28c-0.06,0.07-0.13,0.14-0.19,0.21c-0.2,0.24-0.4,0.48-0.6,0.72l-0.19,0.23        c-0.26,0.32-0.52,0.64-0.77,0.97c-0.05,0.06-0.09,0.12-0.13,0.18l-0.17,0.23c-0.15,0.19-0.3,0.39-0.45,0.59        c-0.06,0.08-0.12,0.16-0.18,0.25l-0.21,0.29c-0.11,0.16-0.23,0.31-0.34,0.47c-0.07,0.1-0.13,0.19-0.2,0.28l-0.18,0.26        c-0.11,0.16-0.22,0.32-0.33,0.48c-0.07,0.1-0.14,0.21-0.2,0.31l-0.16,0.24c-0.11,0.16-0.22,0.33-0.32,0.49        c-0.08,0.12-0.15,0.24-0.22,0.36l-0.13,0.21c-0.1,0.16-0.21,0.33-0.31,0.5c-0.07,0.12-0.15,0.25-0.22,0.37l-0.1,0.17        c-0.1,0.18-0.21,0.35-0.31,0.53c-0.08,0.14-0.16,0.28-0.23,0.42l-0.05,0.09c-0.12,0.21-0.22,0.4-0.32,0.59        c-0.08,0.14-0.15,0.29-0.23,0.43l-0.05,0.09c-0.1,0.2-0.21,0.39-0.31,0.59c-0.09,0.18-0.18,0.35-0.26,0.53        c-0.1,0.2-0.2,0.4-0.29,0.6c-0.09,0.18-0.17,0.36-0.25,0.53c-0.09,0.2-0.19,0.41-0.28,0.61c-0.08,0.18-0.16,0.36-0.24,0.54        c-0.09,0.21-0.18,0.41-0.26,0.62c-0.08,0.18-0.15,0.37-0.23,0.55c-0.08,0.21-0.17,0.42-0.25,0.62        c-0.07,0.18-0.14,0.37-0.22,0.56c-0.08,0.21-0.16,0.42-0.24,0.63c-0.07,0.19-0.14,0.38-0.2,0.56        c-0.08,0.21-0.15,0.43-0.22,0.64c-0.06,0.19-0.13,0.38-0.19,0.57c-0.07,0.21-0.14,0.43-0.21,0.65        c-0.06,0.19-0.12,0.38-0.17,0.57c-0.07,0.22-0.13,0.44-0.19,0.66c-0.05,0.19-0.11,0.38-0.16,0.58        c-0.06,0.22-0.12,0.45-0.18,0.67l-0.03,0.1c-0.04,0.16-0.08,0.32-0.12,0.48c-0.05,0.2-0.09,0.4-0.14,0.6l-0.04,0.19        c-0.04,0.16-0.07,0.31-0.11,0.47c-0.05,0.22-0.09,0.43-0.14,0.65l-0.04,0.21c-0.03,0.14-0.06,0.27-0.08,0.41        c-0.04,0.19-0.07,0.39-0.11,0.59l-0.06,0.32c-0.02,0.13-0.05,0.25-0.07,0.38c-0.03,0.2-0.07,0.41-0.1,0.61l-0.05,0.33        c-0.02,0.12-0.04,0.24-0.06,0.36c-0.03,0.22-0.06,0.44-0.09,0.66l-0.05,0.35c-0.01,0.1-0.03,0.2-0.04,0.3        c-0.03,0.3-0.06,0.6-0.09,0.9l-0.02,0.19c-0.01,0.08-0.02,0.15-0.02,0.23c-0.04,0.44-0.08,0.88-0.11,1.33        c-0.03,0.41-0.05,0.81-0.07,1.21l-0.01,0.33c-0.01,0.32-0.02,0.65-0.03,0.98l-0.01,0.26c-0.01,0.4-0.01,0.8,0,1.19l0,0.27        c0,0.32,0.01,0.64,0.02,0.96l0.01,0.32c0.01,0.4,0.03,0.79,0.05,1.19l0,0.03c0.02,0.39,0.05,0.77,0.08,1.15l0.03,0.32        c0.03,0.32,0.06,0.64,0.09,0.96l0.03,0.24c0.04,0.39,0.09,0.77,0.14,1.15l0.04,0.28c0.04,0.3,0.09,0.61,0.13,0.91l0.05,0.32        c0.06,0.38,0.13,0.76,0.2,1.14l0.02,0.08c0.07,0.36,0.14,0.71,0.21,1.05l0.07,0.33c0.07,0.3,0.13,0.61,0.2,0.91l0.06,0.24        c0.09,0.37,0.18,0.74,0.28,1.1l0.08,0.28c0.08,0.29,0.16,0.57,0.24,0.85l0.09,0.32c0.11,0.36,0.22,0.72,0.33,1.08l0.05,0.14        c0.1,0.31,0.2,0.63,0.31,0.94l0.12,0.33c0.1,0.28,0.2,0.56,0.3,0.85l0.09,0.24c0.13,0.35,0.26,0.69,0.4,1.03l0.12,0.3        c0.11,0.26,0.21,0.52,0.32,0.78l0.14,0.32c0.15,0.34,0.29,0.67,0.45,1l0.09,0.19c0.13,0.28,0.26,0.56,0.4,0.84        c0.05,0.11,0.11,0.22,0.16,0.33c0.13,0.26,0.26,0.52,0.39,0.78l0.12,0.24c0.15,0.28,0.29,0.56,0.45,0.84l0.16,0.29        c2.96,5.4,5.71,9.17,8.14,12.51c5.23,7.18,9.01,12.37,9.2,26.39c0.02,1.29,1.04,2.37,2.33,2.46l0.11,0.01l0.11,0.02        c14.21,2.94,28.69,3.92,43.02,2.91l0.11-0.01l0.11,0.01c1.29,0.09,2.45-0.85,2.64-2.12c2.06-13.8,6.54-18.43,12.75-24.85        c2.9-2.99,6.18-6.39,9.85-11.38l0.34-0.46c0.1-0.13,0.19-0.27,0.29-0.41l0.18-0.25c0.19-0.27,0.38-0.55,0.57-0.84l0.19-0.28        c0.19-0.28,0.38-0.57,0.56-0.86l0.15-0.24c0.16-0.25,0.31-0.5,0.46-0.75l0.15-0.25c0.18-0.3,0.35-0.59,0.52-0.89l0.16-0.29        c0.17-0.29,0.33-0.59,0.49-0.89l0.1-0.19c0.15-0.28,0.3-0.57,0.44-0.85l0.14-0.28c0.16-0.31,0.31-0.63,0.46-0.94l0.12-0.26        c0.13-0.28,0.26-0.56,0.39-0.85l0.09-0.2c0.15-0.33,0.29-0.66,0.42-0.99l0.12-0.29c0.14-0.33,0.27-0.66,0.4-1l0.08-0.21        c0.11-0.29,0.22-0.59,0.33-0.89l0.1-0.27c0.12-0.34,0.24-0.68,0.35-1.02l0.09-0.28c0.11-0.32,0.21-0.65,0.31-0.98l0.04-0.14        c0.11-0.35,0.21-0.7,0.3-1.05l0.08-0.29c0.1-0.35,0.19-0.7,0.28-1.06l0.06-0.25c0.08-0.31,0.15-0.63,0.22-0.95l0.05-0.23        c0.08-0.36,0.16-0.73,0.23-1.09l0.06-0.3c0.07-0.37,0.14-0.74,0.2-1.11l0.02-0.15c0.06-0.34,0.11-0.68,0.16-1.03l0.06-0.44        c0.01-0.07,0.02-0.13,0.02-0.19l0.02-0.19c0.04-0.3,0.08-0.61,0.11-0.91c0.02-0.14,0.03-0.29,0.05-0.43l0.02-0.15        c0.03-0.27,0.06-0.55,0.08-0.82c0.02-0.21,0.03-0.42,0.05-0.62l0.02-0.2c0.01-0.08,0.01-0.16,0.02-0.25        c0-0.06,0.01-0.11,0.01-0.17l0.01-0.18c0.01-0.2,0.02-0.4,0.03-0.6c0.01-0.29,0.03-0.58,0.04-0.87        c0.01-0.16,0.01-0.32,0.01-0.48c0.01-0.36,0.01-0.71,0.01-1.07l0-0.26c-0.02-26.67-20.01-49.1-46.52-52.17l-0.25-0.03        c-0.37-0.04-0.74-0.08-1.11-0.11c-0.12-0.01-0.24-0.02-0.36-0.03l-0.42-0.03c-0.13-0.01-0.27-0.02-0.4-0.03l-0.21-0.01        c-0.16-0.01-0.33-0.02-0.49-0.03l-0.11-0.01c-0.27-0.01-0.55-0.03-0.82-0.04c-0.2-0.01-0.4-0.01-0.59-0.02        c-0.28-0.01-0.56-0.01-0.85-0.02l-0.28-0.01C797.07,311.51,797.06,311.51,797.06,311.51z"></path><path fill="#9bd" d="M801.27,436.05l-3.29-0.23c0.01-0.13,0.93-13.4,2.92-27.39c1.17-8.25,2.47-15.14,3.88-20.48        c0.07-0.27,0.14-0.53,0.21-0.79c-3.69,0.17-8.28-0.13-13.97-1.14c-1.48-0.26-2.86-0.55-4.14-0.86        c0.36,2.25,0.55,4.73,0.58,7.42c0.39,35.3-0.22,42.34-0.24,42.62l-3.28-0.3c0.01-0.07,0.61-7.34,0.23-42.28        c-0.04-3.3-0.34-6.09-0.82-8.44c-8.86-2.81-11.88-6.77-11.51-9.93c0.26-2.22,2.24-3.74,4.73-3.61        c2.71,0.14,5.37,2.09,7.3,5.35c0.94,1.59,1.7,3.45,2.27,5.57c1.61,0.44,3.43,0.86,5.48,1.23c5.91,1.06,10.66,1.31,14.39,1.02        c1.51-4.63,3.14-7.64,4.94-9.15c3.03-2.54,5.84-2.15,7.46-0.94c1.93,1.44,2.51,4.09,1.43,6.57        c-0.68,1.57-3.16,5.36-11.32,6.56c-1.38,4.78-2.88,11.78-4.33,22.05C802.2,422.75,801.28,435.92,801.27,436.05z         M815.49,376.04c-0.71,0-1.58,0.38-2.45,1.12c-0.84,0.7-2.03,2.34-3.4,6.12c4.11-0.87,6.38-2.54,7.15-4.33        c0.53-1.22,0.19-2.19-0.38-2.62C816.16,376.14,815.84,376.04,815.49,376.04z M776.26,373.9c-0.52,0-1.1,0.18-1.16,0.7        c-0.13,1.16,1.66,3.55,7.14,5.67c-1.65-4.39-4.03-6.27-5.86-6.37C776.34,373.9,776.3,373.9,776.26,373.9z"></path><rect width="3.3" height="45.73" x="790" y="418.87" fill="#9bd" transform="rotate(-79.007 791.613 441.714)"></rect><rect width="3.3" height="45.73" x="789.68" y="423.53" fill="#9bd" transform="rotate(-79.007 791.298 446.375)"></rect><rect width="3.3" height="45.73" x="789.37" y="428.2" fill="#9bd" transform="rotate(-79.007 790.985 451.037)"></rect><rect width="3.3" height="43.58" x="787.99" y="433.73" fill="#9bd" transform="rotate(-79.007 789.612 455.495)"></rect><rect width="3.3" height="17.49" x="867.51" y="360.26" fill="#9bd" transform="rotate(-86.13 869.19 369.012)"></rect><g><rect width="17.49" height="3.3" x="853.18" y="330.57" fill="#9bd" transform="rotate(-26.13 861.957 332.226)"></rect></g><g><rect width="17.49" height="3.3" x="828.51" y="302.33" fill="#9bd" transform="rotate(-56.131 837.246 303.989)"></rect></g><g><rect width="17.49" height="3.3" x="793.03" y="290.2" fill="#9bd" transform="rotate(-86.135 801.78 291.868)"></rect></g><g><rect width="3.3" height="17.49" x="763.34" y="290.35" fill="#9bd" transform="rotate(-26.13 765.074 299.106)"></rect></g><g><rect width="3.3" height="17.49" x="735.1" y="315.01" fill="#9bd" transform="rotate(-56.131 736.773 323.76)"></rect></g><g><rect width="3.3" height="17.49" x="722.98" y="350.49" fill="#9bd" transform="rotate(-86.13 724.648 359.239)"></rect></g><g><path fill="#9bd" d="M691.71,316.97c-5.41,0-9.81-4.4-9.81-9.8s4.4-9.8,9.81-9.8c5.41,0,9.8,4.4,9.8,9.8     S697.11,316.97,691.71,316.97z M691.71,300.65c-3.59,0-6.51,2.92-6.51,6.51c0,3.59,2.92,6.51,6.51,6.51s6.51-2.92,6.51-6.51     C698.21,303.57,695.3,300.65,691.71,300.65z"></path></g><g><path fill="#9bd" d="M291.05,456.51c-5.41,0-9.8-4.4-9.8-9.8c0-5.41,4.4-9.8,9.8-9.8c5.41,0,9.81,4.4,9.81,9.8     C300.86,452.11,296.46,456.51,291.05,456.51z M291.05,440.19c-3.59,0-6.51,2.92-6.51,6.51c0,3.59,2.92,6.51,6.51,6.51     c3.59,0,6.51-2.92,6.51-6.51C297.56,443.11,294.64,440.19,291.05,440.19z"></path></g><g><path fill="#9bd" d="M500.12,304.47c-4.27,0-7.75-3.48-7.75-7.75c0-4.27,3.48-7.75,7.75-7.75c4.27,0,7.75,3.48,7.75,7.75     C507.87,300.99,504.4,304.47,500.12,304.47z M500.12,292.26c-2.46,0-4.45,2-4.45,4.45c0,2.46,2,4.45,4.45,4.45     c2.46,0,4.45-2,4.45-4.45C504.58,294.26,502.58,292.26,500.12,292.26z"></path></g><g><path fill="#9bd" d="M791.33,530.92c-5.41,0-9.8-4.4-9.8-9.8c0-5.41,4.4-9.81,9.8-9.81c5.41,0,9.81,4.4,9.81,9.81     C801.13,526.53,796.74,530.92,791.33,530.92z M791.33,514.61c-3.59,0-6.51,2.92-6.51,6.51c0,3.59,2.92,6.51,6.51,6.51     c3.59,0,6.51-2.92,6.51-6.51C797.84,517.53,794.92,514.61,791.33,514.61z"></path></g><g><path fill="#9bd" d="M657.85,279.3c-1.38-7.74-5.7-14.48-12.15-18.98c-6.45-4.5-14.27-6.21-22.01-4.83l-0.58-3.25       c8.61-1.54,17.3,0.37,24.48,5.37c7.17,5,11.97,12.5,13.51,21.11L657.85,279.3z"></path><path fill="#9bd" d="M647.94 281.99c-.94-5.29-3.89-9.89-8.3-12.97-4.41-3.07-9.75-4.24-15.04-3.3l-.58-3.25c6.16-1.1 12.37.27 17.5 3.84 5.13 3.58 8.56 8.94 9.66 15.09L647.94 281.99zM638.03 284.67c-1.05-5.86-6.66-9.77-12.52-8.72l-.58-3.25c7.65-1.36 14.98 3.75 16.34 11.39L638.03 284.67z"></path><g><path fill="#9bd" d="M632.01,287.12c-1.29,1.85-3.84,2.31-5.7,1.02c-1.85-1.29-2.31-3.84-1.02-5.7c1.29-1.85,3.84-2.31,5.7-1.02      C632.85,282.71,633.3,285.27,632.01,287.12z"></path></g></g><g><path fill="#9bd" d="M332.14,739.25l-2.2-2.46c0.14-0.13,14.3-12.91,26.11-33.96c10.68-19.03,21.55-48.88,13.3-83.65      c-5.03,1.71-20.94,7.93-36,22.39c-16.66,16-35.66,45.7-31.58,96.32l-3.29,0.27c-1.85-22.93,0.75-43.64,7.73-61.57      c5.59-14.38,14-27,24.97-37.51c18.69-17.89,38.09-23.37,38.91-23.59l1.62-0.44l0.41,1.63c4.11,16.17,4.56,32.68,1.33,49.08      c-2.57,13.1-7.48,26.15-14.59,38.79C346.79,726.04,332.73,738.72,332.14,739.25z"></path><path fill="#9bd" d="M318.33,738.43l-3.19-0.82c0.04-0.16,4.26-16.39,11.78-37.23c6.95-19.26,18.24-46.53,32.54-67.08l2.71,1.88      c-14.08,20.24-25.24,47.22-32.13,66.28C322.55,722.17,318.37,738.27,318.33,738.43z"></path><rect width="3.3" height="22.13" x="314.37" y="703.52" fill="#9bd" transform="rotate(-24.248 315.971 714.505)"></rect><rect width="23.85" height="3.3" x="324.94" y="700.43" fill="#9bd" transform="rotate(-26.453 336.883 702.058)"></rect><rect width="3.3" height="21.95" x="328.05" y="667" fill="#9bd" transform="rotate(-18.648 329.667 677.874)"></rect><rect width="21.55" height="3.3" x="340.68" y="660.56" fill="#9bd" transform="rotate(-29.877 351.379 662.158)"></rect><rect width="3.3" height="16.89" x="343.18" y="640.08" fill="#9bd" transform="rotate(-18.73 344.89 648.618)"></rect><rect width="3.3" height="64.14" x="241.52" y="687.98" fill="#9bd" transform="rotate(-55.917 243.181 720.086)"></rect><path fill="#9bd" d="M268.27,738.8c-0.1-0.19-10.27-19.3-17.42-48.47c-4.2-17.12-6.57-34.33-7.03-51.15      c-0.58-21.04,1.82-41.51,7.15-60.85l0.55-2.01l1.83,1c0.49,0.27,12.12,6.71,25.68,20.61c7.95,8.16,14.9,17.19,20.64,26.86      c7.18,12.09,12.5,25.2,15.81,38.96l-3.21,0.77c-7.3-30.4-23.34-51.69-35.52-64.2c-10.16-10.43-19.39-16.67-23.17-19.02      c-11.13,42.29-5.95,82.06,0.44,108.15c7.05,28.79,17.05,47.61,17.15,47.79L268.27,738.8z"></path><path fill="#9bd" d="M295.67,738.12c-0.01-0.18-1.09-18-5.98-44.05c-4.51-24.02-13.27-60.14-29.41-95.84l3-1.36      c16.28,36.02,25.11,72.44,29.65,96.65c4.92,26.24,6.01,44.23,6.02,44.4L295.67,738.12z"></path><rect width="3.3" height="17.61" x="263.71" y="608.26" fill="#9bd" transform="rotate(-49.421 265.386 617.09)"></rect><rect width="20.19" height="3.3" x="267.7" y="622.66" fill="#9bd" transform="rotate(-79.991 277.775 624.287)"></rect><rect width="3.3" height="22.74" x="270.06" y="635.58" fill="#9bd" transform="rotate(-60.824 271.722 646.979)"></rect><rect width="27.31" height="3.3" x="275.11" y="649.68" fill="#9bd" transform="rotate(-73.261 288.793 651.359)"></rect><rect width="3.3" height="26.74" x="275.64" y="663.84" fill="#9bd" transform="rotate(-63.115 277.272 677.212)"></rect><rect width="28.95" height="3.3" x="282.73" y="679.4" fill="#9bd" transform="rotate(-66.396 297.216 681.08)"></rect><rect width="3.3" height="26.28" x="281.71" y="697.42" fill="#9bd" transform="rotate(-62.518 283.345 710.518)"></rect><rect width="8.86" height="3.3" x="293.46" y="719" fill="#9bd" transform="rotate(-65.347 297.901 720.684)"></rect><path fill="#9bd" d="M240.43,739.54c-10.25-4.37-19.1-9.87-26.29-16.35c-5.78-5.21-10.51-11.05-14.05-17.37      c-6.08-10.83-6.58-19.24-6.59-19.6l-0.09-1.7l1.71-0.03c22.56-0.4,38.89,6.39,48.62,12.16c10.59,6.28,15.77,12.61,15.99,12.88      l-2.56,2.07c-0.05-0.06-5.11-6.22-15.25-12.2c-9.07-5.35-24.14-11.63-44.9-11.63c0,0-0.01,0-0.01,0      c0.46,2.9,1.87,9.19,6.06,16.61c5.32,9.41,16.35,22.62,38.66,32.13L240.43,739.54z"></path><rect width="3.3" height="17.22" x="225.77" y="695.81" fill="#9bd" transform="rotate(-27.295 227.407 704.38)"></rect><rect width="3.3" height="17.98" x="230.8" y="709.35" fill="#9bd" transform="rotate(-86.612 232.44 718.308)"></rect><rect width="3.3" height="16.3" x="247.04" y="710.01" fill="#9bd" transform="rotate(-21.061 248.722 718.157)"></rect><rect width="13.33" height="3.3" x="245.55" y="730.54" fill="#9bd" transform="rotate(-14.3 252.119 732.094)"></rect></g><g><rect width="23.91" height="3.3" x="750.34" y="697.03" fill="#9bd" transform="rotate(-46.812 762.352 698.703)"></rect><rect width="3.3" height="24.85" x="743.08" y="705.34" fill="#9bd" transform="rotate(-43.217 744.693 717.729)"></rect><rect width="15.16" height="3.3" x="754.57" y="730.11" fill="#9bd" transform="rotate(-40.718 762.17 731.79)"></rect><rect width="3.3" height="19.84" x="696.36" y="686.36" fill="#9bd" transform="rotate(-76.049 697.976 696.281)"></rect><rect width="21.04" height="3.3" x="704.58" y="698.74" fill="#9bd" transform="rotate(-82.38 715.051 700.366)"></rect><rect width="3.3" height="17.12" x="709.14" y="711.72" fill="#9bd" transform="rotate(-72.884 710.78 720.29)"></rect><rect width="11.28" height="3.3" x="718.5" y="724.72" fill="#9bd" transform="rotate(-73.053 724.065 726.34)"></rect><rect width="21.87" height="3.3" x="791.45" y="689.27" fill="#9bd" transform="rotate(-15.783 802.39 690.911)"></rect><path fill="#9bd" d="M727.23,737.16c-0.23-0.82-5.74-20.34-4.7-49.01c0.61-16.83,3.37-33.28,8.22-48.9       c6.06-19.53,15.4-37.81,27.77-54.32l1.32-1.76l1.32,1.76c0.39,0.53,9.72,13.17,16.15,38.36c3.76,14.74,5.73,30.73,5.85,47.53       c0.15,20.97-2.59,43.27-8.15,66.28l-3.2-0.77c12.41-51.37,8.13-89.27,2.36-112.01c-4.88-19.24-11.63-31.17-14.4-35.53       c-26.35,36.15-33.02,73.95-33.95,99.49c-1.02,28.14,4.52,47.78,4.57,47.98L727.23,737.16z"></path><rect width="112.8" height="3.3" x="698.94" y="678.72" fill="#9bd" transform="rotate(-87.404 755.33 680.346)"></rect><rect width="3.3" height="18.83" x="749.19" y="639.98" fill="#9bd" transform="rotate(-36.254 750.852 649.37)"></rect><rect width="21.92" height="3.3" x="752.48" y="661.16" fill="#9bd" transform="rotate(-50.051 763.44 662.83)"></rect><rect width="3.3" height="22.62" x="745.26" y="674.98" fill="#9bd" transform="rotate(-43.513 746.92 686.299)"></rect><path fill="#9bd" d="M710.63,738c-0.44-0.35-10.91-8.63-20.87-23.52c-5.86-8.75-10.3-17.98-13.21-27.41       c-3.64-11.81-4.88-23.97-3.67-36.16l0.18-1.78l1.76,0.32c0.33,0.06,8.11,1.5,18.3,6.65c9.4,4.75,22.67,13.68,32.54,29.3       l-2.79,1.76c-9.47-14.98-22.21-23.56-31.24-28.12c-6.98-3.53-12.83-5.25-15.63-5.95c-2.01,25.71,7.77,46.46,16.44,59.45       c9.67,14.49,20.12,22.77,20.23,22.85L710.63,738z"></path><path fill="#9bd" d="M722.69,737.23c-0.15-0.44-15.03-44.74-37.76-68.5l2.38-2.28c12.17,12.72,22,31.02,28.09,44.12       c6.59,14.16,10.37,25.51,10.41,25.62L722.69,737.23z"></path><rect width="3.3" height="13.62" x="686.73" y="669.13" fill="#9bd" transform="rotate(-71.675 688.347 675.928)"></rect><rect width="3.3" height="16.41" x="698.15" y="669.9" fill="#9bd" transform="rotate(-4.405 699.442 677.786)"></rect><path fill="#9bd" d="M795.53,738.14l-1.63-2.87l0.82,1.43l-0.82-1.43c0.1-0.06,9.89-5.81,19.09-21.83       c8.39-14.62,17.97-40.96,16.37-83.78c-3.1,0.85-9.72,3.01-17.15,7.66c-9.41,5.89-22.1,17.09-29.13,37.03l-3.11-1.1       c7.37-20.9,20.72-32.64,30.62-38.8c10.75-6.69,19.66-8.41,20.04-8.48l1.86-0.35l0.09,1.89c0.89,19.83-0.47,37.97-4.06,53.9       c-2.88,12.79-7.19,24.21-12.81,33.93C806.05,732.02,795.96,737.9,795.53,738.14z"></path><path fill="#9bd" d="M783.15,736.9l-3.27-0.38c0.02-0.15,1.77-14.81,7.31-33.47c5.13-17.26,14.64-41.59,30.88-59.49l2.44,2.21       c-15.81,17.43-25.12,41.24-30.14,58.15C784.89,722.32,783.17,736.75,783.15,736.9z"></path><rect width="14.86" height="3.3" x="798.76" y="653.73" fill="#9bd" transform="rotate(-88.797 806.223 655.36)"></rect><rect width="18.78" height="3.3" x="800.96" y="666.66" fill="#9bd" transform="rotate(-18.024 810.218 668.234)"></rect><rect width="3.3" height="18.9" x="792.86" y="665.35" fill="#9bd" transform="rotate(-6.085 794.364 674.68)"></rect><rect width="3.3" height="18.18" x="784.16" y="685.79" fill="#9bd" transform="rotate(-19.044 785.891 694.92)"></rect><g><rect width="24.15" height="3.3" x="785.22" y="709.47" fill="#9bd" transform="rotate(-17.982 797.435 711.223)"></rect></g><g><rect width="3.3" height="11.15" x="778.73" y="715.99" fill="#9bd" transform="rotate(-30.424 780.396 721.57)"></rect></g></g><g><path fill="#576c89" d="M834.85,748.27H210.16l0,0c0-7.36,5.97-13.33,13.33-13.33h598.04C828.88,734.95,834.85,740.91,834.85,748.27     L834.85,748.27z"></path></g><g><path fill="#86b1f2" d="M365.04,329.77h385.31c19.64,0,35.56,15.92,35.56,35.58v240.04c0,19.64-15.92,35.58-35.56,35.58H626.02     h-11.58h-90.92H365.04c-19.64,0-35.56-15.94-35.56-35.58V365.34C329.48,345.69,345.4,329.77,365.04,329.77z M365.06,600.31     h385.29c13.68,0,24.8-11.14,24.8-24.82V365.34c0-13.68-11.12-24.82-24.8-24.82H365.06c-13.68,0-24.82,11.14-24.82,24.82v210.15     C340.24,589.17,351.37,600.31,365.06,600.31z"></path><path fill="#efefef" d="M775.14,365.34v210.14c0,9.92-5.83,18.49-14.25,22.45c-3.21,1.52-6.78,2.37-10.55,2.37H365.05     c-13.68,0-24.82-11.14-24.82-24.82V365.34c0-12.32,9.03-22.58,20.82-24.5c1.31-0.21,2.64-0.33,4.01-0.33h385.29     c1.36,0,2.7,0.11,4.01,0.33C766.13,342.76,775.14,353.02,775.14,365.34z"></path><defs><path id="a" d="M775.14,365.34v210.15c0,9.92-5.83,18.49-14.26,22.45c-3.21,1.52-6.78,2.37-10.54,2.37H365.05       c-13.68,0-24.82-11.14-24.82-24.82V365.34c0-13.68,11.14-24.82,24.82-24.82h385.29C764.03,340.52,775.14,351.66,775.14,365.34z       "></path></defs><clipPath id="b"><use overflow="visible" xlink:href="#a"></use></clipPath><g clip-path="url(#b)"><path fill="#fae0b2" d="M503,515.09l4.13,3.72c5.39,4.86,13.78,4.43,18.64-0.96v0c4.86-5.39,4.43-13.78-0.96-18.64l-4.13-3.72         c-5.39-4.86-13.78-4.43-18.64,0.96l0,0C497.17,501.84,497.61,510.23,503,515.09z"></path><path fill="#fae0b2" d="M525.43,504.91L525.43,504.91c2.48-0.41,4.68,4.34,4.26,1.86l-2.12-16.78         c-0.41-2.48-2.77-4.16-5.25-3.75l0,0c-2.48,0.41-4.16,2.77-3.75,5.25l1.61,9.67C520.59,503.63,522.96,505.32,525.43,504.91z"></path><path fill="#fae0b2" d="M519.44,500.52L519.44,500.52c1.68-1.86,1.53-4.76-0.33-6.44l-7.28-6.56c-1.86-1.68-4.76-1.53-6.44,0.33         l0,0c-1.68,1.86-1.53,4.76,0.33,6.44l7.28,6.56C514.86,502.54,517.76,502.39,519.44,500.52z"></path><path fill="#fae0b2" d="M511.04,500.59L511.04,500.59c1.68-1.86,1.53-4.76-0.33-6.44l-7.28-6.56c-1.86-1.68-4.76-1.53-6.44,0.33         l0,0c-1.68,1.86-1.53,4.76,0.33,6.44l7.28,6.56C506.46,502.61,509.36,502.46,511.04,500.59z"></path><path fill="#fae0b2" d="M508.96,506.4L508.96,506.4c1.68-1.86,1.53-4.76-0.33-6.44l-7.28-6.56c-1.86-1.68-4.76-1.53-6.44,0.33         l0,0c-1.68,1.86-1.53,4.76,0.33,6.44l7.28,6.56C504.38,508.41,507.28,508.26,508.96,506.4z"></path><path fill="#fae0b2" d="M509.31,514.36L509.31,514.36c1.68-1.86,1.53-4.76-0.33-6.44l-7.28-6.56c-1.86-1.68-4.76-1.53-6.44,0.33         l0,0c-1.68,1.86-1.53,4.76,0.33,6.44l7.28,6.56C504.73,516.38,507.63,516.23,509.31,514.36z"></path><path fill="#3c8f7c" d="M590.98,503.7c19.8-27.44,49.61-32.69,53.27-33.23c-25.95,4.51-45.85,26.64-46.92,53.6        c-0.04,0.77-0.06,1.54-0.06,2.32v33.93c-43.62,24.47-84.02-34.55-84.02-34.55l20.16-18.71        C549.73,524.82,569.87,532.97,590.98,503.7z"></path><path fill="#50bfa5" d="M756.17,571.64c0,35.32-8.82,64.08-36.31,90.58c-0.95-0.27-3.75-0.9-10.84-7.74        c-4.46-4.29-7.52-14.02-7.52-14.02s1.44-2.37,3.48-6.41l-9.96,0.01l-61.75,0.06l-35.16,0.04c-2.95,0.01-5.29-2.48-5.1-5.42        l4.27-68.41v-33.93c0-0.78,0.02-1.55,0.06-2.32c1.07-26.96,20.97-49.08,46.92-53.6c0.12-0.02,0.25-0.04,0.37-0.06        c3.06-0.51,6.2-0.78,9.41-0.78h20.1c3.19,0,6.33,0.26,9.38,0.78c4.18,0.69,8.2,1.85,12.03,3.41        C728.34,485.46,756.16,526.3,756.17,571.64z"></path><path fill="#f7cc7f" d="M686.39,634.17h-61.76v-0.05l10.25-152.85c0,0,7.3-11.63,10.5-11.63h20.1c3.19,0,6.33,0.26,9.38,0.78        l0.79,11.17l10.73,152.48L686.39,634.17z"></path><path fill="#50bfa5" d="M635.45 472.37l-10.81 180.76-33.93-7.24 12.66-89.32c0 0 4.68-28.56 8.95-44.4C616.58 496.33 635.45 472.37 635.45 472.37zM674.87 470.42l11.53 182.62 40.54-4.56c0 0 6.02-29.53 11.65-57.25 5.63-27.72.5-76.12-13.57-89.67C710.95 488.01 674.87 470.42 674.87 470.42z"></path><path fill="#3c8f7c" d="M692.41,525.45c0,0,6.42,14.21,11.22,36.29c4.8,22.07-2.13,78.73-2.13,78.73l3.48-6.77        c0,0,15.77-32.37,13.44-52.29C716.1,561.49,708.31,543.86,692.41,525.45z"></path><g><rect width=".95" height="14.85" x="509.52" y="486.6" fill="#fe875e" transform="rotate(-45.001 509.99 494.029)"></rect></g><g><rect width=".95" height="14.54" x="500.85" y="490.61" fill="#fe875e" transform="rotate(-45.009 501.304 497.887)"></rect></g><g><rect width=".95" height="12.49" x="500.29" y="499.33" fill="#fe875e" transform="rotate(-45.001 500.762 505.588)"></rect></g><g><path fill="#fae0b2" d="M675.71,483.83c-4.92,2.38-12.35,3.54-20.33,3.54c-8.33,0-15.78-1.63-20.7-4.18l0.67-9.96l0.06-0.83        c0.01-0.01,0.03-0.01,0.04-0.01h-0.04c0,0,0.49-0.18,1.1-0.59c0.99-0.68,2.28-2,2.17-4.19c-0.05-1.05-1.04-4.08-1.04-4.08        l-1.11-4.24l-0.02-0.05l-3.99-15.4l40.06-3.51c0,0-3.43,18.42-2.89,25.24c0.36,4.52,5.32,4.09,5.32,4.09L675.71,483.83z"></path><path fill="#fe875e" d="M666.81,452.23c0,0-3.03,16.16-25.44,20.13c-1.42,0.26-4.18,0.65-6.02,0.85l0.06-0.83        c0.01-0.01,0.03-0.01,0.04-0.01h-0.04c0,0,0.49-0.18,1.1-0.59c0.99-0.68,2.28-2,2.17-4.19c-0.05-1.05-1.12-4.4-1.12-4.4        S659.11,465.27,666.81,452.23z"></path><path fill="#fae0b2" d="M680.26,427.79c-0.67,18.62-12.37,35.84-30.99,35.17c-18.62-0.67-35.02-0.01-36.45-37.6        c-0.99-26.09,16.31-33.18,34.93-32.51C666.38,393.52,680.93,409.16,680.26,427.79z"></path><path fill="#13375b" d="M657.65,414.68c0,0-0.49,11.69,0.11,19.06c0.61,7.38,1.1,14.89-3.64,18.52c0,0,9.08-2.67,6.6-15.76        s-1.74-13.99-0.19-18.2C662.09,414.1,657.65,414.68,657.65,414.68z"></path><path fill="#13375b" d="M617.6,413.33c1.47,1.09,3.74,1.98,7.22,2.35c12.12,1.28,34.13-8.62,34.13-8.62s-2.16,6.55-1.43,18.4        c0,0,3.9-7.52,9.46-0.32c4.97,6.46-2.11,14.11-6.36,12.44c0,0-1.97,14.65-9.29,15.97c-7.33,1.32-8.74-5.53-19.69-8.29        c-10.95-2.77-14.66,2.9-14.66,2.9c9.48,22.36,41.21,14.18,41.21,14.18s3.94,3.96,12.4,3.1c8.46-0.87,10.14-19.11,10.14-19.11        c5.72,2.04,12.2-9.2,13.19-26.34c1-17.14-14.89-17.66-14.89-17.66s1.9-12.01-16.7-18.72c-18.11-6.53-24.55,0.51-24.88,0.88        c0.16-0.55,3.67-12.27-5.83-12.45c-9.73-0.18-8.51,9.79-8.51,9.79c-10.86-9.83-26.36,3.56-23.57,14.81        c2.78,11.26,15.69,10.08,15.69,10.08S613.94,410.63,617.6,413.33L617.6,413.33z"></path></g><path fill="#1d135b" d="M539.09,512.27c0.01-0.03,0.02-0.06,0.02-0.09c0-0.03-0.01-0.06-0.01-0.09       c-0.01-0.03-0.01-0.06-0.02-0.09c-0.01-0.03-0.03-0.05-0.05-0.08c-0.01-0.02-0.02-0.05-0.04-0.07c0,0-0.01,0-0.01-0.01       c0,0,0-0.01-0.01-0.01l-4.98-4.93c-0.02-0.02-0.04-0.03-0.07-0.04c-0.03-0.02-0.05-0.04-0.08-0.05       c-0.03-0.01-0.06-0.01-0.08-0.02c-0.03-0.01-0.06-0.02-0.09-0.02c-0.03,0-0.06,0.01-0.09,0.01c-0.03,0.01-0.06,0.01-0.08,0.02       c-0.03,0.01-0.06,0.03-0.09,0.05c-0.02,0.01-0.05,0.02-0.07,0.04l-3.72,3.38c0,0,0,0,0,0c0,0,0,0,0,0l-1.85,1.68c0,0,0,0,0,0       s0,0,0,0l-3.7,3.36c0,0,0,0,0,0c0,0,0,0,0,0l-1.85,1.68h0c0,0,0,0,0,0l-9.28,8.43c-0.02,0.02-0.03,0.04-0.04,0.06       c-0.02,0.02-0.04,0.05-0.05,0.07c-0.01,0.03-0.02,0.06-0.03,0.09c-0.01,0.03-0.02,0.05-0.02,0.08c0,0.03,0,0.06,0,0.09       c0,0.03,0,0.06,0.01,0.09c0.01,0.03,0.03,0.06,0.04,0.09c0.01,0.02,0.02,0.04,0.03,0.06l4.21,5.65c0,0.01,0.01,0.01,0.02,0.01       c0.01,0.01,0.01,0.02,0.01,0.02c0.03,0.03,0.06,0.05,0.1,0.07c0.02,0.01,0.03,0.03,0.06,0.04c0.06,0.03,0.13,0.05,0.2,0.05       c0.09,0,0.18-0.03,0.26-0.09c0.01-0.01,0.02,0,0.03-0.01c0.01,0,0.01-0.01,0.01-0.02c0.01-0.01,0.01-0.01,0.02-0.01l9.61-8.74       l0,0l0,0l1.93-1.75c0,0,0,0,0,0c0,0,0,0,0,0l3.86-3.51c0,0,0,0,0,0c0,0,0,0,0,0l1.93-1.75c0,0,0,0,0,0s0,0,0,0l3.84-3.49       c0,0,0-0.01,0.01-0.01c0,0,0.01,0,0.01-0.01c0.02-0.02,0.03-0.05,0.04-0.07c0.02-0.03,0.04-0.05,0.05-0.08       C539.09,512.33,539.09,512.3,539.09,512.27z M536.73,513.26l-4.25-4.32l1.16-1.05l4.31,4.26L536.73,513.26z M534.81,515.01       l-4.19-4.38l1.16-1.05l4.25,4.32L534.81,515.01z M532.89,516.75l-4.13-4.43l1.16-1.05l4.19,4.38L532.89,516.75z M530.97,518.5       l-4.07-4.49l1.16-1.05l4.13,4.43L530.97,518.5z M529.05,520.25l-4.01-4.55l1.16-1.05l4.07,4.49L529.05,520.25z M527.13,521.99       l-3.95-4.6l1.16-1.05l4.01,4.55L527.13,521.99z M525.22,523.74l-3.89-4.66l1.16-1.05l3.95,4.6L525.22,523.74z M523.3,525.48       l-3.83-4.71l1.16-1.05l3.89,4.66L523.3,525.48z M521.38,527.23l-3.77-4.77l1.16-1.05l3.83,4.72L521.38,527.23z M519.46,528.97       l-3.71-4.83l1.16-1.05l3.77,4.77L519.46,528.97z M517.54,530.72l-3.65-4.88l1.16-1.05l3.71,4.83L517.54,530.72z"></path></g><g clip-path="url(#b)"><path fill="#fae0b2" d="M569,393.9H458.04c-4.97,0-9,4.03-9,9v44.32v14.52l0,0c0,5.23,4.33,9.42,9.56,9.24l7.29-0.25H569       c4.97,0,9-4.03,9-9V402.9C578,397.93,573.97,393.9,569,393.9z"></path><path fill="#13375b" d="M502.24 439.22c0-1.47 1.19-2.66 2.66-2.66 1.47 0 2.66 1.19 2.66 2.66s-1.19 2.66-2.66 2.66C503.43 441.87 502.24 440.68 502.24 439.22zM503.54 439.22c0 .75.61 1.35 1.35 1.35.75 0 1.35-.61 1.35-1.35 0-.75-.61-1.35-1.35-1.35C504.15 437.86 503.54 438.47 503.54 439.22zM492.73 445.41c0-1.47 1.19-2.66 2.66-2.66 1.47 0 2.66 1.19 2.66 2.66 0 1.47-1.19 2.66-2.66 2.66C493.92 448.07 492.73 446.88 492.73 445.41zM494.04 445.41c0 .75.61 1.35 1.35 1.35.75 0 1.35-.61 1.35-1.35 0-.75-.61-1.35-1.35-1.35C494.64 444.06 494.04 444.67 494.04 445.41zM483.22 443.41c0-1.47 1.19-2.66 2.66-2.66 1.47 0 2.66 1.19 2.66 2.66s-1.19 2.66-2.66 2.66C484.42 446.07 483.22 444.87 483.22 443.41zM484.53 443.41c0 .75.61 1.35 1.35 1.35.75 0 1.35-.61 1.35-1.35 0-.75-.61-1.35-1.35-1.35C485.13 442.06 484.53 442.66 484.53 443.41zM473.72 451.01c0-1.47 1.19-2.66 2.66-2.66 1.47 0 2.66 1.19 2.66 2.66s-1.19 2.66-2.66 2.66C474.91 453.67 473.72 452.48 473.72 451.01zM475.02 451.01c0 .75.61 1.35 1.35 1.35.75 0 1.35-.61 1.35-1.35s-.61-1.35-1.35-1.35C475.63 449.66 475.02 450.27 475.02 451.01z"></path><rect width="6.71" height="1.31" x="468.26" y="452.84" fill="#13375b" transform="rotate(-27.511 471.662 453.518)"></rect><rect width="8.16" height="1.31" x="477.04" y="446.56" fill="#13375b" transform="rotate(-38.648 481.118 447.228)"></rect><rect width="1.31" height="5.71" x="489.98" y="441.56" fill="#13375b" transform="rotate(-78.094 490.654 444.407)"></rect><rect width="7.34" height="1.31" x="496.47" y="441.66" fill="#13375b" transform="rotate(-33.102 500.115 442.324)"></rect><path fill="#13375b" d="M504.46 460.71h.87v1.21h-.87V460.71zM504.46 458.27h.87v1.7h-.87V458.27zM504.46 455.84h.87v1.7h-.87V455.84zM504.46 453.4h.87v1.7h-.87V453.4zM504.46 450.97h.87v1.7h-.87V450.97zM504.46 448.53h.87v1.7h-.87V448.53zM504.46 446.09h.87v1.7h-.87V446.09zM504.46 443.66h.87v1.7h-.87V443.66zM504.46 441.22h.87v1.7h-.87V441.22zM494.95 459.6h.87v1.7h-.87V459.6zM494.95 457.16h.87v1.7h-.87V457.16zM494.95 454.73h.87v1.7h-.87V454.73zM494.95 452.29h.87v1.7h-.87V452.29zM494.95 449.86h.87v1.7h-.87V449.86zM494.95 447.42h.87v1.7h-.87V447.42zM485.45 460.03h.87v1.7h-.87V460.03zM485.45 457.59h.87v1.7h-.87V457.59zM485.45 455.16h.87v1.7h-.87V455.16zM485.45 452.72h.87v1.7h-.87V452.72zM485.45 450.29h.87v1.7h-.87V450.29zM485.45 447.85h.87v1.7h-.87V447.85zM485.45 445.41h.87v1.7h-.87V445.41zM475.94 460.33h.87v1.59h-.87V460.33zM475.94 457.89h.87v1.7h-.87V457.89zM475.94 455.45h.87v1.7h-.87V455.45zM475.94 453.02h.87v1.7h-.87V453.02zM466.43 460.4h.87v1.51h-.87V460.4zM466.43 457.97h.87v1.7h-.87V457.97z"></path><path fill="#13375b" d="M464.21,455.96c0-1.47,1.19-2.66,2.66-2.66c1.47,0,2.66,1.19,2.66,2.66s-1.19,2.66-2.66,2.66          C465.4,458.62,464.21,457.43,464.21,455.96z M465.51,455.96c0,0.75,0.61,1.35,1.35,1.35c0.75,0,1.35-0.61,1.35-1.35          c0-0.75-0.61-1.35-1.35-1.35C466.12,454.61,465.51,455.22,465.51,455.96z"></path><rect width=".87" height="5.34" x="508.82" y="438.24" fill="#13375b" transform="rotate(-68.783 509.246 440.917)"></rect><polygon fill="#13375b" points="515.79 462.35 463.93 462.35 463.93 433.86 464.8 433.86 464.8 461.48 515.79 461.48"></polygon><g><rect width="5.8" height="20.07" x="508.13" y="403.37" fill="#fe875e" transform="rotate(-180 511.032 413.403)"></rect><rect width="5.8" height="15.76" x="499.32" y="407.68" fill="#fe875e" transform="rotate(-180 502.22 415.557)"></rect><rect width="5.8" height="17.93" x="490.51" y="405.51" fill="#fe875e" transform="rotate(-180 493.407 414.476)"></rect><rect width="5.8" height="11.6" x="481.69" y="411.84" fill="#fe875e" transform="rotate(-180 484.594 417.64)"></rect><rect width="5.8" height="8.83" x="472.88" y="414.61" fill="#fe875e" transform="rotate(-180 475.781 419.025)"></rect><rect width="5.8" height="4.82" x="464.07" y="418.62" fill="#fe875e" transform="rotate(-180 466.968 421.03)"></rect><rect width="51.42" height="1.13" x="463.07" y="422.87" fill="#13375b"></rect></g><g><path fill="#466eb6" d="M548.36,440.36c-2.44-4.08-6.9-6.81-11.99-6.81v13.96L548.36,440.36z"></path><path fill="#f79c8d" d="M565.27,446.39h-9.09c-0.84,0-1.52-0.68-1.52-1.52l0,0c0-0.84,0.68-1.52,1.52-1.52h9.09          c0.84,0,1.52,0.68,1.52,1.52l0,0C566.78,445.71,566.1,446.39,565.27,446.39z"></path><path fill="#50bfa5" d="M565.27,452.14h-9.09c-0.84,0-1.52-0.68-1.52-1.52l0,0c0-0.84,0.68-1.52,1.52-1.52h9.09          c0.84,0,1.52,0.68,1.52,1.52l0,0C566.78,451.47,566.1,452.14,565.27,452.14z"></path><path fill="#466eb6" d="M565.27,457.9h-9.09c-0.84,0-1.52-0.68-1.52-1.52l0,0c0-0.84,0.68-1.52,1.52-1.52h9.09          c0.84,0,1.52,0.68,1.52,1.52l0,0C566.78,457.22,566.1,457.9,565.27,457.9z"></path><path fill="#50bfa5" d="M536.37,448.34h13.78c0-2.58-0.71-4.99-1.94-7.05L536.37,448.34z"></path><path fill="#f79c8d" d="M535.46,435.99c-7.25,0-13.12,5.87-13.12,13.12c0,7.25,5.87,13.12,13.12,13.12          c7.25,0,13.12-5.87,13.12-13.12h-13.12V435.99z"></path></g><g><path fill="#13375b" d="M473.49 430.49h-7.98c-1.03 0-1.86-.83-1.86-1.86l0 0c0-1.03.83-1.86 1.86-1.86h7.98c1.03 0 1.86.83 1.86 1.86l0 0C475.35 429.66 474.52 430.49 473.49 430.49zM486.72 430.49h-7.98c-1.03 0-1.86-.83-1.86-1.86l0 0c0-1.03.83-1.86 1.86-1.86h7.98c1.03 0 1.86.83 1.86 1.86l0 0C488.59 429.66 487.75 430.49 486.72 430.49zM499.96 430.49h-7.98c-1.03 0-1.86-.83-1.86-1.86l0 0c0-1.03.83-1.86 1.86-1.86h7.98c1.03 0 1.86.83 1.86 1.86l0 0C501.83 429.66 500.99 430.49 499.96 430.49zM513.2 430.49h-7.98c-1.03 0-1.86-.83-1.86-1.86l0 0c0-1.03.83-1.86 1.86-1.86h7.98c1.03 0 1.86.83 1.86 1.86l0 0C515.06 429.66 514.23 430.49 513.2 430.49z"></path></g><g><path fill="#b6d7ff" d="M528.05,410.52L528.05,410.52c-2.28,0-4.12-1.85-4.12-4.12l0,0c0-2.28,1.85-4.12,4.12-4.12l0,0           c2.28,0,4.12,1.85,4.12,4.12l0,0C532.18,408.67,530.33,410.52,528.05,410.52z"></path><path fill="#13375b" d="M529.75,408.66c-0.14,0-0.29-0.06-0.4-0.17l-3.39-3.39c-0.22-0.22-0.22-0.58,0-0.8           c0.22-0.22,0.58-0.22,0.8,0l3.39,3.39c0.22,0.22,0.22,0.58,0,0.8C530.04,408.6,529.89,408.66,529.75,408.66z"></path><path fill="#13375b" d="M526.36,408.66c-0.14,0-0.29-0.06-0.4-0.17c-0.22-0.22-0.22-0.58,0-0.8l3.39-3.39           c0.22-0.22,0.58-0.22,0.8,0c0.22,0.22,0.22,0.58,0,0.8l-3.39,3.39C526.65,408.6,526.5,408.66,526.36,408.66z"></path><path fill="#b6d7ff" d="M528.05,426.75L528.05,426.75c-2.28,0-4.12-1.85-4.12-4.12l0,0c0-2.28,1.85-4.12,4.12-4.12l0,0           c2.28,0,4.12,1.85,4.12,4.12l0,0C532.18,424.91,530.33,426.75,528.05,426.75z"></path><path fill="#13375b" d="M529.75,424.89c-0.14,0-0.29-0.06-0.4-0.17l-3.39-3.39c-0.22-0.22-0.22-0.58,0-0.8           c0.22-0.22,0.58-0.22,0.8,0l3.39,3.39c0.22,0.22,0.22,0.58,0,0.8C530.04,424.83,529.89,424.89,529.75,424.89z"></path><path fill="#13375b" d="M526.36 424.89c-.14 0-.29-.06-.4-.17-.22-.22-.22-.58 0-.8l3.39-3.39c.22-.22.58-.22.8 0 .22.22.22.58 0 .8l-3.39 3.39C526.65 424.83 526.5 424.89 526.36 424.89zM559.74 404.4h-23.75c-.59 0-1.06-.48-1.06-1.06l0 0c0-.59.48-1.06 1.06-1.06h23.75c.59 0 1.06.48 1.06 1.06l0 0C560.8 403.92 560.33 404.4 559.74 404.4zM559.74 408.52h-23.75c-.59 0-1.06-.48-1.06-1.06l0 0c0-.59.48-1.06 1.06-1.06h23.75c.59 0 1.06.48 1.06 1.06l0 0C560.8 408.05 560.33 408.52 559.74 408.52z"></path><g><path fill="#13375b" d="M559.74,412.65h-23.75c-0.59,0-1.06-0.48-1.06-1.06l0,0c0-0.59,0.48-1.06,1.06-1.06h23.75          c0.59,0,1.06,0.48,1.06,1.06l0,0C560.8,412.17,560.33,412.65,559.74,412.65z"></path></g><g><path fill="#13375b" d="M559.71,420.62h-23.75c-0.59,0-1.06-0.48-1.06-1.06l0,0c0-0.59,0.48-1.06,1.06-1.06h23.75          c0.59,0,1.06,0.48,1.06,1.06l0,0C560.77,420.15,560.3,420.62,559.71,420.62z"></path></g><g><path fill="#13375b" d="M559.71,424.75h-23.75c-0.59,0-1.06-0.48-1.06-1.06l0,0c0-0.59,0.48-1.06,1.06-1.06h23.75          c0.59,0,1.06,0.48,1.06,1.06l0,0C560.77,424.27,560.3,424.75,559.71,424.75z"></path></g><g><path fill="#13375b" d="M559.71,428.87h-23.75c-0.59,0-1.06-0.48-1.06-1.06l0,0c0-0.59,0.48-1.06,1.06-1.06h23.75          c0.59,0,1.06,0.48,1.06,1.06l0,0C560.77,428.4,560.3,428.87,559.71,428.87z"></path></g></g></g><path fill="#466eb6" d="M775.14,365.34v4.97H340.23v-4.97c0-14.14,8.53-24.82,22.82-24.82h388.11     C762.94,340.52,775.14,350.73,775.14,365.34z"></path><circle cx="365.49" cy="355.58" r="5.65" fill="#171c51"></circle><circle cx="394.69" cy="355.58" r="5.65" fill="#171c51"></circle><path fill="#171c51" d="M428.05,355.58c0,3.12-2.53,5.65-5.65,5.65c-3.12,0-5.65-2.53-5.65-5.65c0-3.12,2.53-5.65,5.65-5.65     C425.52,349.93,428.05,352.46,428.05,355.58z"></path><g><polygon fill="#fff" points="524.22 600.3 450.03 600.3 366.36 340.52 440.55 340.52"></polygon><polygon fill="#fff" points="566.43 600.3 544.28 600.3 460.61 340.52 482.74 340.52"></polygon><polygon fill="#fff" points="741.59 600.3 667.41 600.3 583.74 340.52 657.92 340.52"></polygon><path fill="#fff" d="M775.14,573.46v2.03c0,9.92-5.83,18.49-14.26,22.45l-82.9-257.42h22.13L775.14,573.46z"></path></g><g><path fill="#171c51" d="M637.24,631.27c-1.15,0-2.07,0.93-2.07,2.07c0,0.57,0.23,1.09,0.61,1.47s0.89,0.61,1.47,0.61h122.35          c1.15,0,2.07-0.93,2.07-2.07c0-0.57-0.23-1.09-0.61-1.46c-0.38-0.38-0.89-0.61-1.47-0.61H637.24z"></path><path fill="#d1d1d1" d="M739.67,628.35h-18.92c0.4,0,0.76,0.16,1.02,0.42c0.26,0.26,0.42,0.62,0.42,1.02          c0,0.8-0.65,1.45-1.45,1.45h38.9c0.8,0,1.45-0.65,1.45-1.45c0-0.4-0.16-0.76-0.42-1.02c-0.26-0.26-0.62-0.42-1.02-0.42          H739.67z"></path><path fill="#9e9e9e" d="M695.26,628.35c-0.8,0-1.45,0.65-1.45,1.44c0,0.4,0.16,0.76,0.42,1.02c0.26,0.26,0.63,0.42,1.02,0.42          h25.49c0.8,0,1.45-0.65,1.45-1.45c0-0.4-0.16-0.76-0.42-1.02c-0.26-0.26-0.63-0.42-1.02-0.42H695.8H695.26z"></path><path fill="#d1d1d1" d="M695.8,628.35c-1.55,0-2.89-1.09-3.21-2.61l-6.04-28.86c-0.43-2.04,1.13-3.95,3.21-3.95h43.87          c1.55,0,2.89,1.09,3.21,2.6l6.04,28.87c0.42,2.04-1.13,3.95-3.21,3.95h-18.92H695.8z M741.25,626.36          c0.39-0.48,0.54-1.1,0.41-1.71l-6.04-28.86c-0.2-0.94-1.04-1.62-2-1.62h-43.87c-0.62,0-1.2,0.28-1.58,0.75          c-0.39,0.48-0.54,1.1-0.42,1.71l6.04,28.86c0.2,0.94,1.04,1.62,2,1.62h43.87C740.29,627.11,740.86,626.83,741.25,626.36z"></path><path fill="#f4f4f4" d="M688.17,594.92c-0.39,0.48-0.54,1.1-0.42,1.71l6.04,28.86c0.2,0.94,1.04,1.62,2,1.62h43.87          c0.61,0,1.19-0.28,1.58-0.75c0.39-0.48,0.54-1.1,0.41-1.71l-6.04-28.86c-0.2-0.94-1.04-1.62-2-1.62h-43.87          C689.14,594.16,688.56,594.44,688.17,594.92z"></path><g display="none"><path fill="#fff" d="M739.67 628.55v-.41c.93 0 1.79-.41 2.38-1.13.59-.72.81-1.66.62-2.57l-6.04-28.87c-.3-1.41-1.56-2.44-3.01-2.44h-43.87c-.93 0-1.8.41-2.39 1.14-.58.72-.81 1.66-.62 2.56l6.04 28.86c.3 1.42 1.56 2.44 3 2.44v.41c-1.64 0-3.07-1.17-3.41-2.77l-6.04-28.86c-.22-1.03.04-2.09.7-2.91.66-.82 1.65-1.29 2.71-1.29h43.87c1.64 0 3.08 1.16 3.41 2.77l6.04 28.87c.22 1.03-.04 2.09-.71 2.91C741.71 628.08 740.72 628.55 739.67 628.55zM759.59 635.62H637.24c-.61 0-1.18-.24-1.61-.67-.43-.43-.67-1-.67-1.61 0-1.25 1.02-2.27 2.28-2.27h122.35c.61 0 1.18.24 1.61.67.43.43.67 1 .67 1.61C761.87 634.6 760.85 635.62 759.59 635.62zM637.24 631.48c-1.03 0-1.87.84-1.87 1.86 0 .5.19.97.55 1.32.35.35.82.55 1.32.55h122.35c1.03 0 1.87-.84 1.87-1.87 0-.5-.19-.97-.55-1.32-.35-.35-.82-.55-1.32-.55H637.24z"></path><path fill="#fff" d="M739.67 627.32H695.8c-1.06 0-1.98-.75-2.2-1.79l-6.04-28.86c-.14-.67.03-1.35.46-1.88.43-.53 1.06-.83 1.74-.83h43.87c1.06 0 1.98.75 2.2 1.79l6.04 28.86c.14.66-.03 1.35-.45 1.88C740.98 627.01 740.35 627.32 739.67 627.32zM689.76 594.37c-.56 0-1.07.25-1.42.68-.35.43-.49.99-.37 1.53l6.04 28.86c.18.85.93 1.46 1.8 1.46h43.87c.55 0 1.07-.25 1.42-.68.35-.43.48-.99.37-1.53l-6.04-28.86c-.18-.85-.93-1.46-1.8-1.46H689.76zM759.65 631.44h-38.9v-.41h38.9c.68 0 1.24-.56 1.24-1.24 0-.33-.13-.64-.36-.87-.23-.23-.55-.36-.88-.36h-38.9v-.41h38.9c.44 0 .86.17 1.17.48.31.31.48.73.48 1.16C761.31 630.7 760.57 631.44 759.65 631.44z"></path><path fill="#fff" d="M720.76,631.44h-25.49c-0.44,0-0.85-0.17-1.17-0.48c-0.31-0.31-0.49-0.73-0.49-1.17          c0-0.91,0.74-1.65,1.65-1.65h25.49c0.44,0,0.86,0.17,1.17,0.48c0.31,0.31,0.48,0.72,0.48,1.16          C722.41,630.7,721.67,631.44,720.76,631.44z M695.26,628.55c-0.68,0-1.24,0.55-1.24,1.24c0,0.33,0.13,0.64,0.36,0.88          c0.24,0.23,0.55,0.36,0.88,0.36h25.49c0.68,0,1.24-0.56,1.24-1.24c0-0.33-0.13-0.64-0.36-0.87          c-0.24-0.24-0.55-0.37-0.88-0.37H695.26z"></path></g><polygon fill="#13375b" points="744.39 716.44 770.41 716.44 778.59 676.92 753.99 675.11"></polygon><path fill="#355389" d="M685.41,721.17h26.02l18.46-53.31c0,0,7.92,4.58,24.38,7.3l24.06,1.36c35.93,1.4,32.5-35.82,32.5-35.82         h-62.02l-24.99,7.15c-5.72,1.64-10.39,5.8-12.67,11.3L685.41,721.17z"></path><path fill="#171c51" d="M688.27,721.09l0.48-1.14l0.38,0.16l-0.48,1.14L688.27,721.09z M689.23,718.81l0.48-1.14l0.38,0.16          l-0.48,1.14L689.23,718.81z M690.18,716.53l0.48-1.14l0.38,0.16l-0.48,1.14L690.18,716.53z M691.14,714.25l0.48-1.14          l0.38,0.16l-0.48,1.14L691.14,714.25z M692.09,711.97l0.48-1.14l0.38,0.16l-0.48,1.14L692.09,711.97z M693.05,709.69          l0.48-1.14l0.38,0.16l-0.48,1.14L693.05,709.69z M694.01,707.41l0.48-1.14l0.38,0.16l-0.48,1.14L694.01,707.41z           M694.96,705.13l0.48-1.14l0.38,0.16l-0.48,1.14L694.96,705.13z M695.92,702.85l0.48-1.14l0.38,0.16l-0.48,1.14          L695.92,702.85z M696.87,700.57l0.48-1.14l0.38,0.16l-0.48,1.14L696.87,700.57z M697.83,698.29l0.48-1.14l0.38,0.16          l-0.48,1.14L697.83,698.29z M698.78,696.01l0.48-1.14l0.38,0.16l-0.48,1.14L698.78,696.01z M699.74,693.73l0.48-1.14          l0.38,0.16l-0.48,1.14L699.74,693.73z M700.7,691.45l0.48-1.14l0.38,0.16l-0.48,1.14L700.7,691.45z M701.65,689.17          l0.48-1.14l0.38,0.16l-0.48,1.14L701.65,689.17z M702.61,686.89l0.48-1.14l0.38,0.16l-0.48,1.14L702.61,686.89z           M703.56,684.61l0.48-1.14l0.38,0.16l-0.48,1.14L703.56,684.61z M704.52,682.33l0.48-1.14l0.38,0.16l-0.48,1.14          L704.52,682.33z M705.48,680.05l0.48-1.14l0.38,0.16l-0.48,1.14L705.48,680.05z M706.43,677.77l0.48-1.14l0.38,0.16          l-0.48,1.14L706.43,677.77z M707.39,675.49l0.48-1.14l0.38,0.16l-0.48,1.14L707.39,675.49z M708.34,673.21l0.48-1.14          l0.38,0.16l-0.48,1.14L708.34,673.21z M709.3,670.93l0.48-1.14l0.38,0.16l-0.48,1.14L709.3,670.93z M710.26,668.65          l0.48-1.14l0.38,0.16l-0.48,1.14L710.26,668.65z M711.21,666.37l0.48-1.14l0.38,0.16l-0.48,1.14L711.21,666.37z           M712.17,664.08l0.48-1.14l0.38,0.16l-0.48,1.14L712.17,664.08z M713.12,661.8l0.48-1.14l0.38,0.16l-0.48,1.14L713.12,661.8          z M714.08,659.52c0.17-0.38,0.35-0.76,0.54-1.13l0.36,0.19c-0.19,0.36-0.37,0.73-0.53,1.1L714.08,659.52z M715.25,657.31          c0.22-0.35,0.45-0.7,0.7-1.04l0.33,0.24c-0.24,0.33-0.47,0.67-0.68,1.02L715.25,657.31z M716.71,655.28          c0.27-0.32,0.55-0.63,0.84-0.93l0.3,0.29c-0.28,0.29-0.56,0.6-0.82,0.91L716.71,655.28z M718.45,653.48          c0.31-0.28,0.63-0.55,0.96-0.8l0.25,0.33c-0.32,0.25-0.64,0.51-0.94,0.78L718.45,653.48z M720.42,651.95          c0.35-0.23,0.7-0.45,1.06-0.66l0.2,0.36c-0.35,0.2-0.7,0.42-1.04,0.64L720.42,651.95z M722.59,650.71          c0.37-0.18,0.76-0.35,1.14-0.5l0.15,0.38c-0.38,0.15-0.75,0.31-1.12,0.49L722.59,650.71z M724.91,649.79          c0.17-0.05,0.33-0.1,0.5-0.15l0.69-0.2l0.11,0.4l-0.69,0.2c-0.16,0.05-0.33,0.1-0.49,0.15L724.91,649.79z M727.29,649.1          l1.19-0.34l0.11,0.4l-1.19,0.34L727.29,649.1z M729.67,648.42l1.19-0.34l0.11,0.4l-1.19,0.34L729.67,648.42z M732.05,647.74          l1.19-0.34l0.11,0.4l-1.19,0.34L732.05,647.74z M734.42,647.05l1.19-0.34l0.11,0.4l-1.19,0.34L734.42,647.05z M736.8,646.37          l1.19-0.34l0.11,0.4l-1.19,0.34L736.8,646.37z M739.18,645.69l1.19-0.34l0.11,0.4l-1.19,0.34L739.18,645.69z M741.55,645.01          l1.19-0.34l0.11,0.4l-1.19,0.34L741.55,645.01z M743.93,644.33l1.19-0.34l0.11,0.4l-1.19,0.34L743.93,644.33z           M746.31,643.65l1.19-0.34l0.11,0.4l-1.19,0.34L746.31,643.65z M748.68,642.97l1.19-0.34l0.11,0.4l-1.19,0.34L748.68,642.97          z M751.15,642.47h1.24v0.41h-1.24V642.47z M753.62,642.47h1.24v0.41h-1.24V642.47z M756.09,642.47h1.24v0.41h-1.24V642.47z           M758.56,642.47h1.24v0.41h-1.24V642.47z"></path><path fill="#f8c558" d="M748.82,604.89l-3.02,32.84c-0.15,1.6,1.11,2.97,2.71,2.97h62.43c1.6,0,2.85-1.37,2.71-2.96           l-2.82-32.86v-8.74c0-12.27-8.65-22.69-20.23-25c-0.03,0-0.06-0.01-0.09-0.02c-2.86-0.47-4.77-0.47-4.77-0.47h-6.56           c0,0-6.1,0-12.58,1.1c-10.33,3.19-17.78,12.99-17.78,24.38v8.04V604.89z"></path><path fill="#f47458" d="M810.84,596.15v8.74c4-7.8,4.96-17.84-2.59-25.35c-5.53-5.51-12.87-7.59-17.64-8.38           C802.19,573.46,810.84,583.88,810.84,596.15z"></path><g><path fill="#171c51" d="M686.91,717.57h0.96v0.41h-0.96V717.57z M689.12,717.57h1.24v0.41h-1.24V717.57z M691.59,717.57h1.24          v0.41h-1.24V717.57z M694.06,717.57h1.24v0.41h-1.24V717.57z M696.53,717.57h1.24v0.41h-1.24V717.57z M699.01,717.57h1.24          v0.41h-1.24V717.57z M701.48,717.57h1.24v0.41h-1.24V717.57z M703.95,717.57h1.24v0.41h-1.24V717.57z M706.42,717.57h1.24          v0.41h-1.24V717.57z M708.9,717.57h1.24v0.41h-1.24V717.57z M711.37,717.57h1.24v0.41h-1.24V717.57z"></path></g><g><path fill="#171c51" d="M745.21,713.47h0.96v0.41h-0.96V713.47z M747.41,713.47h1.24v0.41h-1.24V713.47z M749.89,713.47h1.24          v0.41h-1.24V713.47z M752.36,713.47h1.24v0.41h-1.24V713.47z M754.83,713.47h1.24v0.41h-1.24V713.47z M757.3,713.47h1.24          v0.41h-1.24V713.47z M759.78,713.47h1.24v0.41h-1.24V713.47z M762.25,713.47h1.24v0.41h-1.24V713.47z M764.72,713.47h1.24          v0.41h-1.24V713.47z M767.2,713.47h1.24v0.41h-1.24V713.47z M769.67,713.47h1.24v0.41h-1.24V713.47z"></path></g><g><path fill="#171c51" d="M767.45,716.4l0.12-0.6l0.4,0.08l-0.12,0.6L767.45,716.4z M767.82,714.58l0.24-1.21l0.4,0.08          l-0.24,1.21L767.82,714.58z M768.31,712.16l0.24-1.21l0.4,0.08l-0.24,1.21L768.31,712.16z M768.8,709.73l0.24-1.21l0.4,0.08          l-0.24,1.21L768.8,709.73z M769.29,707.31l0.24-1.21l0.4,0.08l-0.24,1.21L769.29,707.31z M769.77,704.89l0.24-1.21l0.4,0.08          l-0.24,1.21L769.77,704.89z M770.26,702.46l0.24-1.21l0.4,0.08l-0.24,1.21L770.26,702.46z M770.75,700.04l0.24-1.21          l0.4,0.08l-0.24,1.21L770.75,700.04z M771.24,697.62l0.24-1.21l0.4,0.08l-0.24,1.21L771.24,697.62z M771.73,695.19          l0.24-1.21l0.4,0.08l-0.24,1.21L771.73,695.19z M772.22,692.77l0.24-1.21l0.4,0.08l-0.24,1.21L772.22,692.77z           M772.71,690.34l0.24-1.21l0.4,0.08l-0.24,1.21L772.71,690.34z M773.2,687.92l0.24-1.21l0.4,0.08L773.6,688L773.2,687.92z           M773.68,685.5l0.24-1.21l0.4,0.08l-0.24,1.21L773.68,685.5z M774.17,683.07l0.24-1.21l0.4,0.08l-0.24,1.21L774.17,683.07z           M774.66,680.65l0.24-1.21l0.4,0.08l-0.24,1.21L774.66,680.65z M775.15,678.22l0.24-1.21l0.4,0.08l-0.24,1.21L775.15,678.22          z"></path></g><g><path fill="#f47458" d="M768.88,571.43c0,0-11.09,0.41-23.09,17.55c-12,17.13-27.04,34.65-27.04,34.65l8.08,2.68       c0,0,27.76-11.35,38.38-23.33C775.84,591,768.88,571.43,768.88,571.43z"></path></g><g><path fill="#e8fde6" d="M736.24 726.54c0 0 3.42 1.66 2.27 5.22h-7.54c.16-1.4.97-2.65 2.2-3.38C734.38 727.66 735.37 727.07 736.24 726.54zM769.94 721.64v5.32c-6.91-.09-6.15-6.22-6.15-6.22 2.77-.18 4.42-.41 4.71-.46.03 0 .05-.01.05-.01h.03C769.33 720.28 769.94 720.89 769.94 721.64z"></path><path fill="#a1cd96" d="M744.36,721.43c0.56-0.35,1.17-0.74,1.83-1.15c0,0,0.66,0.09,1.83,0.21c1.95,0.19,5.32,0.45,9.38,0.45        c0.34,0,0.68,0,1.01-0.01c2.09-0.02,3.89-0.09,5.38-0.19c0,0-0.76,6.13,6.15,6.22v4.79h-31.43c1.15-3.55-2.27-5.22-2.27-5.22        c1.83-1.11,3.19-1.97,5.04-3.15C742.16,722.83,743.15,722.2,744.36,721.43z"></path><path fill="#fff" d="M769.94,731.96h-38.97c-0.11,0-0.21-0.09-0.21-0.21c0-0.11,0.09-0.21,0.21-0.21h38.97         c0.11,0,0.21,0.09,0.21,0.21C770.15,731.87,770.05,731.96,769.94,731.96z"></path><path fill="#fff" d="M738.51 731.96c-.02 0-.04 0-.06-.01-.11-.03-.17-.15-.13-.26 1.08-3.34-2.04-4.9-2.17-4.97-.1-.05-.14-.17-.09-.28.05-.1.17-.14.28-.09.04.02 3.57 1.79 2.38 5.47C738.68 731.9 738.6 731.96 738.51 731.96zM747.44 724.8c-.05 0-.11-.02-.15-.06l-3.09-3.17c-.08-.08-.08-.21 0-.29.08-.08.21-.08.29 0l3.09 3.17c.08.08.08.21 0 .29C747.55 724.78 747.5 724.8 747.44 724.8zM745.9 725.86c-.05 0-.11-.02-.15-.06l-3.09-3.16c-.08-.08-.08-.21 0-.29.08-.08.21-.08.29 0l3.09 3.17c.08.08.08.21 0 .29C746.01 725.84 745.95 725.86 745.9 725.86zM744.36 726.74c-.05 0-.11-.02-.15-.06l-3.07-3.15c-.01-.01-.02-.03-.03-.04-.07-.09-.05-.22.04-.29.09-.07.22-.05.29.04l.01.02 3.06 3.13c.08.08.08.21 0 .29C744.46 726.72 744.41 726.74 744.36 726.74zM769.94 727.17C769.94 727.17 769.94 727.17 769.94 727.17c-2.24-.03-3.92-.68-5.02-1.94-1.64-1.88-1.35-4.41-1.34-4.51.01-.11.11-.19.23-.18.11.01.19.12.18.23 0 .02-.28 2.46 1.24 4.2 1.02 1.16 2.6 1.76 4.71 1.79.11 0 .2.1.2.21C770.15 727.08 770.05 727.17 769.94 727.17z"></path><g><path fill="#fecad0" d="M768.55,716.38v3.9c0,0-0.02,0-0.05,0.01c-0.53,0.06-5.34,0.58-10.09,0.64        c-0.33,0.01-0.66,0.01-1.01,0.01c-4.07,0-7.43-0.26-9.38-0.45c-1.13-0.12-1.76-0.21-1.76-0.21v-3.9h20.59H768.55z"></path></g><g><path fill="#17511a" d="M769.94,731.75v0.17c0,0.95-0.77,1.73-1.72,1.73h-35.92c-0.38,0-0.71-0.15-0.96-0.4        c-0.24-0.25-0.4-0.59-0.4-0.96c0-0.18,0.01-0.36,0.03-0.54h7.54H769.94z"></path></g></g><g><path fill="#f47458" d="M733.62,669.88c0,0,0.01,0.01,0.04,0.02c0.27,0.13,0.55,0.26,0.85,0.39c2.12,0.94,4.98,2.04,8.63,3.07        c1.66,0.47,3.49,0.93,5.48,1.35c0.1,0.02,0.2,0.04,0.3,0.06c1.81,0.35,3.8,0.69,5.97,0.99c2.66,0.37,5.59,0.68,8.8,0.9        c1.99,0.14,4.1,0.24,6.31,0.3c1.54,0.04,3.14,0.07,4.79,0.07c1.3-0.02,2.56-0.06,3.79-0.11c4.16-0.19,7.93-0.59,11.32-1.2        c3.26-0.58,6.17-1.36,8.76-2.32c8.13-3.03,12.99-7.9,15.04-14.51c0.14-0.45,0.26-0.9,0.37-1.36c0.05-0.24,0.11-0.48,0.16-0.72        c0.11-0.52,0.2-1.04,0.28-1.57c0.21-1.44,0.32-2.94,0.32-4.51c0-16.65-6.41-30.14-26.31-30.89        c-10.32,0.31-28.62,3.12-28.62,24.83c0,23.61-11.07,25.77-11.07,25.77L733.62,669.88z"></path><path fill="#f47458" d="M789.91 675.72l.04.16 15.23 68.05h1.32l-7.81-70.35-.02-.18C796.08 674.36 793.17 675.14 789.91 675.72zM747.33 743.93h1.32l15.03-67.18.02-.09c-3.21-.22-6.14-.53-8.8-.9l0 .06L747.33 743.93z"></path><path fill="#b75742" d="M770.01 676.97l.01.06 14.42 64.42h1.32l-7.16-64.48 0-.05c-1.23.05-2.49.09-3.79.11C773.15 677.03 771.55 677.01 770.01 676.97zM726.59 741.45h1.32l15.22-68.03.01-.06c-3.65-1.03-6.51-2.13-8.63-3.07l-.03 0 0 .05L726.59 741.45zM729.89 667.86c0 0 1.21.84 3.73 2.02l15.21.55c0 0 .98-.19 2.37-1.09 3.25-2.11 8.7-8.11 8.7-24.68 0-20.46 16.26-24.13 26.77-24.75.64-.04 1.26-.07 1.85-.08-.59-.02-1.19-.04-1.8-.04-9.49 0-31.13 1.26-31.13 24.87 0 22.8-10.32 23.19-11.04 23.19H729.89z"></path></g><g><path fill="#e8fde6" d="M677.25 731.27c0 0 3.42 1.66 2.27 5.22h-7.54c.16-1.4.97-2.65 2.2-3.38C675.39 732.4 676.38 731.81 677.25 731.27zM710.95 726.38v5.32c-6.91-.09-6.15-6.22-6.15-6.22 2.77-.18 4.42-.41 4.71-.46.03 0 .05-.01.05-.01h.03C710.34 725.01 710.95 725.62 710.95 726.38z"></path><path fill="#a1cd96" d="M685.37,726.17c0.56-0.35,1.17-0.74,1.83-1.15c0,0,0.66,0.09,1.83,0.21c1.95,0.19,5.32,0.45,9.38,0.45        c0.34,0,0.68,0,1.01-0.01c2.09-0.02,3.89-0.09,5.38-0.19c0,0-0.76,6.13,6.15,6.22v4.79h-31.43c1.15-3.55-2.27-5.22-2.27-5.22        c1.83-1.11,3.19-1.97,5.04-3.15C683.17,727.56,684.16,726.93,685.37,726.17z"></path><path fill="#fff" d="M710.95,736.69h-38.97c-0.11,0-0.21-0.09-0.21-0.21c0-0.11,0.09-0.21,0.21-0.21h38.97         c0.11,0,0.21,0.09,0.21,0.21C711.16,736.6,711.07,736.69,710.95,736.69z"></path><path fill="#fff" d="M679.53 736.69c-.02 0-.04 0-.06-.01-.11-.03-.17-.15-.13-.26 1.08-3.34-2.04-4.9-2.17-4.97-.1-.05-.14-.17-.09-.28.05-.1.17-.14.28-.1.04.02 3.57 1.79 2.38 5.47C679.7 736.64 679.61 736.69 679.53 736.69zM688.46 729.54c-.05 0-.11-.02-.15-.06l-3.09-3.17c-.08-.08-.08-.21 0-.29.08-.08.21-.08.29 0l3.09 3.16c.08.08.08.21 0 .29C688.56 729.52 688.51 729.54 688.46 729.54zM686.92 730.59c-.05 0-.11-.02-.15-.06l-3.09-3.16c-.08-.08-.08-.21 0-.29.08-.08.21-.08.29 0l3.09 3.16c.08.08.08.21 0 .29C687.02 730.57 686.97 730.59 686.92 730.59zM685.37 731.48c-.05 0-.11-.02-.15-.06l-3.07-3.15c-.01-.01-.01-.01-.02-.02-.07-.09-.05-.23.04-.3.09-.07.21-.06.28.03l0 .01 3.06 3.14c.08.08.08.21 0 .29C685.47 731.46 685.42 731.48 685.37 731.48zM710.95 731.9C710.95 731.9 710.95 731.9 710.95 731.9c-2.24-.03-3.92-.68-5.02-1.93-1.64-1.88-1.35-4.41-1.34-4.51.01-.11.12-.19.23-.18.11.01.19.12.18.23 0 .02-.28 2.46 1.24 4.2 1.02 1.16 2.6 1.76 4.71 1.79.11 0 .2.09.2.21C711.16 731.81 711.07 731.9 710.95 731.9z"></path><g><path fill="#fecad0" d="M709.56,721.11v3.9c0,0-0.02,0-0.05,0.01c-0.53,0.06-5.34,0.58-10.09,0.64        c-0.33,0.01-0.66,0.01-1.01,0.01c-4.07,0-7.43-0.26-9.38-0.45c-1.13-0.12-1.76-0.21-1.76-0.21v-3.9h20.59H709.56z"></path></g><g><path fill="#17511a" d="M710.95,736.49v0.17c0,0.95-0.77,1.73-1.72,1.73h-35.92c-0.38,0-0.71-0.15-0.96-0.4        c-0.24-0.25-0.4-0.59-0.4-0.96c0-0.18,0.01-0.36,0.03-0.54h7.54H710.95z"></path></g></g><g><path fill="#fae0b2" d="M718.75,623.63c0,0-3.63-0.66-6.34-0.17s-2.25,3.66-2.25,3.66h14.42l1.16-1.17L718.75,623.63z"></path></g><g><polygon fill="#fae0b2" points="784.79 563.54 786.14 570.92 770.87 571.49 771.22 566.67 771.83 558.5"></polygon><path fill="#fae0b2" d="M790.12,551.37c-0.12,8.11-5.06,15.72-13.17,15.6c-8.11-0.12-14.39,0.05-16.21-16.04        c-0.92-8.06,6.8-14.6,14.91-14.47C783.76,536.58,790.24,543.26,790.12,551.37z"></path><path fill="#13375b" d="M755.07,534.57c0.49-3.35,5.19-4.15,5.19-4.15c-0.76-1.93,2.19-4.95,10.24-4.33        c7.05,0.55,9.53,4.93,9.53,4.93c7.51-2.92,13.37,3.65,12.15,16.97c-0.73,8-3.23,11.6-5.83,14.52        c-1.92,2.15-3.89,3.81-10.59,4.52c-10.85,1.15-13.03-7.27-13.03-7.27s0.89-1.11,2.58-0.53c4.47,1.52,3.35-3.88,2.64-5.91        c-0.86-2.49-1.46-6.01-1.84-8.06c-2.17,0.88-5.19,1.97-6.37,1.95C756.73,547.13,754.58,537.92,755.07,534.57z"></path></g><g opacity=".4"><path d="M731.5,667.86h13.06c0.71,0,11.04-0.39,11.04-23.19c0-23.61,21.64-24.87,31.13-24.87c0,0-29.51-1.54-32.49,15.76      C750.51,657.18,754.52,667.44,731.5,667.86z"></path></g><g><path fill="#171c51" d="M726.83 626.51c-.02 0-.04 0-.07-.01l-8.08-2.68c-.11-.04-.17-.15-.13-.26.04-.11.15-.17.26-.13l8.08 2.68c.11.04.17.15.13.26C727 626.46 726.92 626.51 726.83 626.51zM729.89 625.44c-.02 0-.05 0-.07-.01l-9.38-3.51c-.11-.04-.16-.16-.12-.27.04-.11.16-.16.27-.12l9.38 3.51c.11.04.16.16.12.26C730.05 625.39 729.98 625.44 729.89 625.44z"></path><path fill="#171c51" d="M718.75 623.83c-.05 0-.1-.02-.14-.06-.08-.08-.09-.21-.01-.29l1.76-1.9c.08-.08.21-.09.29-.01.08.08.09.21.01.29l-1.76 1.9C718.86 623.81 718.81 623.83 718.75 623.83zM719.49 624.08c-.05 0-.11-.02-.15-.06-.08-.08-.08-.21 0-.29l1.88-1.82c.08-.08.21-.08.29 0 .08.08.08.21 0 .29l-1.88 1.82C719.59 624.06 719.54 624.08 719.49 624.08zM720.22 624.32c-.06 0-.11-.02-.16-.07-.07-.09-.07-.22.02-.29l2-1.75c.09-.07.22-.07.29.02.07.09.07.22-.02.29l-2 1.75C720.32 624.3 720.27 624.32 720.22 624.32zM720.96 624.56c-.06 0-.12-.03-.16-.08-.07-.09-.06-.22.03-.29l2.11-1.67c.09-.07.22-.06.29.03.07.09.06.22-.03.29l-2.11 1.67C721.05 624.55 721 624.56 720.96 624.56zM721.69 624.81c-.06 0-.13-.03-.17-.09-.07-.09-.05-.22.05-.29l2.23-1.6c.09-.07.22-.04.29.05.07.09.05.22-.05.29l-2.23 1.6C721.77 624.79 721.73 624.81 721.69 624.81zM722.42 625.05c-.07 0-.13-.03-.17-.09-.06-.1-.03-.22.06-.28l2.35-1.53c.1-.06.22-.03.28.06.06.1.03.22-.06.28l-2.35 1.53C722.5 625.04 722.46 625.05 722.42 625.05zM723.16 625.29c-.07 0-.14-.04-.18-.1-.06-.1-.02-.22.07-.28l2.47-1.45c.1-.06.22-.02.28.07.06.1.02.22-.07.28l-2.47 1.45C723.23 625.29 723.19 625.29 723.16 625.29zM723.89 625.54c-.07 0-.15-.04-.18-.11-.05-.1-.02-.23.09-.28l2.59-1.38c.1-.05.23-.02.28.09.05.1.02.23-.09.28l-2.59 1.38C723.96 625.53 723.93 625.54 723.89 625.54zM724.63 625.78c-.08 0-.15-.04-.19-.12-.05-.1-.01-.23.1-.27l2.71-1.3c.1-.05.23-.01.27.1.05.1.01.23-.1.27l-2.71 1.3C724.69 625.78 724.66 625.78 724.63 625.78zM725.36 626.03c-.08 0-.16-.05-.19-.12-.04-.1 0-.23.11-.27l2.83-1.23c.1-.04.23 0 .27.11.04.1 0 .23-.11.27l-2.83 1.23C725.42 626.02 725.39 626.03 725.36 626.03zM726.1 626.27c-.08 0-.16-.05-.19-.13-.04-.11.01-.23.12-.27l2.94-1.15c.11-.04.23.01.27.12.04.11-.01.23-.12.27l-2.94 1.15C726.15 626.27 726.12 626.27 726.1 626.27zM726.83 626.51c-.09 0-.16-.05-.19-.14-.04-.11.02-.22.13-.26l3.06-1.08c.11-.04.22.02.26.13.04.11-.02.22-.13.26l-3.06 1.08C726.88 626.51 726.85 626.51 726.83 626.51z"></path></g></g><g><polygon fill="#fae0b2" points="634.04 564.07 636.02 571.15 621.33 571.15 622.23 564.07"></polygon><path fill="#171c51" d="M485.62,631.27c-1.15,0-2.07,0.93-2.07,2.07c0,0.57,0.23,1.09,0.61,1.47          c0.38,0.38,0.89,0.61,1.47,0.61h122.35c1.15,0,2.07-0.93,2.07-2.07c0-0.57-0.23-1.09-0.61-1.46          c-0.38-0.38-0.89-0.61-1.47-0.61H485.62z"></path><path fill="#d1d1d1" d="M588.05,628.35h-18.92c0.4,0,0.76,0.16,1.02,0.42c0.26,0.26,0.42,0.62,0.42,1.02          c0,0.8-0.65,1.45-1.45,1.45h38.9c0.8,0,1.45-0.65,1.45-1.45c0-0.4-0.16-0.76-0.42-1.02c-0.26-0.26-0.62-0.42-1.02-0.42          H588.05z"></path><path fill="#9e9e9e" d="M543.64,628.35c-0.8,0-1.45,0.65-1.45,1.44c0,0.4,0.16,0.76,0.42,1.02c0.26,0.26,0.63,0.42,1.02,0.42          h25.49c0.8,0,1.45-0.65,1.45-1.45c0-0.4-0.16-0.76-0.42-1.02c-0.26-0.26-0.63-0.42-1.02-0.42h-24.96H543.64z"></path><path fill="#d1d1d1" d="M544.18,628.35c-1.55,0-2.89-1.09-3.21-2.61l-6.04-28.86c-0.43-2.04,1.13-3.95,3.21-3.95h43.87          c1.55,0,2.89,1.09,3.21,2.6l6.04,28.87c0.42,2.04-1.13,3.95-3.21,3.95h-18.92H544.18z M589.63,626.36          c0.39-0.48,0.54-1.1,0.41-1.71L584,595.79c-0.2-0.94-1.04-1.62-2-1.62h-43.87c-0.62,0-1.2,0.28-1.58,0.75          c-0.39,0.48-0.54,1.1-0.42,1.71l6.04,28.86c0.2,0.94,1.04,1.62,2,1.62h43.87C588.67,627.11,589.24,626.83,589.63,626.36z"></path><path fill="#f4f4f4" d="M536.55,594.92c-0.39,0.48-0.54,1.1-0.42,1.71l6.04,28.86c0.2,0.94,1.04,1.62,2,1.62h43.87          c0.61,0,1.19-0.28,1.58-0.75c0.39-0.48,0.54-1.1,0.41-1.71L584,595.79c-0.2-0.94-1.04-1.62-2-1.62h-43.87          C537.52,594.16,536.94,594.44,536.55,594.92z"></path><g display="none"><path fill="#fff" d="M588.05 628.55v-.41c.93 0 1.79-.41 2.38-1.13.59-.72.81-1.66.62-2.57l-6.04-28.87c-.3-1.41-1.56-2.44-3.01-2.44h-43.87c-.93 0-1.8.41-2.39 1.14-.58.72-.81 1.66-.62 2.56l6.04 28.86c.3 1.42 1.56 2.44 3 2.44v.41c-1.64 0-3.07-1.17-3.41-2.77l-6.04-28.86c-.22-1.03.04-2.09.7-2.91.66-.82 1.65-1.29 2.71-1.29h43.87c1.64 0 3.08 1.16 3.41 2.77l6.04 28.87c.22 1.03-.04 2.09-.71 2.91C590.09 628.08 589.1 628.55 588.05 628.55zM607.97 635.62H485.62c-.61 0-1.18-.24-1.61-.67-.43-.43-.67-1-.67-1.61 0-1.25 1.02-2.27 2.28-2.27h122.35c.61 0 1.18.24 1.61.67.43.43.67 1 .67 1.61C610.25 634.6 609.23 635.62 607.97 635.62zM485.62 631.48c-1.03 0-1.87.84-1.87 1.86 0 .5.19.97.55 1.32.35.35.82.55 1.32.55h122.35c1.03 0 1.87-.84 1.87-1.87 0-.5-.19-.97-.55-1.32-.35-.35-.82-.55-1.32-.55H485.62z"></path><path fill="#fff" d="M588.05 627.32h-43.87c-1.06 0-1.98-.75-2.2-1.79l-6.04-28.86c-.14-.67.03-1.35.46-1.88.43-.53 1.06-.83 1.74-.83h43.87c1.06 0 1.98.75 2.2 1.79l6.04 28.86c.14.66-.03 1.35-.45 1.88C589.36 627.01 588.73 627.32 588.05 627.32zM538.14 594.37c-.56 0-1.07.25-1.42.68-.35.43-.49.99-.37 1.53l6.04 28.86c.18.85.93 1.46 1.8 1.46h43.87c.55 0 1.07-.25 1.42-.68.35-.43.48-.99.37-1.53l-6.04-28.86c-.18-.85-.93-1.46-1.8-1.46H538.14zM608.03 631.44h-38.9v-.41h38.9c.68 0 1.24-.56 1.24-1.24 0-.33-.13-.64-.36-.87-.23-.23-.55-.36-.88-.36h-38.9v-.41h38.9c.44 0 .86.17 1.17.48.31.31.48.73.48 1.16C609.69 630.7 608.95 631.44 608.03 631.44z"></path><path fill="#fff" d="M569.14,631.44h-25.49c-0.44,0-0.85-0.17-1.17-0.48c-0.31-0.31-0.49-0.73-0.49-1.17          c0-0.91,0.74-1.65,1.65-1.65h25.49c0.44,0,0.86,0.17,1.17,0.48c0.31,0.31,0.48,0.72,0.48,1.16          C570.79,630.7,570.05,631.44,569.14,631.44z M543.64,628.55c-0.68,0-1.24,0.55-1.24,1.24c0,0.33,0.13,0.64,0.36,0.88          c0.24,0.23,0.55,0.36,0.88,0.36h25.49c0.68,0,1.24-0.56,1.24-1.24c0-0.33-0.13-0.64-0.36-0.87          c-0.24-0.24-0.55-0.37-0.88-0.37H543.64z"></path></g><polygon fill="#11442f" points="592.77 716.44 618.79 716.44 626.97 676.92 602.37 675.11"></polygon><path fill="#184655" d="M533.79,721.17h26.02l18.46-53.31c0,0,7.92,4.58,24.38,7.3l24.06,1.36c35.93,1.4,32.5-35.82,32.5-35.82         H597.2l-24.99,7.15c-5.72,1.64-10.39,5.8-12.67,11.3L533.79,721.17z"></path><path fill="#171c51" d="M536.65,721.09l0.48-1.14l0.38,0.16l-0.48,1.14L536.65,721.09z M537.61,718.81l0.48-1.14l0.38,0.16          l-0.48,1.14L537.61,718.81z M538.56,716.53l0.48-1.14l0.38,0.16l-0.48,1.14L538.56,716.53z M539.52,714.25l0.48-1.14          l0.38,0.16l-0.48,1.14L539.52,714.25z M540.47,711.97l0.48-1.14l0.38,0.16l-0.48,1.14L540.47,711.97z M541.43,709.69          l0.48-1.14l0.38,0.16l-0.48,1.14L541.43,709.69z M542.38,707.41l0.48-1.14l0.38,0.16l-0.48,1.14L542.38,707.41z           M543.34,705.13l0.48-1.14l0.38,0.16l-0.48,1.14L543.34,705.13z M544.3,702.85l0.48-1.14l0.38,0.16l-0.48,1.14L544.3,702.85          z M545.25,700.57l0.48-1.14l0.38,0.16l-0.48,1.14L545.25,700.57z M546.21,698.29l0.48-1.14l0.38,0.16l-0.48,1.14          L546.21,698.29z M547.16,696.01l0.48-1.14l0.38,0.16l-0.48,1.14L547.16,696.01z M548.12,693.73l0.48-1.14l0.38,0.16          l-0.48,1.14L548.12,693.73z M549.08,691.45l0.48-1.14l0.38,0.16l-0.48,1.14L549.08,691.45z M550.03,689.17l0.48-1.14          l0.38,0.16l-0.48,1.14L550.03,689.17z M550.99,686.89l0.48-1.14l0.38,0.16l-0.48,1.14L550.99,686.89z M551.94,684.61          l0.48-1.14l0.38,0.16l-0.48,1.14L551.94,684.61z M552.9,682.33l0.48-1.14l0.38,0.16l-0.48,1.14L552.9,682.33z           M553.86,680.05l0.48-1.14l0.38,0.16l-0.48,1.14L553.86,680.05z M554.81,677.77l0.48-1.14l0.38,0.16l-0.48,1.14          L554.81,677.77z M555.77,675.49l0.48-1.14l0.38,0.16l-0.48,1.14L555.77,675.49z M556.72,673.21l0.48-1.14l0.38,0.16          l-0.48,1.14L556.72,673.21z M557.68,670.93l0.48-1.14l0.38,0.16l-0.48,1.14L557.68,670.93z M558.64,668.65l0.48-1.14          l0.38,0.16l-0.48,1.14L558.64,668.65z M559.59,666.37l0.48-1.14l0.38,0.16l-0.48,1.14L559.59,666.37z M560.55,664.08          l0.48-1.14l0.38,0.16l-0.48,1.14L560.55,664.08z M561.5,661.8l0.48-1.14l0.38,0.16l-0.48,1.14L561.5,661.8z M562.46,659.52          c0.17-0.38,0.35-0.76,0.54-1.13l0.36,0.19c-0.19,0.36-0.37,0.73-0.53,1.1L562.46,659.52z M563.63,657.31          c0.22-0.35,0.45-0.7,0.7-1.04l0.33,0.24c-0.24,0.33-0.47,0.67-0.68,1.02L563.63,657.31z M565.09,655.28          c0.27-0.32,0.55-0.63,0.84-0.93l0.3,0.29c-0.28,0.29-0.56,0.6-0.82,0.91L565.09,655.28z M566.83,653.48          c0.31-0.28,0.63-0.55,0.96-0.8l0.25,0.33c-0.32,0.25-0.64,0.51-0.94,0.78L566.83,653.48z M568.8,651.95          c0.35-0.23,0.7-0.45,1.06-0.66l0.2,0.36c-0.35,0.2-0.7,0.42-1.04,0.64L568.8,651.95z M570.97,650.71          c0.37-0.18,0.76-0.35,1.14-0.5l0.15,0.38c-0.38,0.15-0.75,0.31-1.12,0.49L570.97,650.71z M573.29,649.79          c0.17-0.05,0.33-0.1,0.5-0.15l0.69-0.2l0.11,0.4l-0.69,0.2c-0.16,0.05-0.33,0.1-0.49,0.15L573.29,649.79z M575.67,649.1          l1.19-0.34l0.11,0.4l-1.19,0.34L575.67,649.1z M578.05,648.42l1.19-0.34l0.11,0.4l-1.19,0.34L578.05,648.42z M580.43,647.74          l1.19-0.34l0.11,0.4l-1.19,0.34L580.43,647.74z M582.8,647.05l1.19-0.34l0.11,0.4l-1.19,0.34L582.8,647.05z M585.18,646.37          l1.19-0.34l0.11,0.4l-1.19,0.34L585.18,646.37z M587.56,645.69l1.19-0.34l0.11,0.4l-1.19,0.34L587.56,645.69z           M589.93,645.01l1.19-0.34l0.11,0.4l-1.19,0.34L589.93,645.01z M592.31,644.33l1.19-0.34l0.11,0.4l-1.19,0.34L592.31,644.33          z M594.69,643.65l1.19-0.34l0.11,0.4l-1.19,0.34L594.69,643.65z M597.06,642.97l1.19-0.34l0.11,0.4l-1.19,0.34          L597.06,642.97z M599.52,642.47h1.24v0.41h-1.24V642.47z M602,642.47h1.24v0.41H602V642.47z M604.47,642.47h1.24v0.41h-1.24          V642.47z M606.94,642.47h1.24v0.41h-1.24V642.47z"></path><path fill="#3c8f7c" d="M597.2,604.89l-3.02,32.84c-0.15,1.6,1.11,2.97,2.71,2.97h62.43c1.6,0,2.85-1.37,2.71-2.96           l-2.82-32.86v-8.74c0-12.27-8.65-22.69-20.23-25c-0.03,0-0.06-0.01-0.09-0.02c-2.86-0.47-4.77-0.47-4.77-0.47h-6.56           c0,0-6.1,0-12.58,1.1c-10.33,3.19-17.78,12.99-17.78,24.38v8.04V604.89z"></path><path fill="#184655" d="M659.22,596.15v8.74c4-7.8,4.96-17.84-2.59-25.35c-5.53-5.51-12.87-7.59-17.64-8.38           C650.57,573.46,659.22,583.88,659.22,596.15z"></path><g><path fill="#171c51" d="M535.29,717.57h0.96v0.41h-0.96V717.57z M537.49,717.57h1.24v0.41h-1.24V717.57z M539.97,717.57h1.24          v0.41h-1.24V717.57z M542.44,717.57h1.24v0.41h-1.24V717.57z M544.91,717.57h1.24v0.41h-1.24V717.57z M547.39,717.57h1.24          v0.41h-1.24V717.57z M549.86,717.57h1.24v0.41h-1.24V717.57z M552.33,717.57h1.24v0.41h-1.24V717.57z M554.8,717.57h1.24          v0.41h-1.24V717.57z M557.28,717.57h1.24v0.41h-1.24V717.57z M559.75,717.57h1.24v0.41h-1.24V717.57z"></path></g><g><path fill="#171c51" d="M593.59,713.47h0.96v0.41h-0.96V713.47z M595.79,713.47h1.24v0.41h-1.24V713.47z M598.27,713.47h1.24          v0.41h-1.24V713.47z M600.74,713.47h1.24v0.41h-1.24V713.47z M603.21,713.47h1.24v0.41h-1.24V713.47z M605.68,713.47h1.24          v0.41h-1.24V713.47z M608.16,713.47h1.24v0.41h-1.24V713.47z M610.63,713.47h1.24v0.41h-1.24V713.47z M613.1,713.47h1.24          v0.41h-1.24V713.47z M615.57,713.47h1.24v0.41h-1.24V713.47z M618.05,713.47h1.24v0.41h-1.24V713.47z"></path></g><g><path fill="#171c51" d="M615.83,716.4l0.12-0.6l0.4,0.08l-0.12,0.6L615.83,716.4z M616.2,714.58l0.24-1.21l0.4,0.08          l-0.24,1.21L616.2,714.58z M616.69,712.16l0.24-1.21l0.4,0.08l-0.24,1.21L616.69,712.16z M617.18,709.73l0.24-1.21l0.4,0.08          l-0.24,1.21L617.18,709.73z M617.67,707.31l0.24-1.21l0.4,0.08l-0.24,1.21L617.67,707.31z M618.15,704.89l0.24-1.21          l0.4,0.08l-0.24,1.21L618.15,704.89z M618.64,702.46l0.24-1.21l0.4,0.08l-0.24,1.21L618.64,702.46z M619.13,700.04          l0.24-1.21l0.4,0.08l-0.24,1.21L619.13,700.04z M619.62,697.62l0.24-1.21l0.4,0.08l-0.24,1.21L619.62,697.62z           M620.11,695.19l0.24-1.21l0.4,0.08l-0.24,1.21L620.11,695.19z M620.6,692.77l0.24-1.21l0.4,0.08l-0.24,1.21L620.6,692.77z           M621.09,690.34l0.24-1.21l0.4,0.08l-0.24,1.21L621.09,690.34z M621.58,687.92l0.24-1.21l0.4,0.08l-0.24,1.21L621.58,687.92          z M622.06,685.5l0.24-1.21l0.4,0.08l-0.24,1.21L622.06,685.5z M622.55,683.07l0.24-1.21l0.4,0.08l-0.24,1.21L622.55,683.07z           M623.04,680.65l0.24-1.21l0.4,0.08l-0.24,1.21L623.04,680.65z M623.53,678.22l0.24-1.21l0.4,0.08l-0.24,1.21L623.53,678.22          z"></path></g><g><path fill="#e8fde6" d="M584.62 726.54c0 0 3.42 1.66 2.27 5.22h-7.54c.16-1.4.97-2.65 2.2-3.38C582.76 727.66 583.74 727.07 584.62 726.54zM618.32 721.64v5.32c-6.91-.09-6.15-6.22-6.15-6.22 2.77-.18 4.42-.41 4.71-.46.03 0 .05-.01.05-.01h.03C617.71 720.28 618.32 720.89 618.32 721.64z"></path><path fill="#a1cd96" d="M592.74,721.43c0.56-0.35,1.17-0.74,1.83-1.15c0,0,0.66,0.09,1.83,0.21c1.95,0.19,5.32,0.45,9.38,0.45        c0.34,0,0.68,0,1.01-0.01c2.09-0.02,3.89-0.09,5.38-0.19c0,0-0.76,6.13,6.15,6.22v4.79h-31.43c1.15-3.55-2.27-5.22-2.27-5.22        c1.83-1.11,3.19-1.97,5.04-3.15C590.54,722.83,591.53,722.2,592.74,721.43z"></path><path fill="#fff" d="M618.32,731.96h-38.97c-0.11,0-0.21-0.09-0.21-0.21c0-0.11,0.09-0.21,0.21-0.21h38.97         c0.11,0,0.21,0.09,0.21,0.21C618.53,731.87,618.43,731.96,618.32,731.96z"></path><path fill="#fff" d="M586.89 731.96c-.02 0-.04 0-.06-.01-.11-.03-.17-.15-.13-.26 1.08-3.34-2.04-4.9-2.17-4.97-.1-.05-.14-.17-.09-.28.05-.1.17-.14.28-.09.04.02 3.57 1.79 2.38 5.47C587.06 731.9 586.98 731.96 586.89 731.96zM595.82 724.8c-.05 0-.11-.02-.15-.06l-3.09-3.17c-.08-.08-.08-.21 0-.29.08-.08.21-.08.29 0l3.09 3.17c.08.08.08.21 0 .29C595.93 724.78 595.88 724.8 595.82 724.8zM594.28 725.86c-.05 0-.11-.02-.15-.06l-3.09-3.16c-.08-.08-.08-.21 0-.29.08-.08.21-.08.29 0l3.09 3.17c.08.08.08.21 0 .29C594.39 725.84 594.33 725.86 594.28 725.86zM592.74 726.74c-.05 0-.11-.02-.15-.06l-3.07-3.15c-.01-.01-.02-.03-.03-.04-.07-.09-.05-.22.04-.29.09-.07.22-.05.29.04l.01.02 3.06 3.13c.08.08.08.21 0 .29C592.84 726.72 592.79 726.74 592.74 726.74zM618.32 727.17C618.32 727.17 618.32 727.17 618.32 727.17c-2.24-.03-3.92-.68-5.02-1.94-1.64-1.88-1.35-4.41-1.34-4.51.01-.11.12-.19.23-.18.11.01.19.12.18.23 0 .02-.28 2.46 1.24 4.2 1.02 1.16 2.6 1.76 4.71 1.79.11 0 .2.1.2.21C618.53 727.08 618.43 727.17 618.32 727.17z"></path><g><path fill="#fae0b2" d="M616.93,716.38v3.9c0,0-0.02,0-0.05,0.01c-0.53,0.06-5.34,0.58-10.09,0.64        c-0.33,0.01-0.66,0.01-1.01,0.01c-4.07,0-7.43-0.26-9.38-0.45c-1.13-0.12-1.76-0.21-1.76-0.21v-3.9h20.59H616.93z"></path></g><g><path fill="#17511a" d="M618.32,731.75v0.17c0,0.95-0.77,1.73-1.72,1.73h-35.92c-0.38,0-0.71-0.15-0.96-0.4        c-0.24-0.25-0.4-0.59-0.4-0.96c0-0.18,0.01-0.36,0.03-0.54h7.54H618.32z"></path></g></g><g><path fill="#f47458" d="M582,669.88c0,0,0.01,0.01,0.04,0.02c0.27,0.13,0.55,0.26,0.85,0.39c2.12,0.94,4.98,2.04,8.63,3.07        c1.66,0.47,3.49,0.93,5.48,1.35c0.1,0.02,0.2,0.04,0.3,0.06c1.81,0.35,3.8,0.69,5.97,0.99c2.66,0.37,5.59,0.68,8.8,0.9        c1.99,0.14,4.1,0.24,6.31,0.3c1.54,0.04,3.14,0.07,4.79,0.07c1.3-0.02,2.56-0.06,3.79-0.11c4.16-0.19,7.93-0.59,11.32-1.2        c3.26-0.58,6.17-1.36,8.76-2.32c8.13-3.03,12.99-7.9,15.04-14.51c0.14-0.45,0.26-0.9,0.37-1.36c0.05-0.24,0.11-0.48,0.16-0.72        c0.11-0.52,0.2-1.04,0.28-1.57c0.21-1.44,0.32-2.94,0.32-4.51c0-16.65-6.41-30.14-26.31-30.89        c-10.32,0.31-28.62,3.12-28.62,24.83c0,23.61-11.07,25.77-11.07,25.77L582,669.88z"></path><path fill="#f47458" d="M638.29 675.72l.04.16 15.23 68.05h1.32l-7.81-70.35-.02-.18C644.46 674.36 641.55 675.14 638.29 675.72zM595.71 743.93h1.32l15.03-67.18.02-.09c-3.21-.22-6.14-.53-8.8-.9l0 .06L595.71 743.93z"></path><path fill="#b75742" d="M618.39 676.97l.01.06 14.42 64.42h1.32l-7.16-64.48 0-.05c-1.23.05-2.49.09-3.79.11C621.53 677.03 619.93 677.01 618.39 676.97zM574.97 741.45h1.32l15.22-68.03.01-.06c-3.65-1.03-6.51-2.13-8.63-3.07l-.03 0 0 .05L574.97 741.45zM578.27 667.86c0 0 1.21.84 3.73 2.02l15.21.55c0 0 .98-.19 2.37-1.09 3.25-2.11 8.7-8.11 8.7-24.68 0-20.46 16.26-24.13 26.77-24.75.64-.04 1.26-.07 1.85-.08-.59-.02-1.19-.04-1.8-.04-9.49 0-31.13 1.26-31.13 24.87 0 22.8-10.32 23.19-11.04 23.19H578.27z"></path></g><g><path fill="#e8fde6" d="M525.63 731.27c0 0 3.42 1.66 2.27 5.22h-7.54c.16-1.4.97-2.65 2.2-3.38C523.77 732.4 524.76 731.81 525.63 731.27zM559.33 726.38v5.32c-6.91-.09-6.15-6.22-6.15-6.22 2.77-.18 4.42-.41 4.71-.46.03 0 .05-.01.05-.01h.03C558.72 725.01 559.33 725.62 559.33 726.38z"></path><path fill="#a1cd96" d="M533.75,726.17c0.56-0.35,1.17-0.74,1.83-1.15c0,0,0.66,0.09,1.83,0.21c1.95,0.19,5.32,0.45,9.38,0.45        c0.34,0,0.68,0,1.01-0.01c2.09-0.02,3.89-0.09,5.38-0.19c0,0-0.76,6.13,6.15,6.22v4.79h-31.43c1.15-3.55-2.27-5.22-2.27-5.22        c1.83-1.11,3.19-1.97,5.04-3.15C531.55,727.56,532.54,726.93,533.75,726.17z"></path><path fill="#fff" d="M559.33,736.69h-38.97c-0.11,0-0.21-0.09-0.21-0.21c0-0.11,0.09-0.21,0.21-0.21h38.97         c0.11,0,0.21,0.09,0.21,0.21C559.54,736.6,559.45,736.69,559.33,736.69z"></path><path fill="#fff" d="M527.91 736.69c-.02 0-.04 0-.06-.01-.11-.03-.17-.15-.13-.26 1.08-3.34-2.04-4.9-2.17-4.97-.1-.05-.14-.17-.09-.28.05-.1.17-.14.28-.1.04.02 3.57 1.79 2.38 5.47C528.07 736.64 527.99 736.69 527.91 736.69zM536.84 729.54c-.05 0-.11-.02-.15-.06l-3.09-3.17c-.08-.08-.08-.21 0-.29.08-.08.21-.08.29 0l3.09 3.16c.08.08.08.21 0 .29C536.94 729.52 536.89 729.54 536.84 729.54zM535.3 730.59c-.05 0-.11-.02-.15-.06l-3.09-3.16c-.08-.08-.08-.21 0-.29.08-.08.21-.08.29 0l3.09 3.16c.08.08.08.21 0 .29C535.4 730.57 535.35 730.59 535.3 730.59zM533.75 731.48c-.05 0-.11-.02-.15-.06l-3.07-3.15c-.01-.01-.01-.01-.02-.02-.07-.09-.05-.23.04-.3.09-.07.21-.06.28.03l0 .01 3.06 3.14c.08.08.08.21 0 .29C533.85 731.46 533.8 731.48 533.75 731.48zM559.33 731.9C559.33 731.9 559.33 731.9 559.33 731.9c-2.24-.03-3.92-.68-5.02-1.93-1.64-1.88-1.35-4.41-1.34-4.51.01-.11.12-.19.23-.18.11.01.19.12.18.23 0 .02-.28 2.46 1.24 4.2 1.02 1.16 2.6 1.76 4.71 1.79.11 0 .2.09.2.21C559.54 731.81 559.45 731.9 559.33 731.9z"></path><g><path fill="#fae0b2" d="M557.94,721.11v3.9c0,0-0.02,0-0.05,0.01c-0.53,0.06-5.34,0.58-10.09,0.64        c-0.33,0.01-0.66,0.01-1.01,0.01c-4.07,0-7.43-0.26-9.38-0.45c-1.13-0.12-1.76-0.21-1.76-0.21v-3.9h20.59H557.94z"></path></g><g><path fill="#17511a" d="M559.33,736.49v0.17c0,0.95-0.77,1.73-1.72,1.73h-35.92c-0.38,0-0.71-0.15-0.96-0.4        c-0.24-0.25-0.4-0.59-0.4-0.96c0-0.18,0.01-0.36,0.03-0.54h7.54H559.33z"></path></g></g><g><path fill="#fae0b2" d="M613.8,559.28c0.42,0.96,0.93,1.85,1.53,2.67c1.39,1.93,3.21,3.44,5.27,4.46c0,0.01,0,0.01,0,0.01        c3.69,1.83,8.12,2.07,12.19,0.29c0,0,0,0,0.02,0c0.11-0.05,0.22-0.1,0.33-0.16c0.01,0,0.01,0,0.01-0.01        c1.43-0.67,2.7-1.54,3.78-2.58c4.28-4.06,5.79-10.52,3.28-16.24c-0.12-0.28-0.26-0.55-0.4-0.83        c-0.05-0.12-0.12-0.23-0.18-0.33c-0.14-0.25-0.28-0.5-0.43-0.74c-0.07-0.12-0.15-0.24-0.23-0.35        c-0.23-0.35-0.49-0.69-0.75-1.01c-0.08-0.11-0.18-0.22-0.26-0.32c-0.09-0.11-0.18-0.21-0.28-0.31        c-0.19-0.22-0.4-0.43-0.6-0.63c-0.09-0.09-0.18-0.17-0.27-0.25c-0.1-0.09-0.2-0.18-0.31-0.27c-0.1-0.09-0.21-0.18-0.31-0.26        c-0.35-0.29-0.71-0.56-1.09-0.82c0-0.01,0-0.01-0.01-0.01c-0.19-0.12-0.38-0.25-0.57-0.36c-0.35-0.22-0.71-0.42-1.08-0.6        c-0.08-0.04-0.15-0.08-0.23-0.11c-0.17-0.08-0.33-0.16-0.5-0.23c-0.19-0.08-0.38-0.16-0.57-0.23        c-0.03-0.02-0.06-0.03-0.09-0.04c-0.27-0.11-0.55-0.2-0.84-0.29c-0.1-0.03-0.19-0.06-0.29-0.08c-0.15-0.05-0.3-0.09-0.46-0.13        c-0.03-0.01-0.06-0.01-0.09-0.02c-0.14-0.03-0.28-0.07-0.42-0.09c-0.17-0.04-0.35-0.07-0.53-0.1        c-0.09-0.02-0.19-0.03-0.29-0.05c-0.12-0.02-0.24-0.04-0.35-0.05c-0.16-0.02-0.32-0.04-0.49-0.05        c-0.22-0.02-0.44-0.04-0.66-0.04c-0.13-0.01-0.26-0.01-0.38-0.01c-0.05-0.01-0.11-0.01-0.17-0.01c-0.16,0-0.32,0-0.48,0.01        c-0.19,0-0.37,0.01-0.55,0.02c-1.62,0.11-3.25,0.49-4.83,1.18c0,0-0.01,0-0.02,0.01c-1.51,0.67-2.86,1.56-4.01,2.63        c-0.28,0.25-0.55,0.52-0.8,0.8c-1.29,1.41-2.29,3.05-2.93,4.83C612.24,551.91,612.26,555.73,613.8,559.28z"></path><path fill="#171c51" d="M604.06,543.45c2.39,4.45,7.71,2.56,7.71,2.56s-0.12,1.79,1.71,2.53c3.56,1.14,6.75-3.36,6.75-3.36         s0.2,1.03,0.4,2.69c0,0.02,0.35,8.96,0.2,10.92c-0.16,1.96,0.02,2.72-2.49,3.48c-1.87,0.23-2.83-0.35-3.27-0.8         c-0.09-0.1-0.17-0.2-0.24-0.3c-0.03-0.05-0.06-0.11-0.09-0.16c0,0,0.02,0.05,0.08,0.14c-0.02-0.02-0.04-0.05-0.05-0.07         c0.07,0.11,0.14,0.23,0.22,0.35c0.74,1.25,1.61,2.29,2.57,3.14c0.03,0.03,0.07,0.06,0.1,0.09c0.01,0.01,0.01,0.01,0.02,0.01         c4.1,3.53,9.71,3.72,13.23,2.69c3.04-0.88,4.98-2.51,4.98-2.51s2.09,1.25,5.57-0.03c3.48-1.28,2.22-9.15,2.22-9.15         c2.63,0.25,4.16-5.2,2.73-12.54c-1.42-7.34-8.18-5.85-8.18-5.85s-0.49-5.27-9.06-6.1c-8.35-0.81-10.31,2.85-10.4,3.05         c0.01-0.25,0.23-5.57-3.8-4.63c-4.12,0.97-2.54,5.05-2.54,5.05C606.77,531.69,601.67,539.01,604.06,543.45z M624.56,554.65         c1.29,2.89-0.64,3.54-2.47,3.48c-0.37-0.72-1.16-2.66-0.52-4.89C622.31,552.06,623.58,552.47,624.56,554.65z"></path></g><g><path fill="#184655" d="M617.26,571.43c0,0-11.09,0.41-23.09,17.55c-12,17.13-27.04,34.65-27.04,34.65l8.08,2.68       c0,0,16.78-5.01,27.41-17C613.24,597.33,617.26,571.43,617.26,571.43z"></path></g><g><path fill="#fae0b2" d="M567.13,623.63c0,0-3.63-0.66-6.34-0.17c-2.72,0.49-2.26,3.66-2.26,3.66h14.42l1.16-1.17L567.13,623.63z"></path></g><g opacity=".4"><path d="M579.88,667.86h13.06c0.71,0,11.04-0.39,11.04-23.19c0-23.61,21.64-24.87,31.13-24.87c0,0-29.51-1.54-32.49,15.76      C598.89,657.18,602.9,667.44,579.88,667.86z"></path></g><g><path fill="#171c51" d="M575.21 626.51c-.02 0-.04 0-.07-.01l-8.08-2.68c-.11-.04-.17-.15-.13-.26.04-.11.15-.17.26-.13l8.08 2.68c.11.04.17.15.13.26C575.38 626.46 575.3 626.51 575.21 626.51zM578.27 625.44c-.02 0-.05 0-.07-.01l-9.38-3.51c-.11-.04-.16-.16-.12-.27.04-.11.16-.16.27-.12l9.38 3.51c.11.04.16.16.12.26C578.43 625.39 578.36 625.44 578.27 625.44z"></path><path fill="#171c51" d="M567.13 623.83c-.05 0-.1-.02-.14-.06-.08-.08-.09-.21-.01-.29l1.76-1.9c.08-.08.21-.09.29-.01.08.08.09.21.01.29l-1.76 1.9C567.24 623.81 567.19 623.83 567.13 623.83zM567.87 624.08c-.05 0-.11-.02-.15-.06-.08-.08-.08-.21 0-.29l1.88-1.82c.08-.08.21-.08.29 0 .08.08.08.21 0 .29l-1.88 1.82C567.97 624.06 567.92 624.08 567.87 624.08zM568.6 624.32c-.06 0-.11-.02-.15-.07-.07-.09-.07-.22.02-.29l2-1.75c.09-.07.22-.07.29.02.07.09.07.22-.02.29l-2 1.75C568.7 624.3 568.65 624.32 568.6 624.32zM569.34 624.56c-.06 0-.12-.03-.16-.08-.07-.09-.06-.22.03-.29l2.11-1.67c.09-.07.22-.06.29.03.07.09.06.22-.03.29l-2.11 1.67C569.43 624.55 569.38 624.56 569.34 624.56zM570.07 624.81c-.06 0-.13-.03-.17-.09-.07-.09-.05-.22.05-.29l2.23-1.6c.09-.07.22-.04.29.05.07.09.04.22-.05.29l-2.23 1.6C570.15 624.79 570.11 624.81 570.07 624.81zM570.8 625.05c-.07 0-.13-.03-.17-.09-.06-.1-.03-.22.06-.28l2.35-1.53c.1-.06.22-.03.28.06.06.1.03.22-.06.28l-2.35 1.53C570.88 625.04 570.84 625.05 570.8 625.05zM571.54 625.29c-.07 0-.14-.04-.18-.1-.06-.1-.02-.22.07-.28l2.47-1.45c.1-.06.22-.02.28.07.06.1.02.22-.07.28l-2.47 1.45C571.61 625.29 571.57 625.29 571.54 625.29zM572.27 625.54c-.07 0-.15-.04-.18-.11-.05-.1-.02-.23.09-.28l2.59-1.38c.1-.05.23-.02.28.09.05.1.02.23-.09.28l-2.59 1.38C572.34 625.53 572.31 625.54 572.27 625.54zM573.01 625.78c-.08 0-.15-.04-.19-.12-.05-.1-.01-.23.1-.27l2.71-1.3c.1-.05.23-.01.27.1.05.1.01.23-.1.27l-2.71 1.3C573.07 625.78 573.04 625.78 573.01 625.78zM573.74 626.03c-.08 0-.16-.05-.19-.12-.05-.1 0-.23.11-.27l2.83-1.23c.1-.04.23 0 .27.11.04.1 0 .23-.11.27l-2.83 1.23C573.8 626.02 573.77 626.03 573.74 626.03zM574.48 626.27c-.08 0-.16-.05-.19-.13-.04-.11.01-.23.12-.27l2.94-1.15c.11-.04.23.01.27.12.04.11-.01.23-.12.27l-2.94 1.15C574.53 626.27 574.5 626.27 574.48 626.27zM575.21 626.51c-.09 0-.16-.05-.19-.14-.04-.11.02-.22.13-.26l3.06-1.08c.11-.04.22.02.26.13.04.11-.02.22-.13.26l-3.06 1.08C575.26 626.51 575.23 626.51 575.21 626.51z"></path></g></g><g><path fill="#f7cc7f" d="M173.62 597.26H122c0 14.27 11.55 25.82 25.8 25.82h255.65c-14.25 0-25.82-11.55-25.82-25.82H173.62zM429.27 312.22v17.53h.01 51.62v-17.54c0-14.26-11.56-25.81-25.81-25.81-.02 0-.05 0-.07 0-.01 0-.02 0-.03 0-.94.06-8.7.65-15.45 5.2-6.08 4.58-10.06 11.8-10.26 19.95h-.01C429.27 311.77 429.27 311.99 429.27 312.22z"></path><path fill="#fae0b2" d="M173.62,312.22v285.04h204.01c0,14.27,11.57,25.82,25.82,25.82c14.27,0,25.82-11.55,25.82-25.82V329.75      v-17.53c0-0.23,0-0.45,0.01-0.67c0.19-10.26,4.91-16.35,10.27-19.95c4.3-3.25,9.65-5.18,15.45-5.2c0.01,0,0.02,0,0.03,0      c0.05-0.01,0.07-0.01,0.07-0.01H199.44C185.19,286.4,173.62,297.94,173.62,312.22z"></path><g><path fill="#355389" d="M326.38,580.14c-0.11,0-0.22-0.01-0.33-0.02c-1.41-0.16-2.36-1.11-2.47-2.47       c-0.31-3.86,8.22-13.76,15.91-19.77c0.29-0.92,0.53-1.81,0.71-2.66c1.2-5.64-0.04-9.22-3.69-10.66       c-10.56-4.16-23.11,19-27.05,28.27l-3-1.28c0.63-1.48,15.59-36.2,31.25-30.03c5.01,1.97,7.05,6.73,5.85,13.5       c1.42-0.86,2.74-1.49,3.87-1.81c1.1-0.31,1.96-0.35,2.63-0.24c1.27-1.03,2.6-1.66,3.9-1.52c0.2,0.02,0.55,0.08,0.93,0.25       c1.03-0.81,2.2-1.34,3.44-1.3c2.09,0.06,3.7,0.73,4.8,2c1.59,1.83,1.38,4.15,1.35,4.4l-3.24-0.37l0,0c0,0,0.09-1.15-0.59-1.91       c-0.48-0.54-1.29-0.82-2.41-0.86c-0.38-0.01-0.87,0.22-1.39,0.64c0.06,0.29,0.1,0.6,0.12,0.94c0.22,3.89-2.79,11.87-6.01,12.59       c-0.83,0.18-1.63-0.1-2.13-0.75c-0.45-0.58-0.58-1.44-0.52-2.4c-0.95,1.2-1.85,2.13-2.39,2.55c-1.53,1.18-2.55,0.56-2.91,0.24       c-1.2-1.05-0.62-2.91,0.19-4.76c0.46-1.06,1.63-3.32,3.17-5.54c-1.21,0.63-2.6,1.55-4.11,2.69       C338.97,569.13,331.12,580.14,326.38,580.14z M336.52,564.82c-0.55,0.53-1.1,1.07-1.65,1.63c-4.75,4.84-7.27,8.59-7.89,10.25       c1.12-0.55,3.41-2.44,6.33-6.62C334.49,568.38,335.57,566.61,336.52,564.82z M350.15,564.68L350.15,564.68L350.15,564.68z"></path><path fill="#355389" d="M338.15,576.92l-1.2-3.03c1.68-0.67,41.29-16.26,53.34-10.2l-1.47,2.92       C379.89,562.12,349.21,572.53,338.15,576.92z"></path></g><g><rect width="182.73" height="4.13" x="212.63" y="379.88" fill="#355389"></rect><rect width="182.73" height="4.13" x="212.63" y="401.6" fill="#355389"></rect><rect width="182.73" height="4.13" x="212.63" y="423.32" fill="#355389"></rect><rect width="182.73" height="4.13" x="212.63" y="445.04" fill="#355389"></rect><rect width="182.73" height="4.13" x="212.63" y="466.75" fill="#355389"></rect><rect width="182.73" height="4.13" x="212.63" y="488.47" fill="#355389"></rect><rect width="182.73" height="4.13" x="212.63" y="510.19" fill="#355389"></rect></g></g><g><path fill="#3c8f7c" d="M337.4 363.08l14.7 22.43-18.16 5.5-10.37 13.48-15.49-23.62c0 0 4.71-9.23 10.77-12.94C324.9 364.22 337.4 363.08 337.4 363.08zM268.95 363.08l-14.7 22.43 18.16 5.5 10.37 13.48 15.49-23.62c0 0-4.71-9.23-10.77-12.94C281.46 364.22 268.95 363.08 268.95 363.08z"></path><path fill="#50bfa5" d="M348.1,338.33c0-3.82-3.65-7.11-4.59-10.64c-0.98-3.64,0.51-8.32-1.34-11.5       c-0.65-1.13-1.66-1.99-2.81-2.75c-2.15-1.41-4.79-2.45-6.5-4.16c-2.43-2.43-3.5-6.73-6.21-8.84c-0.22-0.17-0.45-0.33-0.69-0.47       c-3.16-1.82-7.78-0.39-11.41-1.31c-0.03-0.01-0.07-0.02-0.1-0.03c-3.52-0.94-6.82-4.59-10.64-4.59c-0.05,0-0.1,0-0.15,0       c-3.76,0.09-7.01,3.66-10.49,4.59c-3.65,0.98-8.32-0.5-11.51,1.34c-3.23,1.87-4.27,6.68-6.9,9.31       c-2.63,2.63-7.44,3.67-9.31,6.9c-1.85,3.19-0.36,7.87-1.34,11.51c-0.94,3.53-4.59,6.82-4.59,10.64c0,3.83,3.64,7.12,4.59,10.64       c0.98,3.65-0.51,8.32,1.34,11.51c0.03,0.04,0.05,0.09,0.08,0.13c1.93,3.14,6.63,4.18,9.23,6.77c0.09,0.09,0.18,0.19,0.27,0.28       c2.43,2.68,3.51,7.22,6.63,9.03c0.33,0.19,0.68,0.35,1.03,0.47c3.11,1.1,7.2-0.01,10.48,0.86c2.39,0.64,4.67,2.53,7.08,3.67       c1.15,0.55,2.32,0.92,3.56,0.92c3.82,0,7.11-3.65,10.64-4.6c3.64-0.98,8.32,0.51,11.51-1.34c3.23-1.87,4.27-6.68,6.9-9.31       c2.63-2.63,7.43-3.66,9.31-6.9c1.85-3.19,0.36-7.86,1.34-11.51C344.45,345.45,348.1,342.16,348.1,338.33z M305.6,372.38       c-0.59,0.03-1.19,0.05-1.78,0.05c-5.82,0-11.3-1.46-16.09-4.03c-3.41-1.83-6.47-4.22-9.07-7.05c-3.02-3.3-5.4-7.2-6.94-11.5       c-1.29-3.59-1.99-7.47-1.99-11.5c0-16.67,11.96-30.54,27.77-33.51c2.05-0.38,4.16-0.58,6.32-0.58c2.44,0,4.83,0.26,7.12,0.75       c3.83,0.81,7.43,2.27,10.67,4.26c5.28,3.24,9.62,7.88,12.49,13.4c2.44,4.7,3.82,10.03,3.82,15.69       C337.91,356.56,323.6,371.45,305.6,372.38z"></path><path fill="#f7f07f" d="M337.75,335.04L337.75,335.04c-0.42-4.43-1.7-8.62-3.66-12.39c-1.8-3.47-4.18-6.59-7.01-9.23      c-1.68-1.57-3.51-2.97-5.48-4.17c-1.75-1.07-3.61-2-5.55-2.74c-1.65-0.64-3.36-1.14-5.11-1.52c-2.3-0.49-4.68-0.75-7.12-0.75      c-0.66,0-1.32,0.02-1.97,0.06c-1.48,0.08-2.93,0.26-4.35,0.53c-15.81,2.96-27.77,16.84-27.77,33.51c0,4.04,0.7,7.91,1.99,11.5      c0.5,1.38,1.08,2.73,1.74,4.02c1.4,2.73,3.15,5.24,5.2,7.48c1.2,1.31,2.51,2.53,3.9,3.64c1.61,1.29,3.34,2.43,5.17,3.41      c2.01,1.08,4.14,1.96,6.36,2.62c3.08,0.92,6.35,1.41,9.73,1.41c0.6,0,1.19-0.02,1.78-0.05c4.46-0.23,8.69-1.32,12.53-3.1      c11.68-5.41,19.78-17.23,19.78-30.95C337.91,337.22,337.85,336.12,337.75,335.04z M332.64,343.95      c-1.26,6.46-4.63,12.17-9.38,16.37l0,0c-5.18,4.59-12,7.38-19.45,7.38c-2.52,0-4.96-0.32-7.3-0.92      c-4.32-1.11-8.26-3.18-11.57-5.96c-3.8-3.19-6.78-7.33-8.58-12.04c-1.24-3.24-1.92-6.76-1.92-10.44      c0-14.53,10.61-26.63,24.48-28.96c1.59-0.27,3.22-0.41,4.88-0.41c3.46,0,6.77,0.6,9.85,1.7c4.18,1.49,7.92,3.9,10.98,6.99      c5.27,5.31,8.53,12.62,8.53,20.67C333.18,340.25,333,342.13,332.64,343.95L332.64,343.95z"></path><path fill="#f7f07f" d="M333.18,338.33c0,14.6-10.71,26.74-24.68,28.99h0c-1.52,0.25-3.09,0.37-4.68,0.37      c-4.96,0-9.63-1.24-13.74-3.42c-3.44-1.83-6.47-4.32-8.93-7.3c-3.02-3.67-5.18-8.08-6.14-12.91c-0.37-1.86-0.56-3.78-0.56-5.74      c0-12.83,8.26-23.75,19.74-27.75c3.02-1.05,6.25-1.62,9.62-1.62c1.58,0,3.12,0.13,4.63,0.36c3.91,0.62,7.57,2.02,10.8,4.03      c5.39,3.34,9.61,8.37,11.94,14.35C332.48,331,333.18,334.59,333.18,338.33z"></path><path fill="#fec65e" d="M303.82,368.77c-16.78,0-30.44-13.65-30.44-30.44c0-16.78,13.65-30.44,30.44-30.44       s30.44,13.65,30.44,30.44C334.25,355.12,320.6,368.77,303.82,368.77z M303.82,308.97c-16.19,0-29.36,13.17-29.36,29.37       c0,16.19,13.17,29.36,29.36,29.36c16.19,0,29.36-13.17,29.36-29.36C333.18,322.14,320.01,308.97,303.82,308.97z"></path><path fill="#fff" d="M334.09 322.65l-2.9 5.06c-2.33-5.98-6.56-11.01-11.94-14.35l2.36-4.11C326.89 312.49 331.22 317.12 334.09 322.65zM308.49 367.33l-2.89 5.05c-.59.03-1.19.05-1.78.05-5.82 0-11.3-1.46-16.09-4.03l2.36-4.11c4.1 2.18 8.78 3.42 13.74 3.42C305.41 367.7 306.97 367.57 308.49 367.33z"></path><path fill="#fff" d="M331.19 327.71l-22.7 39.62h0c-1.52.25-3.09.37-4.68.37-4.96 0-9.63-1.24-13.74-3.42l29.17-50.92C324.64 316.7 328.87 321.73 331.19 327.71zM310.94 304.99l-2.49 4.35c-1.51-.24-3.06-.36-4.63-.36-3.37 0-6.6.57-9.62 1.62l3.3-5.76c2.05-.38 4.16-.58 6.32-.58C306.26 304.24 308.64 304.5 310.94 304.99z"></path><path fill="#fff" d="M308.45 309.33l-27.29 47.65-2.49 4.35c-3.02-3.3-5.4-7.2-6.94-11.5l3.3-5.76 19.18-33.49c3.02-1.05 6.25-1.62 9.62-1.62C305.39 308.97 306.94 309.09 308.45 309.33zM323.26 360.32l-5.13 8.96c-3.84 1.78-8.07 2.87-12.53 3.1-.59.03-1.19.05-1.78.05-3.38 0-6.65-.49-9.73-1.41l2.43-4.24c2.34.6 4.78.92 7.3.92C311.27 367.7 318.08 364.91 323.26 360.32zM337.75 335.03L337.75 335.03l-5.11 8.91c.35-1.82.54-3.7.54-5.61 0-8.06-3.26-15.36-8.53-20.67l2.43-4.24c2.83 2.64 5.21 5.76 7.01 9.23C336.05 326.42 337.32 330.6 337.75 335.03z"></path><path fill="#fff" d="M284.95 360.81l-2.39 4.17c-1.39-1.11-2.7-2.33-3.9-3.64-2.05-2.24-3.81-4.76-5.2-7.48l2.91-5.08C278.17 353.48 281.15 357.62 284.95 360.81zM316.05 306.5l-2.38 4.17c-3.08-1.1-6.4-1.7-9.85-1.7-1.66 0-3.29.14-4.88.41l2.91-5.08c.65-.04 1.31-.06 1.97-.06 2.44 0 4.83.26 7.12.75C312.7 305.36 314.41 305.87 316.05 306.5z"></path></g></g></svg>