<svg id="visual" viewBox="0 0 900 600" width="900" height="600" xmlns="http://www.w3.org/2000/svg" xmlns:xlink="http://www.w3.org/1999/xlink" version="1.1"><rect width="900" height="600" fill="#004894"></rect><g><g transform="translate(445 142)"><path d="M0 -62.8L49.1 -39.2L61.2 14L27.3 56.6L-27.3 56.6L-61.2 14L-49.1 -39.2Z" fill="none" stroke="#0066FF" stroke-width="2"></path></g><g transform="translate(535 579)"><path d="M0 -24L18.8 -15L23.4 5.3L10.4 21.6L-10.4 21.6L-23.4 5.3L-18.8 -15Z" fill="none" stroke="#0066FF" stroke-width="2"></path></g><g transform="translate(550 434)"><path d="M0 -50L39.1 -31.2L48.7 11.1L21.7 45L-21.7 45L-48.7 11.1L-39.1 -31.2Z" stroke="#0066FF" fill="none" stroke-width="2"></path></g><g transform="translate(861 497)"><path d="M0 -45L35.2 -28.1L43.9 10L19.5 40.5L-19.5 40.5L-43.9 10L-35.2 -28.1Z" stroke="#0066FF" fill="none" stroke-width="2"></path></g><g transform="translate(355 510)"><path d="M0 -45L35.2 -28.1L43.9 10L19.5 40.5L-19.5 40.5L-43.9 10L-35.2 -28.1Z" stroke="#0066FF" fill="none" stroke-width="2"></path></g><g transform="translate(628 36)"><path d="M0 -27L21.1 -16.8L26.3 6L11.7 24.3L-11.7 24.3L-26.3 6L-21.1 -16.8Z" stroke="#0066FF" fill="none" stroke-width="2"></path></g><g transform="translate(723 369)"><path d="M0 -39L30.5 -24.3L38 8.7L16.9 35.1L-16.9 35.1L-38 8.7L-30.5 -24.3Z" stroke="#0066FF" fill="none" stroke-width="2"></path></g><g transform="translate(71 246)"><path d="M0 -59L46.1 -36.8L57.5 13.1L25.6 53.2L-25.6 53.2L-57.5 13.1L-46.1 -36.8Z" stroke="#0066FF" fill="none" stroke-width="2"></path></g><g transform="translate(212 563)"><path d="M0 -51L39.9 -31.8L49.7 11.3L22.1 45.9L-22.1 45.9L-49.7 11.3L-39.9 -31.8Z" stroke="#0066FF" fill="none" stroke-width="2"></path></g><g transform="translate(436 272)"><path d="M0 -49L38.3 -30.6L47.8 10.9L21.3 44.1L-21.3 44.1L-47.8 10.9L-38.3 -30.6Z" stroke="#0066FF" fill="none" stroke-width="2"></path></g><g transform="translate(261 397)"><path d="M0 -39L30.5 -24.3L38 8.7L16.9 35.1L-16.9 35.1L-38 8.7L-30.5 -24.3Z" stroke="#0066FF" fill="none" stroke-width="2"></path></g><g transform="translate(755 565)"><path d="M0 -50L39.1 -31.2L48.7 11.1L21.7 45L-21.7 45L-48.7 11.1L-39.1 -31.2Z" stroke="#0066FF" fill="none" stroke-width="2"></path></g><g transform="translate(697 241)"><path d="M0 -28L21.9 -17.5L27.3 6.2L12.1 25.2L-12.1 25.2L-27.3 6.2L-21.9 -17.5Z" stroke="#0066FF" fill="none" stroke-width="2"></path></g><g transform="translate(19 573)"><path d="M0 -45L35.2 -28.1L43.9 10L19.5 40.5L-19.5 40.5L-43.9 10L-35.2 -28.1Z" stroke="#0066FF" fill="none" stroke-width="2"></path></g><g transform="translate(300 213)"><path d="M0 -29L22.7 -18.1L28.3 6.5L12.6 26.1L-12.6 26.1L-28.3 6.5L-22.7 -18.1Z" stroke="#0066FF" fill="none" stroke-width="2"></path></g><g transform="translate(393 2)"><path d="M0 -45L35.2 -28.1L43.9 10L19.5 40.5L-19.5 40.5L-43.9 10L-35.2 -28.1Z" stroke="#0066FF" fill="none" stroke-width="2"></path></g><g transform="translate(777 117)"><path d="M0 -27L21.1 -16.8L26.3 6L11.7 24.3L-11.7 24.3L-26.3 6L-21.1 -16.8Z" stroke="#0066FF" fill="none" stroke-width="2"></path></g><g transform="translate(127 466)"><path d="M0 -35L27.4 -21.8L34.1 7.8L15.2 31.5L-15.2 31.5L-34.1 7.8L-27.4 -21.8Z" stroke="#0066FF" fill="none" stroke-width="2"></path></g><g transform="translate(824 267)"><path d="M0 -46L36 -28.7L44.8 10.2L20 41.4L-20 41.4L-44.8 10.2L-36 -28.7Z" stroke="#0066FF" fill="none" stroke-width="2"></path></g><g transform="translate(12 37)"><path d="M0 -33L25.8 -20.6L32.2 7.3L14.3 29.7L-14.3 29.7L-32.2 7.3L-25.8 -20.6Z" stroke="#0066FF" fill="none" stroke-width="2"></path></g><g transform="translate(869 21)"><path d="M0 -49L38.3 -30.6L47.8 10.9L21.3 44.1L-21.3 44.1L-47.8 10.9L-38.3 -30.6Z" stroke="#0066FF" fill="none" stroke-width="2"></path></g><g transform="translate(569 305)"><path d="M0 -32L25 -20L31.2 7.1L13.9 28.8L-13.9 28.8L-31.2 7.1L-25 -20Z" stroke="#0066FF" fill="none" stroke-width="2"></path></g><g transform="translate(192 146)"><path d="M0 -44L34.4 -27.4L42.9 9.8L19.1 39.6L-19.1 39.6L-42.9 9.8L-34.4 -27.4Z" stroke="#0066FF" fill="none" stroke-width="2"></path></g><g transform="translate(263 36)"><path d="M0 -57L44.6 -35.5L55.6 12.7L24.7 51.4L-24.7 51.4L-55.6 12.7L-44.6 -35.5Z" stroke="#0066FF" fill="none" stroke-width="2"></path></g><g transform="translate(589 156)"><path d="M0 -60L46.9 -37.4L58.5 13.4L26 54.1L-26 54.1L-58.5 13.4L-46.9 -37.4Z" stroke="#0066FF" fill="none" stroke-width="2"></path></g><g transform="translate(24 394)"><path d="M0 -53L41.4 -33L51.7 11.8L23 47.8L-23 47.8L-51.7 11.8L-41.4 -33Z" stroke="#0066FF" fill="none" stroke-width="2"></path></g><g transform="translate(139 17)"><path d="M0 -48L37.5 -29.9L46.8 10.7L20.8 43.2L-20.8 43.2L-46.8 10.7L-37.5 -29.9Z" stroke="#0066FF" fill="none" stroke-width="2"></path></g><g transform="translate(194 285)"><path d="M0 -28L21.9 -17.5L27.3 6.2L12.1 25.2L-12.1 25.2L-27.3 6.2L-21.9 -17.5Z" stroke="#0066FF" fill="none" stroke-width="2"></path></g><g transform="translate(422 397)"><path d="M0 -42L32.8 -26.2L40.9 9.3L18.2 37.8L-18.2 37.8L-40.9 9.3L-32.8 -26.2Z" stroke="#0066FF" fill="none" stroke-width="2"></path></g><g transform="translate(897 375)"><path d="M0 -49L38.3 -30.6L47.8 10.9L21.3 44.1L-21.3 44.1L-47.8 10.9L-38.3 -30.6Z" stroke="#0066FF" fill="none" stroke-width="2"></path></g></g></svg>