<svg xmlns="http://www.w3.org/2000/svg" viewBox="0 0 24 24" id="quote"><defs><linearGradient id="a" x1="19.071" x2="4.929" y1="19.071" y2="4.929" gradientUnits="userSpaceOnUse"><stop offset="0" stop-color="#eb595a"></stop><stop offset="1" stop-color="#f18875"></stop></linearGradient></defs><g data-name="1"><path fill="#fff" d="M12,23.5A11.5,11.5,0,1,1,23.5,12,11.513,11.513,0,0,1,12,23.5Z"></path><path fill="url(#a)" d="M12,2A10,10,0,1,0,22,12,10,10,0,0,0,12,2Zm-.386,9.839c0,3.082-.675,3.772-2.461,4.832a.75.75,0,0,1-.764-1.291c1.208-.716,1.63-.976,1.709-2.791H8.189A1.919,1.919,0,0,1,6.25,10.65V9.164A1.918,1.918,0,0,1,8.189,7.225H9.675a1.941,1.941,0,0,1,1.939,1.939Zm6.136,0c0,3.082-.675,3.772-2.461,4.832a.755.755,0,0,1-.382.1.75.75,0,0,1-.383-1.395c1.209-.716,1.63-.976,1.71-2.791H14.325a1.918,1.918,0,0,1-1.939-1.939V9.164a1.917,1.917,0,0,1,1.939-1.939h1.486A1.941,1.941,0,0,1,17.75,9.164Z"></path></g></svg>