<svg id="visual" viewBox="0 0 900 600" width="900" height="600" xmlns="http://www.w3.org/2000/svg" xmlns:xlink="http://www.w3.org/1999/xlink" version="1.1"><rect x="0" y="0" width="900" height="600" fill="#1a2b62"></rect><path d="M729 600L728.5 593.8C728 587.7 727 575.3 733.5 562.8C740 550.3 754 537.7 764.7 525.2C775.3 512.7 782.7 500.3 785.2 487.8C787.7 475.3 785.3 462.7 781 450.2C776.7 437.7 770.3 425.3 762.3 412.8C754.3 400.3 744.7 387.7 748 375.2C751.3 362.7 767.7 350.3 776.2 337.8C784.7 325.3 785.3 312.7 790.2 300.2C795 287.7 804 275.3 809.2 262.8C814.3 250.3 815.7 237.7 813.2 225.2C810.7 212.7 804.3 200.3 801.2 187.8C798 175.3 798 162.7 790.8 150.2C783.7 137.7 769.3 125.3 757.5 112.8C745.7 100.3 736.3 87.7 743.3 75.2C750.3 62.7 773.7 50.3 775 37.8C776.3 25.3 755.7 12.7 745.3 6.3L735 0L900 0L900 6.3C900 12.7 900 25.3 900 37.8C900 50.3 900 62.7 900 75.2C900 87.7 900 100.3 900 112.8C900 125.3 900 137.7 900 150.2C900 162.7 900 175.3 900 187.8C900 200.3 900 212.7 900 225.2C900 237.7 900 250.3 900 262.8C900 275.3 900 287.7 900 300.2C900 312.7 900 325.3 900 337.8C900 350.3 900 362.7 900 375.2C900 387.7 900 400.3 900 412.8C900 425.3 900 437.7 900 450.2C900 462.7 900 475.3 900 487.8C900 500.3 900 512.7 900 525.2C900 537.7 900 550.3 900 562.8C900 575.3 900 587.7 900 593.8L900 600Z" fill="#3579df" stroke-linecap="round" stroke-linejoin="miter"></path></svg>